{
.appVersion = "895";
copyright = "Copyright 2016 Google Inc. All Rights Reserved.";
customParameters = (
{
name = description;
value = "Designed by Monotype design team.";
},
{
name = vendorID;
value = GOOG;
},
{
name = glyphOrder;
value = (
.notdef,
NULL,
CR,
space,
uni00A0,
uni13A0,
uni13A1,
uni13A2,
uni13A3,
uni13A4,
uni13A5,
uni13A6,
uni13A7,
uni13A8,
uni13A9,
uni13AA,
uni13AB,
uni13AC,
uni13AD,
uni13AE,
uni13AF,
uni13B0,
uni13B1,
uni13B2,
uni13B3,
uni13B4,
uni13B5,
uni13B6,
uni13B7,
uni13B8,
uni13B9,
uni13BA,
uni13BB,
uni13BC,
uni13BD,
uni13BE,
uni13BF,
uni13C0,
uni13C1,
uni13C2,
uni13C3,
uni13C4,
uni13C5,
uni13C6,
uni13C7,
uni13C8,
uni13C9,
uni13CA,
uni13CB,
uni13CC,
uni13CD,
uni13CE,
uni13CF,
uni13D0,
uni13D1,
uni13D2,
uni13D3,
uni13D4,
uni13D5,
uni13D6,
uni13D7,
uni13D8,
uni13D9,
uni13DA,
uni13DB,
uni13DC,
uni13DD,
uni13DE,
uni13DF,
uni13E0,
uni13E1,
uni13E2,
uni13E3,
uni13E4,
uni13E5,
uni13E6,
uni13E7,
uni13E8,
uni13E9,
uni13EA,
uni13EB,
uni13EC,
uni13ED,
uni13EE,
uni13EF,
uni13F0,
uni13F1,
uni13F2,
uni13F3,
uni13F4,
uni13F5,
uniAB70,
uniAB71,
uniAB72,
uniAB73,
uniAB74,
uniAB75,
uniAB76,
uniAB77,
uniAB78,
uniAB79,
uniAB7A,
uniAB7B,
uniAB7C,
uniAB7D,
uniAB7E,
uniAB7F,
uniAB80,
uniAB81,
uniAB82,
uniAB83,
uniAB84,
uniAB85,
uniAB86,
uniAB87,
uniAB88,
uniAB89,
uniAB8A,
uniAB8B,
uniAB8C,
uniAB8D,
uniAB8E,
uniAB8F,
uniAB90,
uniAB91,
uniAB92,
uniAB93,
uniAB94,
uniAB95,
uniAB96,
uniAB97,
uniAB98,
uniAB99,
uniAB9A,
uniAB9B,
uniAB9C,
uniAB9D,
uniAB9E,
uniAB9F,
uniABA0,
uniABA1,
uniABA2,
uniABA3,
uniABA4,
uniABA5,
uniABA6,
uniABA7,
uniABA8,
uniABA9,
uniABAA,
uniABAB,
uniABAC,
uniABAD,
uniABAE,
uniABAF,
uniABB0,
uniABB1,
uniABB2,
uniABB3,
uniABB4,
uniABB5,
uniABB6,
uniABB7,
uniABB8,
uniABB9,
uniABBA,
uniABBB,
uniABBC,
uniABBD,
uniABBE,
uniABBF,
uni13F8,
uni13F9,
uni13FA,
uni13FB,
uni13FC,
uni13FD,
uni13A0.alt,
uni13A1.alt,
uni13A2.alt,
uni13A3.alt,
uni13A4.alt,
uni13A5.alt,
uni13A6.alt,
uni13A7.alt,
uni13A8.alt,
uni13A9.alt,
uni13AA.alt,
uni13AB.alt,
uni13AC.alt,

glyphs = (
{
glyphname = .notdef;
lastChange = "2016-06-22 20:04:59 +0000";
layers = (
{
layerId = "7F3B6D50-898E-416D-BEA3-584E42DB8369";
paths = (
{
closed = 1;
nodes = (
"94 0 LINE",
"505 0 LINE",
"505 714 LINE",
"94 714 LINE"
);
},
{
closed = 1;
nodes = (
"454 663 LINE",
"454 51 LINE",
"145 51 LINE",
"145 663 LINE"
);
}
);
width = 600;
},
{
layerId = "2DF4BED8-8C28-42AB-BF0E-54235D05585D";
paths = (
{
closed = 1;
nodes = (
"94 0 LINE",
"505 0 LINE",
"505 714 LINE",
"94 714 LINE"
);
},
{
closed = 1;
nodes = (
"454 663 LINE",
"454 51 LINE",
"145 51 LINE",
"145 663 LINE"
);
}
);
width = 600;
},
{
layerId = "E4ECE1AD-6BB8-4230-9342-12306ED3D56E";
paths = (
{
closed = 1;
nodes = (
"94 0 LINE",
"505 0 LINE",
"505 714 LINE",
"94 714 LINE"
);
},
{
closed = 1;
nodes = (
"454 663 LINE",
"454 51 LINE",
"145 51 LINE",
"145 663 LINE"
);
}
);
width = 600;
}
);
note = .notdef;
},
{
glyphname = uni13A0;
lastChange = "2016-06-22 20:04:59 +0000";
layers = (
{
anchors = (
{
name = bottom;
position = "{402, 0}";
},
{
name = top;
position = "{402, 714}";
}
);
layerId = "7F3B6D50-898E-416D-BEA3-584E42DB8369";
paths = (
{
closed = 1;
nodes = (
"357 0 LINE SMOOTH",
"590 0 OFFCURVE",
"717 128 OFFCURVE",
"717 363 CURVE SMOOTH",
"717 585 OFFCURVE",
"592 714 OFFCURVE",
"378 714 CURVE SMOOTH",
"70 714 LINE",
"70 663 LINE",
"153 654 LINE",
"153 60 LINE",
"70 51 LINE",
"70 0 LINE"
);
},
{
closed = 1;
nodes = (
"238 652 LINE",
"364 652 LINE SMOOTH",
"536 652 OFFCURVE",
"629 549 OFFCURVE",
"629 360 CURVE SMOOTH",
"629 165 OFFCURVE",
"533 62 OFFCURVE",
"349 62 CURVE SMOOTH",
"238 62 LINE"
);
}
);
width = 804;
},
{
anchors = (
{
name = bottom;
position = "{379, 0}";
},
{
name = top;
position = "{379, 714}";
}
);
layerId = "2DF4BED8-8C28-42AB-BF0E-54235D05585D";
paths = (
{
closed = 1;
nodes = (
"311 0 LINE SMOOTH",
"561 0 OFFCURVE",
"682 125 OFFCURVE",
"682 364 CURVE SMOOTH",
"682 591 OFFCURVE",
"570 714 OFFCURVE",
"334 714 CURVE SMOOTH",
"80 714 LINE",
"80 696 LINE",
"157 692 LINE",
"157 22 LINE",
"80 18 LINE",
"80 0 LINE"
);
},
{
closed = 1;
nodes = (
"183 692 LINE",
"324 692 LINE SMOOTH",
"556 692 OFFCURVE",
"655 577 OFFCURVE",
"655 363 CURVE SMOOTH",
"655 134 OFFCURVE",
"543 22 OFFCURVE",
"314 22 CURVE SMOOTH",
"183 22 LINE"
);
}
);
width = 757;
},
{
anchors = (
{
name = bottom;
position = "{401, 0}";
},
{
name = top;
position = "{401, 714}";
}
);
layerId = "E4ECE1AD-6BB8-4230-9342-12306ED3D56E";
paths = (
{
closed = 1;
nodes = (
"346 0 LINE SMOOTH",
"599 0 OFFCURVE",
"746 123 OFFCURVE",
"746 364 CURVE SMOOTH",
"746 598 OFFCURVE",
"611 714 OFFCURVE",
"372 714 CURVE SMOOTH",
"55 714 LINE",
"55 602 LINE",
"118 594 LINE",
"118 120 LINE",
"55 112 LINE",
"55 0 LINE"
);
},
{
closed = 1;
nodes = (
"309 573 LINE",
"370 573 LINE SMOOTH",
"485 573 OFFCURVE",
"546 514 OFFCURVE",
"546 365 CURVE SMOOTH",
"546 205 OFFCURVE",
"471 143 OFFCURVE",
"354 143 CURVE SMOOTH",
"309 143 LINE"
);
}
);
width = 801;
}
);
leftKerningGroup = uni13BB;
leftMetricsKey = uni13BB;
note = uni13A0;
rightKerningGroup = uni13A0;
unicode = 13A0;
},
{
glyphname = uni13A1;
lastChange = "2016-06-22 20:04:59 +0000";
layers = (
{
anchors = (
{
name = bottom;
position = "{366, 0}";
},
{
name = top;
position = "{366, 714}";
}
);
layerId = "7F3B6D50-898E-416D-BEA3-584E42DB8369";
paths = (
{
closed = 1;
nodes = (
"651 -5 OFFCURVE",
"672 0 OFFCURVE",
"687 6 CURVE",
"681 57 LINE",
"675 56 OFFCURVE",
"667 55 OFFCURVE",
"655 55 CURVE SMOOTH",
"624 55 OFFCURVE",
"608 68 OFFCURVE",
"601 106 CURVE SMOOTH",
"583 195 LINE SMOOTH",
"569 269 OFFCURVE",
"535 322 OFFCURVE",
"481 341 CURVE",
"481 345 LINE",
"576 365 OFFCURVE",
"627 429 OFFCURVE",
"627 529 CURVE SMOOTH",
"627 653 OFFCURVE",
"542 714 OFFCURVE",
"366 714 CURVE SMOOTH",
"70 714 LINE",
"70 665 LINE",
"153 657 LINE",
"153 57 LINE",
"70 49 LINE",
"70 0 LINE",
"327 0 LINE",
"327 49 LINE",
"237 57 LINE",
"237 315 LINE",
"408 315 LINE",
"458 305 OFFCURVE",
"489 258 OFFCURVE",
"504 172 CURVE SMOOTH",
"518 91 LINE SMOOTH",
"528 36 OFFCURVE",
"549 -5 OFFCURVE",
"621 -5 CURVE SMOOTH"
);
},
{
closed = 1;
nodes = (
"237 652 LINE",
"351 652 LINE SMOOTH",
"471 652 OFFCURVE",
"539 632 OFFCURVE",
"539 517 CURVE SMOOTH",
"539 421 OFFCURVE",
"486 375 OFFCURVE",
"379 375 CURVE SMOOTH",
"237 375 LINE"
);
}
);
width = 732;
},
{
anchors = (
{
name = bottom;
position = "{346, 0}";
},
{
name = top;
position = "{346, 714}";
}
);
layerId = "2DF4BED8-8C28-42AB-BF0E-54235D05585D";
paths = (
{
closed = 1;
nodes = (
"633 -6 OFFCURVE",
"643 -3 OFFCURVE",
"652 0 CURVE",
"650 21 LINE",
"642 19 OFFCURVE",
"629 17 OFFCURVE",
"616 17 CURVE SMOOTH",
"571 17 OFFCURVE",
"548 47 OFFCURVE",
"536 126 CURVE SMOOTH",
"527 183 LINE SMOOTH",
"508 303 OFFCURVE",
"459 330 OFFCURVE",
"419 344 CURVE",
"419 346 LINE",
"515 362 OFFCURVE",
"570 431 OFFCURVE",
"570 531 CURVE SMOOTH",
"570 652 OFFCURVE",
"509 714 OFFCURVE",
"331 714 CURVE SMOOTH",
"80 714 LINE",
"80 696 LINE",
"157 692 LINE",
"157 22 LINE",
"80 18 LINE",
"80 0 LINE",
"261 0 LINE",
"261 18 LINE",
"183 22 LINE",
"183 335 LINE",
"382 335 LINE",
"435 322 OFFCURVE",
"483 294 OFFCURVE",
"501 180 CURVE SMOOTH",
"510 122 LINE SMOOTH",
"524 32 OFFCURVE",
"553 -6 OFFCURVE",
"613 -6 CURVE SMOOTH"
);
},
{
closed = 1;
nodes = (
"183 692 LINE",
"326 692 LINE SMOOTH",
"495 692 OFFCURVE",
"543 634 OFFCURVE",
"543 530 CURVE SMOOTH",
"543 417 OFFCURVE",
"471 357 OFFCURVE",
"346 357 CURVE SMOOTH",
"183 357 LINE"
);
}
);
width = 692;
},
{
anchors = (
{
name = bottom;
position = "{393, 0}";
},
{
name = top;
position = "{393, 714}";
}
);
layerId = "E4ECE1AD-6BB8-4230-9342-12306ED3D56E";
paths = (
{
closed = 1;
nodes = (
"685 -6 OFFCURVE",
"727 6 OFFCURVE",
"751 18 CURVE",
"735 117 LINE",
"727 114 OFFCURVE",
"717 111 OFFCURVE",
"704 111 CURVE SMOOTH",
"677 111 OFFCURVE",
"663 122 OFFCURVE",
"654 167 CURVE SMOOTH",
"644 220 LINE SMOOTH",
"631 288 OFFCURVE",
"594 319 OFFCURVE",
"531 332 CURVE",
"531 334 LINE",
"625 355 OFFCURVE",
"683 419 OFFCURVE",
"683 517 CURVE SMOOTH",
"683 647 OFFCURVE",
"604 714 OFFCURVE",
"419 714 CURVE SMOOTH",
"55 714 LINE",
"55 602 LINE",
"118 595 LINE",
"118 119 LINE",
"55 112 LINE",
"55 0 LINE",
"363 0 LINE",
"363 112 LINE",
"311 118 LINE",
"311 270 LINE",
"379 270 LINE SMOOTH",
"428 270 OFFCURVE",
"453 253 OFFCURVE",
"465 175 CURVE SMOOTH",
"473 125 LINE SMOOTH",
"490 20 OFFCURVE",
"541 -6 OFFCURVE",
"632 -6 CURVE SMOOTH"
);
},
{
closed = 1;
nodes = (
"311 580 LINE",
"385 580 LINE SMOOTH",
"455 580 OFFCURVE",
"488 552 OFFCURVE",
"488 490 CURVE SMOOTH",
"488 417 OFFCURVE",
"441 395 OFFCURVE",
"381 395 CURVE SMOOTH",
"311 395 LINE"
);
}
);
width = 786;
}
);
leftKerningGroup = uni13BB;
leftMetricsKey = uni13BB;
note = uni13A1;
unicode = 13A1;
},
{
glyphname = uni13A2;
lastChange = "2016-06-22 20:04:59 +0000";
layers = (
{
anchors = (
{
name = bottom;
position = "{349, 0}";
},
{
name = top;
position = "{349, 714}";
}
);
layerId = "7F3B6D50-898E-416D-BEA3-584E42DB8369";
paths = (
{
closed = 1;
nodes = (
"492 0 LINE",
"492 49 LINE",
"391 57 LINE",
"391 652 LINE",
"593 652 LINE",
"601 539 LINE",
"664 539 LINE",
"664 714 LINE",
"34 714 LINE",
"34 539 LINE",
"97 539 LINE",
"105 652 LINE",
"307 652 LINE",
"307 57 LINE",
"205 49 LINE",
"205 0 LINE"
);
}
);
width = 698;
},
{
anchors = (
{
name = bottom;
position = "{303, 0}";
},
{
name = top;
position = "{303, 714}";
}
);
layerId = "2DF4BED8-8C28-42AB-BF0E-54235D05585D";
paths = (
{
closed = 1;
nodes = (
"399 0 LINE",
"399 18 LINE",
"316 23 LINE",
"316 693 LINE",
"541 693 LINE",
"547 556 LINE",
"566 556 LINE",
"566 714 LINE",
"40 714 LINE",
"40 556 LINE",
"59 556 LINE",
"65 693 LINE",
"290 693 LINE",
"290 23 LINE",
"207 18 LINE",
"207 0 LINE"
);
}
);
width = 606;
},
{
anchors = (
{
name = bottom;
position = "{366, 0}";
},
{
name = top;
position = "{366, 714}";
}
);
layerId = "E4ECE1AD-6BB8-4230-9342-12306ED3D56E";
paths = (
{
closed = 1;
nodes = (
"560 0 LINE",
"560 112 LINE",
"462 123 LINE",
"462 579 LINE",
"575 579 LINE",
"589 470 LINE",
"691 470 LINE",
"691 714 LINE",
"40 714 LINE",
"40 470 LINE",
"142 470 LINE",
"156 579 LINE",
"269 579 LINE",
"269 123 LINE",
"171 112 LINE",
"171 0 LINE"
);
}
);
width = 731;
}
);
leftKerningGroup = uni13A2;
note = uni13A2;
unicode = 13A2;
},
{
glyphname = uni13A3;
lastChange = "2016-06-22 20:04:59 +0000";
layers = (
{
anchors = (
{
name = bottom;
position = "{459, 0}";
},
{
name = top;
position = "{459, 714}";
}
);
layerId = "7F3B6D50-898E-416D-BEA3-584E42DB8369";
paths = (
{
closed = 1;
nodes = (
"712 3 OFFCURVE",
"817 108 OFFCURVE",
"817 257 CURVE SMOOTH",
"817 408 OFFCURVE",
"719 502 OFFCURVE",
"516 549 CURVE",
"516 657 LINE",
"601 665 LINE",
"601 714 LINE",
"352 714 LINE",
"352 665 LINE",
"437 657 LINE",
"437 578 LINE",
"435 538 OFFCURVE",
"373 478 OFFCURVE",
"301 445 CURVE",
"287 448 OFFCURVE",
"275 449 OFFCURVE",
"262 449 CURVE SMOOTH",
"138 449 OFFCURVE",
"57 361 OFFCURVE",
"57 224 CURVE SMOOTH",
"57 89 OFFCURVE",
"134 8 OFFCURVE",
"262 8 CURVE SMOOTH",
"386 8 OFFCURVE",
"467 97 OFFCURVE",
"467 232 CURVE SMOOTH",
"467 315 OFFCURVE",
"434 381 OFFCURVE",
"375 421 CURVE",
"409 439 OFFCURVE",
"443 464 OFFCURVE",
"476 494 CURVE",
"644 461 OFFCURVE",
"736 383 OFFCURVE",
"736 256 CURVE SMOOTH",
"736 144 OFFCURVE",
"673 75 OFFCURVE",
"548 52 CURVE",
"548 -11 LINE"
);
},
{
closed = 1;
nodes = (
"182 69 OFFCURVE",
"135 128 OFFCURVE",
"135 227 CURVE SMOOTH",
"135 326 OFFCURVE",
"183 387 OFFCURVE",
"262 387 CURVE SMOOTH",
"343 387 OFFCURVE",
"390 329 OFFCURVE",
"390 230 CURVE SMOOTH",
"390 130 OFFCURVE",
"342 69 OFFCURVE",
"262 69 CURVE SMOOTH"
);
}
);
width = 877;
},
{
anchors = (
{
name = bottom;
position = "{465, 0}";
},
{
name = top;
position = "{465, 714}";
}
);
layerId = "2DF4BED8-8C28-42AB-BF0E-54235D05585D";
paths = (
{
closed = 1;
nodes = (
"688 -3 OFFCURVE",
"791 75 OFFCURVE",
"791 234 CURVE SMOOTH",
"791 388 OFFCURVE",
"675 492 OFFCURVE",
"481 545 CURVE",
"481 691 LINE",
"564 696 LINE",
"564 714 LINE",
"372 714 LINE",
"372 696 LINE",
"455 691 LINE",
"455 569 LINE",
"453 533 OFFCURVE",
"376 471 OFFCURVE",
"292 436 CURVE",
"280 437 OFFCURVE",
"274 438 OFFCURVE",
"258 438 CURVE SMOOTH",
"146 438 OFFCURVE",
"66 353 OFFCURVE",
"66 223 CURVE SMOOTH",
"66 87 OFFCURVE",
"138 9 OFFCURVE",
"254 9 CURVE SMOOTH",
"364 9 OFFCURVE",
"443 89 OFFCURVE",
"443 226 CURVE SMOOTH",
"443 346 OFFCURVE",
"386 404 OFFCURVE",
"325 425 CURVE",
"381 450 OFFCURVE",
"442 498 OFFCURVE",
"462 525 CURVE",
"648 474 OFFCURVE",
"766 383 OFFCURVE",
"766 233 CURVE SMOOTH",
"766 91 OFFCURVE",
"672 22 OFFCURVE",
"550 13 CURVE",
"550 -11 LINE"
);
},
{
closed = 1;
nodes = (
"158 32 OFFCURVE",
"92 98 OFFCURVE",
"92 223 CURVE SMOOTH",
"92 337 OFFCURVE",
"156 414 OFFCURVE",
"258 414 CURVE SMOOTH",
"358 414 OFFCURVE",
"417 342 OFFCURVE",
"417 224 CURVE SMOOTH",
"417 98 OFFCURVE",
"348 32 OFFCURVE",
"254 32 CURVE SMOOTH"
);
}
);
width = 859;
},
{
anchors = (
{
name = bottom;
position = "{477, 0}";
},
{
name = top;
position = "{477, 714}";
}
);
layerId = "E4ECE1AD-6BB8-4230-9342-12306ED3D56E";
paths = (
{
closed = 1;
nodes = (
"753 -1 OFFCURVE",
"866 91 OFFCURVE",
"866 261 CURVE SMOOTH",
"866 407 OFFCURVE",
"770 504 OFFCURVE",
"591 561 CURVE",
"593 594 LINE",
"671 602 LINE",
"671 714 LINE",
"340 714 LINE",
"340 602 LINE",
"418 594 LINE",
"418 557 LINE",
"416 530 OFFCURVE",
"384 495 OFFCURVE",
"322 470 CURVE",
"312 471 OFFCURVE",
"302 472 OFFCURVE",
"291 472 CURVE SMOOTH",
"147 472 OFFCURVE",
"45 388 OFFCURVE",
"45 237 CURVE SMOOTH",
"45 88 OFFCURVE",
"143 5 OFFCURVE",
"291 5 CURVE SMOOTH",
"435 5 OFFCURVE",
"537 96 OFFCURVE",
"537 244 CURVE SMOOTH",
"537 315 OFFCURVE",
"511 370 OFFCURVE",
"476 404 CURVE",
"490 412 OFFCURVE",
"504 422 OFFCURVE",
"516 434 CURVE",
"620 402 OFFCURVE",
"691 353 OFFCURVE",
"691 254 CURVE SMOOTH",
"691 175 OFFCURVE",
"639 134 OFFCURVE",
"570 125 CURVE",
"570 -13 LINE"
);
},
{
closed = 1;
nodes = (
"250 140 OFFCURVE",
"221 173 OFFCURVE",
"221 240 CURVE SMOOTH",
"221 305 OFFCURVE",
"251 337 OFFCURVE",
"291 337 CURVE SMOOTH",
"332 337 OFFCURVE",
"361 309 OFFCURVE",
"361 242 CURVE SMOOTH",
"361 176 OFFCURVE",
"331 140 OFFCURVE",
"291 140 CURVE SMOOTH"
);
}
);
width = 914;
}
);
note = uni13A3;
unicode = 13A3;
},
{
glyphname = uni13A4;
lastChange = "2016-06-22 20:04:59 +0000";
layers = (
{
anchors = (
{
name = bottom;
position = "{375, 0}";
},
{
name = top;
position = "{375, 714}";
}
);
layerId = "7F3B6D50-898E-416D-BEA3-584E42DB8369";
paths = (
{
closed = 1;
nodes = (
"555 -11 OFFCURVE",
"659 108 OFFCURVE",
"673 333 CURVE",
"713 271 OFFCURVE",
"764 245 OFFCURVE",
"838 245 CURVE SMOOTH",
"968 245 OFFCURVE",
"1045 345 OFFCURVE",
"1045 515 CURVE SMOOTH",
"1045 645 OFFCURVE",
"987 719 OFFCURVE",
"886 719 CURVE SMOOTH",
"802 719 OFFCURVE",
"752 664 OFFCURVE",
"752 573 CURVE SMOOTH",
"752 548 OFFCURVE",
"753 531 OFFCURVE",
"755 520 CURVE",
"814 520 LINE",
"814 531 OFFCURVE",
"814 541 OFFCURVE",
"814 552 CURVE SMOOTH",
"814 624 OFFCURVE",
"838 657 OFFCURVE",
"890 657 CURVE SMOOTH",
"947 657 OFFCURVE",
"976 609 OFFCURVE",
"976 515 CURVE SMOOTH",
"976 379 OFFCURVE",
"929 315 OFFCURVE",
"831 315 CURVE SMOOTH",
"750 315 OFFCURVE",
"687 377 OFFCURVE",
"662 479 CURVE SMOOTH",
"621 644 OFFCURVE",
"526 725 OFFCURVE",
"374 725 CURVE SMOOTH",
"175 725 OFFCURVE",
"62 593 OFFCURVE",
"62 358 CURVE SMOOTH",
"62 117 OFFCURVE",
"169 -11 OFFCURVE",
"371 -11 CURVE SMOOTH"
);
},
{
closed = 1;
nodes = (
"225 57 OFFCURVE",
"150 160 OFFCURVE",
"150 357 CURVE SMOOTH",
"150 557 OFFCURVE",
"225 657 OFFCURVE",
"374 657 CURVE SMOOTH",
"517 657 OFFCURVE",
"590 557 OFFCURVE",
"590 357 CURVE SMOOTH",
"590 156 OFFCURVE",
"517 57 OFFCURVE",
"371 57 CURVE SMOOTH"
);
}
);
width = 1103;
},
{
anchors = (
{
name = bottom;
position = "{356, 0}";
},
{
name = top;
position = "{356, 714}";
}
);
layerId = "2DF4BED8-8C28-42AB-BF0E-54235D05585D";
paths = (
{
closed = 1;
nodes = (
"530 -10 OFFCURVE",
"638 126 OFFCURVE",
"638 368 CURVE",
"672 291 OFFCURVE",
"729 250 OFFCURVE",
"811 250 CURVE SMOOTH",
"937 250 OFFCURVE",
"999 343 OFFCURVE",
"999 510 CURVE SMOOTH",
"999 651 OFFCURVE",
"946 719 OFFCURVE",
"855 719 CURVE SMOOTH",
"773 719 OFFCURVE",
"730 665 OFFCURVE",
"730 583 CURVE SMOOTH",
"730 565 OFFCURVE",
"731 550 OFFCURVE",
"732 541 CURVE",
"759 541 LINE",
"758 552 OFFCURVE",
"757 567 OFFCURVE",
"757 580 CURVE SMOOTH",
"757 651 OFFCURVE",
"787 694 OFFCURVE",
"854 694 CURVE SMOOTH",
"929 694 OFFCURVE",
"972 635 OFFCURVE",
"972 510 CURVE SMOOTH",
"972 353 OFFCURVE",
"919 275 OFFCURVE",
"810 275 CURVE SMOOTH",
"714 275 OFFCURVE",
"651 344 OFFCURVE",
"628 471 CURVE SMOOTH",
"599 634 OFFCURVE",
"501 725 OFFCURVE",
"357 725 CURVE SMOOTH",
"173 725 OFFCURVE",
"70 574 OFFCURVE",
"70 359 CURVE SMOOTH",
"70 143 OFFCURVE",
"164 -10 OFFCURVE",
"351 -10 CURVE SMOOTH"
);
},
{
closed = 1;
nodes = (
"178 15 OFFCURVE",
"97 159 OFFCURVE",
"97 359 CURVE SMOOTH",
"97 556 OFFCURVE",
"182 700 OFFCURVE",
"357 700 CURVE SMOOTH",
"515 700 OFFCURVE",
"611 575 OFFCURVE",
"611 358 CURVE SMOOTH",
"611 156 OFFCURVE",
"526 15 OFFCURVE",
"352 15 CURVE SMOOTH"
);
}
);
width = 1057;
},
{
anchors = (
{
name = bottom;
position = "{367, 0}";
},
{
name = top;
position = "{367, 714}";
}
);
layerId = "E4ECE1AD-6BB8-4230-9342-12306ED3D56E";
paths = (
{
closed = 1;
nodes = (
"553 -10 OFFCURVE",
"648 93 OFFCURVE",
"674 257 CURVE",
"712 223 OFFCURVE",
"760 205 OFFCURVE",
"829 205 CURVE SMOOTH",
"988 205 OFFCURVE",
"1093 323 OFFCURVE",
"1093 485 CURVE SMOOTH",
"1093 637 OFFCURVE",
"1017 729 OFFCURVE",
"882 729 CURVE SMOOTH",
"771 729 OFFCURVE",
"700 663 OFFCURVE",
"700 546 CURVE SMOOTH",
"700 525 OFFCURVE",
"702 504 OFFCURVE",
"704 490 CURVE",
"853 490 LINE",
"852 501 OFFCURVE",
"851 515 OFFCURVE",
"851 529 CURVE SMOOTH",
"851 570 OFFCURVE",
"864 587 OFFCURVE",
"886 587 CURVE SMOOTH",
"912 587 OFFCURVE",
"929 563 OFFCURVE",
"929 482 CURVE SMOOTH",
"929 397 OFFCURVE",
"889 355 OFFCURVE",
"812 355 CURVE SMOOTH",
"729 355 OFFCURVE",
"690 402 OFFCURVE",
"668 494 CURVE SMOOTH",
"634 638 OFFCURVE",
"540 725 OFFCURVE",
"367 725 CURVE SMOOTH",
"148 725 OFFCURVE",
"51 581 OFFCURVE",
"51 359 CURVE SMOOTH",
"51 136 OFFCURVE",
"148 -10 OFFCURVE",
"367 -10 CURVE SMOOTH"
);
},
{
closed = 1;
nodes = (
"285 149 OFFCURVE",
"252 227 OFFCURVE",
"252 358 CURVE SMOOTH",
"252 489 OFFCURVE",
"284 569 OFFCURVE",
"367 569 CURVE SMOOTH",
"451 569 OFFCURVE",
"481 489 OFFCURVE",
"481 358 CURVE SMOOTH",
"481 227 OFFCURVE",
"451 149 OFFCURVE",
"367 149 CURVE SMOOTH"
);
}
);
width = 1139;
}
);
leftKerningGroup = uni13DF;
leftMetricsKey = uni13BE;
note = uni13A4;
unicode = 13A4;
},
{
glyphname = uni13A5;
lastChange = "2016-06-22 20:04:59 +0000";
layers = (
{
anchors = (
{
name = bottom;
position = "{170, 0}";
},
{
name = top;
position = "{170, 714}";
}
);
layerId = "7F3B6D50-898E-416D-BEA3-584E42DB8369";
paths = (
{
closed = 1;
nodes = (
"295 0 LINE",
"295 49 LINE",
"210 57 LINE",
"210 468 LINE",
"130 468 LINE",
"130 57 LINE",
"45 49 LINE",
"45 0 LINE"
);
},
{
closed = 1;
nodes = (
"202 606 OFFCURVE",
"222 629 OFFCURVE",
"222 666 CURVE SMOOTH",
"222 703 OFFCURVE",
"203 725 OFFCURVE",
"170 725 CURVE SMOOTH",
"136 725 OFFCURVE",
"117 704 OFFCURVE",
"117 666 CURVE SMOOTH",
"117 628 OFFCURVE",
"137 606 OFFCURVE",
"170 606 CURVE SMOOTH"
);
}
);
width = 339;
},
{
anchors = (
{
name = bottom;
position = "{156, 0}";
},
{
name = top;
position = "{156, 714}";
}
);
layerId = "2DF4BED8-8C28-42AB-BF0E-54235D05585D";
paths = (
{
closed = 1;
nodes = (
"252 0 LINE",
"252 18 LINE",
"169 23 LINE",
"169 466 LINE",
"143 466 LINE",
"143 23 LINE",
"60 18 LINE",
"60 0 LINE"
);
},
{
closed = 1;
nodes = (
"169 606 OFFCURVE",
"177 615 OFFCURVE",
"177 630 CURVE SMOOTH",
"177 644 OFFCURVE",
"169 653 OFFCURVE",
"156 653 CURVE SMOOTH",
"142 653 OFFCURVE",
"135 645 OFFCURVE",
"135 630 CURVE SMOOTH",
"135 615 OFFCURVE",
"142 606 OFFCURVE",
"156 606 CURVE SMOOTH"
);
}
);
width = 312;
},
{
anchors = (
{
name = bottom;
position = "{226, 0}";
},
{
name = top;
position = "{226, 714}";
}
);
layerId = "E4ECE1AD-6BB8-4230-9342-12306ED3D56E";
paths = (
{
closed = 1;
nodes = (
"419 0 LINE",
"419 105 LINE",
"316 116 LINE",
"316 469 LINE",
"135 469 LINE",
"135 116 LINE",
"32 105 LINE",
"32 0 LINE"
);
},
{
closed = 1;
nodes = (
"290 545 OFFCURVE",
"329 580 OFFCURVE",
"329 636 CURVE SMOOTH",
"329 692 OFFCURVE",
"292 725 OFFCURVE",
"227 725 CURVE SMOOTH",
"159 725 OFFCURVE",
"122 693 OFFCURVE",
"122 636 CURVE SMOOTH",
"122 579 OFFCURVE",
"161 545 OFFCURVE",
"227 545 CURVE SMOOTH"
);
}
);
width = 451;
}
);
note = uni13A5;
unicode = 13A5;
},
{
glyphname = uni13A6;
lastChange = "2016-06-22 20:04:59 +0000";
layers = (
{
anchors = (
{
name = bottom;
position = "{353, 0}";
},
{
name = top;
position = "{353, 714}";
}
);
layerId = "7F3B6D50-898E-416D-BEA3-584E42DB8369";
paths = (
{
closed = 1;
nodes = (
"477 -11 OFFCURVE",
"571 58 OFFCURVE",
"571 174 CURVE SMOOTH",
"571 237 OFFCURVE",
"543 280 OFFCURVE",
"453 337 CURVE",
"453 342 LINE",
"476 340 OFFCURVE",
"502 339 OFFCURVE",
"533 339 CURVE SMOOTH",
"618 339 LINE",
"618 395 LINE",
"364 395 LINE",
"251 444 OFFCURVE",
"212 485 OFFCURVE",
"212 554 CURVE SMOOTH",
"212 623 OFFCURVE",
"264 661 OFFCURVE",
"356 661 CURVE SMOOTH",
"420 661 OFFCURVE",
"472 644 OFFCURVE",
"486 617 CURVE",
"468 608 OFFCURVE",
"457 590 OFFCURVE",
"457 570 CURVE SMOOTH",
"457 541 OFFCURVE",
"477 523 OFFCURVE",
"510 523 CURVE SMOOTH",
"547 523 OFFCURVE",
"567 547 OFFCURVE",
"567 589 CURVE SMOOTH",
"567 674 OFFCURVE",
"463 725 OFFCURVE",
"357 725 CURVE SMOOTH",
"220 725 OFFCURVE",
"132 655 OFFCURVE",
"132 547 CURVE SMOOTH",
"132 485 OFFCURVE",
"161 437 OFFCURVE",
"236 389 CURVE",
"236 385 LINE",
"217 387 OFFCURVE",
"191 388 OFFCURVE",
"155 388 CURVE SMOOTH",
"88 388 LINE",
"88 332 LINE",
"330 332 LINE",
"441 287 OFFCURVE",
"489 238 OFFCURVE",
"489 172 CURVE SMOOTH",
"489 97 OFFCURVE",
"427 55 OFFCURVE",
"319 55 CURVE SMOOTH",
"259 55 OFFCURVE",
"207 70 OFFCURVE",
"188 95 CURVE",
"213 104 OFFCURVE",
"224 118 OFFCURVE",
"224 140 CURVE SMOOTH",
"224 170 OFFCURVE",
"204 188 OFFCURVE",
"171 188 CURVE SMOOTH",
"136 188 OFFCURVE",
"113 162 OFFCURVE",
"113 122 CURVE SMOOTH",
"113 36 OFFCURVE",
"212 -11 OFFCURVE",
"319 -11 CURVE SMOOTH"
);
}
);
width = 706;
},
{
anchors = (
{
name = bottom;
position = "{300, 0}";
},
{
name = top;
position = "{300, 714}";
}
);
layerId = "2DF4BED8-8C28-42AB-BF0E-54235D05585D";
paths = (
{
closed = 1;
nodes = (
"411 -10 OFFCURVE",
"505 55 OFFCURVE",
"505 180 CURVE SMOOTH",
"505 280 OFFCURVE",
"443 319 OFFCURVE",
"359 354 CURVE",
"359 356 LINE",
"383 354 OFFCURVE",
"404 354 OFFCURVE",
"431 354 CURVE SMOOTH",
"530 354 LINE",
"530 377 LINE",
"307 377 LINE",
"204 417 OFFCURVE",
"129 443 OFFCURVE",
"129 549 CURVE SMOOTH",
"129 649 OFFCURVE",
"207 703 OFFCURVE",
"320 703 CURVE SMOOTH",
"433 703 OFFCURVE",
"480 652 OFFCURVE",
"490 602 CURVE",
"470 601 OFFCURVE",
"464 590 OFFCURVE",
"464 576 CURVE SMOOTH",
"464 560 OFFCURVE",
"475 552 OFFCURVE",
"489 552 CURVE SMOOTH",
"503 552 OFFCURVE",
"516 562 OFFCURVE",
"516 582 CURVE SMOOTH",
"516 664 OFFCURVE",
"443 724 OFFCURVE",
"319 724 CURVE SMOOTH",
"198 724 OFFCURVE",
"102 667 OFFCURVE",
"102 547 CURVE SMOOTH",
"102 447 OFFCURVE",
"160 410 OFFCURVE",
"241 377 CURVE",
"241 375 LINE",
"218 377 OFFCURVE",
"194 377 OFFCURVE",
"168 377 CURVE SMOOTH",
"70 377 LINE",
"70 354 LINE",
"294 354 LINE",
"408 309 OFFCURVE",
"478 277 OFFCURVE",
"478 181 CURVE SMOOTH",
"478 65 OFFCURVE",
"393 12 OFFCURVE",
"281 12 CURVE SMOOTH",
"166 12 OFFCURVE",
"119 62 OFFCURVE",
"109 112 CURVE",
"129 113 OFFCURVE",
"135 124 OFFCURVE",
"135 138 CURVE SMOOTH",
"135 154 OFFCURVE",
"124 162 OFFCURVE",
"110 162 CURVE SMOOTH",
"96 162 OFFCURVE",
"83 152 OFFCURVE",
"83 132 CURVE SMOOTH",
"83 50 OFFCURVE",
"156 -10 OFFCURVE",
"280 -10 CURVE SMOOTH"
);
}
);
width = 600;
},
{
anchors = (
{
name = bottom;
position = "{334, 0}";
},
{
name = top;
position = "{334, 714}";
}
);
layerId = "E4ECE1AD-6BB8-4230-9342-12306ED3D56E";
paths = (
{
closed = 1;
nodes = (
"516 -10 OFFCURVE",
"597 91 OFFCURVE",
"597 195 CURVE SMOOTH",
"597 245 OFFCURVE",
"575 283 OFFCURVE",
"544 306 CURVE",
"544 308 LINE",
"568 306 OFFCURVE",
"583 306 OFFCURVE",
"594 306 CURVE SMOOTH",
"632 306 LINE",
"632 428 LINE",
"339 428 LINE",
"278 452 OFFCURVE",
"262 485 OFFCURVE",
"262 521 CURVE SMOOTH",
"262 572 OFFCURVE",
"290 602 OFFCURVE",
"356 602 CURVE SMOOTH",
"394 602 OFFCURVE",
"423 592 OFFCURVE",
"436 577 CURVE",
"433 572 OFFCURVE",
"432 565 OFFCURVE",
"432 551 CURVE SMOOTH",
"432 504 OFFCURVE",
"456 475 OFFCURVE",
"510 475 CURVE SMOOTH",
"565 475 OFFCURVE",
"597 511 OFFCURVE",
"597 570 CURVE SMOOTH",
"597 661 OFFCURVE",
"511 724 OFFCURVE",
"355 724 CURVE SMOOTH",
"173 724 OFFCURVE",
"78 652 OFFCURVE",
"78 536 CURVE SMOOTH",
"78 492 OFFCURVE",
"97 451 OFFCURVE",
"125 428 CURVE",
"125 426 LINE",
"103 428 OFFCURVE",
"91 428 OFFCURVE",
"78 428 CURVE SMOOTH",
"35 428 LINE",
"35 306 LINE",
"328 306 LINE",
"398 278 OFFCURVE",
"416 240 OFFCURVE",
"416 205 CURVE SMOOTH",
"416 149 OFFCURVE",
"378 117 OFFCURVE",
"311 117 CURVE SMOOTH",
"268 117 OFFCURVE",
"232 131 OFFCURVE",
"221 147 CURVE",
"224 152 OFFCURVE",
"225 159 OFFCURVE",
"225 173 CURVE SMOOTH",
"225 220 OFFCURVE",
"201 249 OFFCURVE",
"147 249 CURVE SMOOTH",
"92 249 OFFCURVE",
"60 213 OFFCURVE",
"60 154 CURVE SMOOTH",
"60 63 OFFCURVE",
"138 -10 OFFCURVE",
"307 -10 CURVE SMOOTH"
);
}
);
width = 667;
}
);
leftKerningGroup = uni13DA;
note = uni13A6;
unicode = 13A6;
},
{
glyphname = uni13A7;
lastChange = "2016-06-22 20:04:59 +0000";
layers = (
{
anchors = (
{
name = bottom;
position = "{410, 0}";
},
{
name = top;
position = "{410, 714}";
}
);
layerId = "7F3B6D50-898E-416D-BEA3-584E42DB8369";
paths = (
{
closed = 1;
nodes = (
"614 -11 OFFCURVE",
"758 140 OFFCURVE",
"758 367 CURVE SMOOTH",
"758 591 OFFCURVE",
"618 725 OFFCURVE",
"385 725 CURVE SMOOTH",
"286 725 OFFCURVE",
"191 693 OFFCURVE",
"134 641 CURVE",
"173 590 LINE",
"222 629 OFFCURVE",
"309 657 OFFCURVE",
"381 657 CURVE SMOOTH",
"561 657 OFFCURVE",
"670 547 OFFCURVE",
"670 367 CURVE SMOOTH",
"670 186 OFFCURVE",
"566 57 OFFCURVE",
"393 57 CURVE SMOOTH",
"323 57 OFFCURVE",
"269 73 OFFCURVE",
"230 104 CURVE",
"360 149 OFFCURVE",
"430 235 OFFCURVE",
"430 347 CURVE SMOOTH",
"430 454 OFFCURVE",
"363 521 OFFCURVE",
"255 521 CURVE SMOOTH",
"136 521 OFFCURVE",
"59 430 OFFCURVE",
"59 290 CURVE SMOOTH",
"59 105 OFFCURVE",
"199 -11 OFFCURVE",
"393 -11 CURVE SMOOTH"
);
},
{
closed = 1;
nodes = (
"160 179 OFFCURVE",
"143 235 OFFCURVE",
"143 292 CURVE SMOOTH",
"143 399 OFFCURVE",
"186 462 OFFCURVE",
"259 462 CURVE SMOOTH",
"313 462 OFFCURVE",
"347 417 OFFCURVE",
"347 346 CURVE SMOOTH",
"347 254 OFFCURVE",
"287 178 OFFCURVE",
"189 148 CURVE"
);
}
);
width = 820;
},
{
anchors = (
{
name = bottom;
position = "{410, 0}";
},
{
name = top;
position = "{410, 714}";
}
);
layerId = "2DF4BED8-8C28-42AB-BF0E-54235D05585D";
paths = (
{
closed = 1;
nodes = (
"604 -10 OFFCURVE",
"750 139 OFFCURVE",
"750 366 CURVE SMOOTH",
"750 603 OFFCURVE",
"595 724 OFFCURVE",
"412 724 CURVE SMOOTH",
"289 724 OFFCURVE",
"207 676 OFFCURVE",
"157 634 CURVE",
"171 613 LINE",
"224 657 OFFCURVE",
"301 699 OFFCURVE",
"411 699 CURVE SMOOTH",
"575 699 OFFCURVE",
"723 587 OFFCURVE",
"723 366 CURVE SMOOTH",
"723 149 OFFCURVE",
"584 15 OFFCURVE",
"394 15 CURVE SMOOTH",
"282 15 OFFCURVE",
"212 58 OFFCURVE",
"170 101 CURVE",
"286 138 OFFCURVE",
"396 215 OFFCURVE",
"396 351 CURVE SMOOTH",
"396 453 OFFCURVE",
"333 512 OFFCURVE",
"250 512 CURVE SMOOTH",
"142 512 OFFCURVE",
"67 431 OFFCURVE",
"67 296 CURVE SMOOTH",
"67 117 OFFCURVE",
"198 -10 OFFCURVE",
"394 -10 CURVE SMOOTH"
);
},
{
closed = 1;
nodes = (
"126 152 OFFCURVE",
"93 214 OFFCURVE",
"93 299 CURVE SMOOTH",
"93 417 OFFCURVE",
"159 488 OFFCURVE",
"250 488 CURVE SMOOTH",
"315 488 OFFCURVE",
"370 442 OFFCURVE",
"370 350 CURVE SMOOTH",
"370 220 OFFCURVE",
"258 154 OFFCURVE",
"153 120 CURVE"
);
}
);
width = 820;
},
{
anchors = (
{
name = bottom;
position = "{435, 0}";
},
{
name = top;
position = "{435, 714}";
}
);
layerId = "E4ECE1AD-6BB8-4230-9342-12306ED3D56E";
paths = (
{
closed = 1;
nodes = (
"662 -10 OFFCURVE",
"818 148 OFFCURVE",
"818 363 CURVE SMOOTH",
"818 574 OFFCURVE",
"689 726 OFFCURVE",
"414 726 CURVE SMOOTH",
"280 726 OFFCURVE",
"206 695 OFFCURVE",
"154 665 CURVE",
"218 533 LINE",
"251 551 OFFCURVE",
"310 573 OFFCURVE",
"394 573 CURVE SMOOTH",
"545 573 OFFCURVE",
"628 492 OFFCURVE",
"628 361 CURVE SMOOTH",
"628 226 OFFCURVE",
"542 141 OFFCURVE",
"417 141 CURVE SMOOTH",
"372 141 OFFCURVE",
"339 149 OFFCURVE",
"320 156 CURVE",
"382 188 OFFCURVE",
"437 244 OFFCURVE",
"437 341 CURVE SMOOTH",
"437 444 OFFCURVE",
"370 509 OFFCURVE",
"254 509 CURVE SMOOTH",
"140 509 OFFCURVE",
"46 434 OFFCURVE",
"46 290 CURVE SMOOTH",
"46 118 OFFCURVE",
"169 -10 OFFCURVE",
"415 -10 CURVE SMOOTH"
);
},
{
closed = 1;
nodes = (
"210 251 OFFCURVE",
"202 270 OFFCURVE",
"202 311 CURVE SMOOTH",
"202 351 OFFCURVE",
"222 375 OFFCURVE",
"253 375 CURVE SMOOTH",
"279 375 OFFCURVE",
"292 351 OFFCURVE",
"292 326 CURVE SMOOTH",
"292 278 OFFCURVE",
"254 247 OFFCURVE",
"223 232 CURVE"
);
}
);
width = 869;
}
);
leftKerningGroup = uni13DF;
note = uni13A7;
rightKerningGroup = uni13A0;
unicode = 13A7;
},
{
glyphname = uni13A8;
lastChange = "2016-06-22 20:04:59 +0000";
layers = (
{
anchors = (
{
name = bottom;
position = "{195, 0}";
},
{
name = top;
position = "{195, 714}";
}
);
layerId = "7F3B6D50-898E-416D-BEA3-584E42DB8369";
paths = (
{
closed = 1;
nodes = (
"319 0 LINE",
"319 49 LINE",
"238 57 LINE",
"238 313 LINE",
"381 398 LINE",
"409 307 OFFCURVE",
"457 264 OFFCURVE",
"530 264 CURVE SMOOTH",
"628 264 OFFCURVE",
"680 327 OFFCURVE",
"696 464 CURVE",
"636 470 LINE",
"619 375 OFFCURVE",
"588 333 OFFCURVE",
"535 333 CURVE SMOOTH",
"466 333 OFFCURVE",
"450 397 OFFCURVE",
"425 498 CURVE",
"425 498 LINE",
"238 384 LINE",
"238 657 LINE",
"319 665 LINE",
"319 714 LINE",
"70 714 LINE",
"70 665 LINE",
"153 657 LINE",
"153 57 LINE",
"70 49 LINE",
"70 0 LINE"
);
}
);
width = 716;
},
{
anchors = (
{
name = bottom;
position = "{176, 0}";
},
{
name = top;
position = "{176, 714}";
}
);
layerId = "2DF4BED8-8C28-42AB-BF0E-54235D05585D";
paths = (
{
closed = 1;
nodes = (
"271 0 LINE",
"271 18 LINE",
"189 23 LINE",
"189 319 LINE",
"375 449 LINE",
"392 342 OFFCURVE",
"424 281 OFFCURVE",
"503 281 CURVE SMOOTH",
"585 281 OFFCURVE",
"626 351 OFFCURVE",
"648 456 CURVE",
"621 460 LINE",
"604 372 OFFCURVE",
"573 307 OFFCURVE",
"503 307 CURVE SMOOTH",
"446 307 OFFCURVE",
"418 353 OFFCURVE",
"404 434 CURVE SMOOTH",
"395 488 LINE",
"189 347 LINE",
"189 691 LINE",
"271 696 LINE",
"271 714 LINE",
"80 714 LINE",
"80 696 LINE",
"163 691 LINE",
"163 23 LINE",
"80 18 LINE",
"80 0 LINE"
);
}
);
width = 668;
},
{
anchors = (
{
name = bottom;
position = "{225, 0}";
},
{
name = top;
position = "{225, 714}";
}
);
layerId = "E4ECE1AD-6BB8-4230-9342-12306ED3D56E";
paths = (
{
closed = 1;
nodes = (
"386 0 LINE",
"386 112 LINE",
"322 119 LINE",
"322 269 LINE",
"425 322 LINE",
"448 272 OFFCURVE",
"485 219 OFFCURVE",
"585 219 CURVE SMOOTH",
"714 219 OFFCURVE",
"774 311 OFFCURVE",
"795 458 CURVE",
"664 474 LINE",
"652 400 OFFCURVE",
"637 360 OFFCURVE",
"590 360 CURVE SMOOTH",
"552 360 OFFCURVE",
"534 380 OFFCURVE",
"519 444 CURVE SMOOTH",
"508 492 LINE",
"322 408 LINE",
"322 595 LINE",
"386 602 LINE",
"386 714 LINE",
"55 714 LINE",
"55 602 LINE",
"128 593 LINE",
"128 121 LINE",
"55 112 LINE",
"55 0 LINE"
);
}
);
width = 809;
}
);
leftKerningGroup = uni13BB;
leftMetricsKey = uni13BB;
note = uni13A8;
rightKerningGroup = uni13A8;
unicode = 13A8;
},
{
glyphname = uni13A9;
lastChange = "2016-06-22 20:04:59 +0000";
layers = (
{
anchors = (
{
name = bottom;
position = "{376, 0}";
},
{
name = top;
position = "{376, 714}";
}
);
layerId = "7F3B6D50-898E-416D-BEA3-584E42DB8369";
paths = (
{
closed = 1;
nodes = (
"349 -11 OFFCURVE",
"414 124 OFFCURVE",
"474 248 CURVE SMOOTH",
"673 657 LINE",
"732 665 LINE",
"732 714 LINE",
"500 714 LINE",
"500 665 LINE",
"590 657 LINE",
"440 337 LINE SMOOTH",
"425 304 OFFCURVE",
"407 265 OFFCURVE",
"394 233 CURVE",
"391 233 LINE",
"379 265 OFFCURVE",
"363 301 OFFCURVE",
"348 332 CURVE SMOOTH",
"196 657 LINE",
"285 665 LINE",
"285 714 LINE",
"31 714 LINE",
"31 665 LINE",
"97 657 LINE",
"349 162 LINE",
"307 84 OFFCURVE",
"267 48 OFFCURVE",
"227 48 CURVE SMOOTH",
"217 48 OFFCURVE",
"212 52 OFFCURVE",
"210 57 CURVE",
"213 61 OFFCURVE",
"216 68 OFFCURVE",
"216 77 CURVE SMOOTH",
"216 104 OFFCURVE",
"198 121 OFFCURVE",
"168 121 CURVE SMOOTH",
"131 121 OFFCURVE",
"110 99 OFFCURVE",
"110 67 CURVE SMOOTH",
"110 24 OFFCURVE",
"145 -11 OFFCURVE",
"212 -11 CURVE SMOOTH"
);
}
);
width = 752;
},
{
anchors = (
{
name = bottom;
position = "{373, 0}";
},
{
name = top;
position = "{373, 714}";
}
);
layerId = "2DF4BED8-8C28-42AB-BF0E-54235D05585D";
paths = (
{
closed = 1;
nodes = (
"300 -10 OFFCURVE",
"356 45 OFFCURVE",
"432 215 CURVE SMOOTH",
"644 692 LINE",
"718 696 LINE",
"718 714 LINE",
"536 714 LINE",
"536 696 LINE",
"615 692 LINE",
"424 253 LINE SMOOTH",
"416 235 OFFCURVE",
"407 211 OFFCURVE",
"399 192 CURVE",
"397 192 LINE",
"388 212 OFFCURVE",
"377 235 OFFCURVE",
"365 257 CURVE SMOOTH",
"138 692 LINE",
"217 696 LINE",
"217 714 LINE",
"35 714 LINE",
"35 696 LINE",
"109 692 LINE",
"385 168 LINE",
"340 78 OFFCURVE",
"294 13 OFFCURVE",
"212 13 CURVE SMOOTH",
"168 13 OFFCURVE",
"153 30 OFFCURVE",
"149 48 CURVE",
"164 50 OFFCURVE",
"172 59 OFFCURVE",
"172 73 CURVE SMOOTH",
"172 89 OFFCURVE",
"161 97 OFFCURVE",
"147 97 CURVE SMOOTH",
"133 97 OFFCURVE",
"119 87 OFFCURVE",
"119 67 CURVE SMOOTH",
"119 23 OFFCURVE",
"145 -10 OFFCURVE",
"208 -10 CURVE SMOOTH"
);
}
);
width = 746;
},
{
anchors = (
{
name = bottom;
position = "{361, 0}";
},
{
name = top;
position = "{361, 714}";
}
);
layerId = "E4ECE1AD-6BB8-4230-9342-12306ED3D56E";
paths = (
{
closed = 1;
nodes = (
"337 -10 OFFCURVE",
"412 75 OFFCURVE",
"469 199 CURVE SMOOTH",
"650 595 LINE",
"711 602 LINE",
"711 714 LINE",
"406 714 LINE",
"406 602 LINE",
"462 595 LINE",
"423 492 LINE SMOOTH",
"414 467 OFFCURVE",
"391 406 OFFCURVE",
"380 361 CURVE",
"375 361 LINE",
"364 398 OFFCURVE",
"346 443 OFFCURVE",
"332 476 CURVE SMOOTH",
"281 596 LINE",
"336 602 LINE",
"336 714 LINE",
"13 714 LINE",
"13 602 LINE",
"81 594 LINE",
"282 176 LINE",
"265 144 OFFCURVE",
"250 125 OFFCURVE",
"225 125 CURVE SMOOTH",
"217 125 OFFCURVE",
"210 128 OFFCURVE",
"208 131 CURVE",
"211 137 OFFCURVE",
"214 147 OFFCURVE",
"214 162 CURVE SMOOTH",
"214 196 OFFCURVE",
"188 227 OFFCURVE",
"137 227 CURVE SMOOTH",
"73 227 OFFCURVE",
"40 185 OFFCURVE",
"40 127 CURVE SMOOTH",
"40 43 OFFCURVE",
"93 -10 OFFCURVE",
"203 -10 CURVE SMOOTH"
);
}
);
width = 721;
}
);
note = uni13A9;
rightKerningGroup = uni13A9;
unicode = 13A9;
},
{
glyphname = uni13AA;
lastChange = "2016-06-22 20:04:59 +0000";
layers = (
{
anchors = (
{
name = bottom;
position = "{374, 0}";
},
{
name = top;
position = "{374, 714}";
}
);
layerId = "7F3B6D50-898E-416D-BEA3-584E42DB8369";
paths = (
{
closed = 1;
nodes = (
"260 0 LINE",
"260 49 LINE",
"170 57 LINE",
"228 222 LINE",
"516 222 LINE",
"568 57 LINE",
"478 49 LINE",
"478 0 LINE",
"740 0 LINE",
"740 49 LINE",
"659 57 LINE",
"435 714 LINE",
"329 714 LINE",
"89 57 LINE",
"8 49 LINE",
"8 0 LINE"
);
},
{
closed = 1;
nodes = (
"320 488 LINE SMOOTH",
"351 578 OFFCURVE",
"369 636 OFFCURVE",
"377 666 CURVE",
"381 666 LINE",
"388 636 OFFCURVE",
"405 578 OFFCURVE",
"432 491 CURVE SMOOTH",
"496 284 LINE",
"249 284 LINE"
);
}
);
width = 748;
},
{
anchors = (
{
name = bottom;
position = "{360, 0}";
},
{
name = top;
position = "{360, 714}";
}
);
layerId = "2DF4BED8-8C28-42AB-BF0E-54235D05585D";
paths = (
{
closed = 1;
nodes = (
"189 0 LINE",
"189 18 LINE",
"108 22 LINE",
"198 255 LINE",
"524 255 LINE",
"612 22 LINE",
"531 18 LINE",
"531 0 LINE",
"708 0 LINE",
"708 18 LINE",
"641 22 LINE",
"381 716 LINE",
"351 716 LINE",
"80 22 LINE",
"11 18 LINE",
"11 0 LINE"
);
},
{
closed = 1;
nodes = (
"328 594 LINE SMOOTH",
"341 627 OFFCURVE",
"354 662 OFFCURVE",
"364 691 CURVE",
"366 691 LINE",
"376 662 OFFCURVE",
"388 628 OFFCURVE",
"399 598 CURVE SMOOTH",
"516 277 LINE",
"206 277 LINE"
);
}
);
width = 719;
},
{
anchors = (
{
name = bottom;
position = "{384, 0}";
},
{
name = top;
position = "{384, 714}";
}
);
layerId = "E4ECE1AD-6BB8-4230-9342-12306ED3D56E";
paths = (
{
closed = 1;
nodes = (
"317 0 LINE",
"317 112 LINE",
"250 120 LINE",
"268 189 LINE",
"481 189 LINE",
"498 118 LINE",
"443 112 LINE",
"443 0 LINE",
"760 0 LINE",
"760 112 LINE",
"701 119 LINE",
"512 717 LINE",
"258 717 LINE",
"68 119 LINE",
"8 112 LINE",
"8 0 LINE"
);
},
{
closed = 1;
nodes = (
"330 429 LINE SMOOTH",
"347 488 OFFCURVE",
"364 555 OFFCURVE",
"373 598 CURVE",
"377 598 LINE",
"386 555 OFFCURVE",
"403 488 OFFCURVE",
"419 429 CURVE SMOOTH",
"448 323 LINE",
"300 323 LINE"
);
}
);
width = 768;
}
);
note = uni13AA;
unicode = 13AA;
},
{
glyphname = uni13AB;
lastChange = "2016-06-22 20:04:59 +0000";
layers = (
{
anchors = (
{
name = bottom;
position = "{296, 0}";
},
{
name = top;
position = "{409, 714}";
}
);
layerId = "7F3B6D50-898E-416D-BEA3-584E42DB8369";
paths = (
{
closed = 1;
nodes = (
"376 -11 OFFCURVE",
"455 84 OFFCURVE",
"455 267 CURVE SMOOTH",
"455 657 LINE",
"537 665 LINE",
"537 714 LINE",
"283 714 LINE",
"283 665 LINE",
"371 657 LINE",
"371 260 LINE SMOOTH",
"371 122 OFFCURVE",
"322 54 OFFCURVE",
"221 54 CURVE SMOOTH",
"158 54 OFFCURVE",
"119 74 OFFCURVE",
"104 114 CURVE",
"126 122 OFFCURVE",
"137 138 OFFCURVE",
"137 163 CURVE SMOOTH",
"137 191 OFFCURVE",
"117 209 OFFCURVE",
"84 209 CURVE SMOOTH",
"47 209 OFFCURVE",
"24 180 OFFCURVE",
"24 131 CURVE SMOOTH",
"24 43 OFFCURVE",
"118 -11 OFFCURVE",
"225 -11 CURVE SMOOTH"
);
}
);
width = 592;
},
{
anchors = (
{
name = bottom;
position = "{286, 0}";
},
{
name = top;
position = "{416, 714}";
}
);
layerId = "2DF4BED8-8C28-42AB-BF0E-54235D05585D";
paths = (
{
closed = 1;
nodes = (
"358 -11 OFFCURVE",
"430 87 OFFCURVE",
"430 258 CURVE SMOOTH",
"430 691 LINE",
"512 696 LINE",
"512 714 LINE",
"321 714 LINE",
"321 696 LINE",
"404 691 LINE",
"404 262 LINE",
"404 103 OFFCURVE",
"345 13 OFFCURVE",
"210 13 CURVE SMOOTH",
"110 13 OFFCURVE",
"66 65 OFFCURVE",
"62 113 CURVE",
"82 114 OFFCURVE",
"89 124 OFFCURVE",
"89 138 CURVE SMOOTH",
"89 154 OFFCURVE",
"77 163 OFFCURVE",
"63 163 CURVE SMOOTH",
"49 163 OFFCURVE",
"35 152 OFFCURVE",
"35 127 CURVE SMOOTH",
"35 59 OFFCURVE",
"87 -11 OFFCURVE",
"211 -11 CURVE SMOOTH"
);
}
);
width = 572;
},
{
anchors = (
{
name = bottom;
position = "{331, 0}";
},
{
name = top;
position = "{459, 714}";
}
);
layerId = "E4ECE1AD-6BB8-4230-9342-12306ED3D56E";
paths = (
{
closed = 1;
nodes = (
"454 0 OFFCURVE",
"555 114 OFFCURVE",
"555 316 CURVE SMOOTH",
"555 594 LINE",
"622 602 LINE",
"622 714 LINE",
"291 714 LINE",
"291 602 LINE",
"364 593 LINE",
"364 293 LINE SMOOTH",
"364 196 OFFCURVE",
"323 132 OFFCURVE",
"249 132 CURVE SMOOTH",
"221 132 OFFCURVE",
"204 140 OFFCURVE",
"193 151 CURVE",
"198 156 OFFCURVE",
"207 171 OFFCURVE",
"207 192 CURVE SMOOTH",
"207 237 OFFCURVE",
"176 269 OFFCURVE",
"120 269 CURVE SMOOTH",
"51 269 OFFCURVE",
"21 218 OFFCURVE",
"21 165 CURVE SMOOTH",
"21 74 OFFCURVE",
"85 0 OFFCURVE",
"249 0 CURVE SMOOTH"
);
}
);
width = 662;
}
);
note = uni13AB;
rightKerningGroup = uni13AB;
rightMetricsKey = uni13CC;
unicode = 13AB;
},
{
glyphname = uni13AC;
lastChange = "2016-06-22 20:04:59 +0000";
layers = (
{
anchors = (
{
name = bottom;
position = "{383, 0}";
},
{
name = top;
position = "{383, 714}";
}
);
layerId = "7F3B6D50-898E-416D-BEA3-584E42DB8369";
paths = (
{
closed = 1;
nodes = (
"645 0 LINE",
"645 166 LINE",
"579 166 LINE",
"574 62 LINE",
"238 62 LINE",
"238 337 LINE",
"414 337 LINE",
"419 262 LINE",
"477 262 LINE",
"477 473 LINE",
"419 473 LINE",
"414 398 LINE",
"238 398 LINE",
"238 652 LINE",
"565 652 LINE",
"570 548 LINE",
"636 548 LINE",
"636 714 LINE",
"70 714 LINE",
"70 665 LINE",
"153 657 LINE",
"153 57 LINE",
"70 49 LINE",
"70 0 LINE"
);
}
);
width = 705;
},
{
anchors = (
{
name = bottom;
position = "{367, 0}";
},
{
name = top;
position = "{367, 714}";
}
);
layerId = "2DF4BED8-8C28-42AB-BF0E-54235D05585D";
paths = (
{
closed = 1;
nodes = (
"618 0 LINE",
"618 150 LINE",
"599 150 LINE",
"594 23 LINE",
"194 23 LINE",
"194 357 LINE",
"441 357 LINE",
"446 268 LINE",
"467 268 LINE",
"467 468 LINE",
"446 468 LINE",
"441 378 LINE",
"194 378 LINE",
"194 691 LINE",
"585 691 LINE",
"590 570 LINE",
"609 570 LINE",
"609 714 LINE",
"80 714 LINE",
"80 696 LINE",
"168 691 LINE",
"168 23 LINE",
"80 18 LINE",
"80 0 LINE"
);
}
);
width = 673;
},
{
anchors = (
{
name = bottom;
position = "{383, 0}";
},
{
name = top;
position = "{383, 714}";
}
);
layerId = "E4ECE1AD-6BB8-4230-9342-12306ED3D56E";
paths = (
{
closed = 1;
nodes = (
"672 0 LINE",
"672 229 LINE",
"565 229 LINE",
"557 132 LINE",
"324 132 LINE",
"324 308 LINE",
"404 308 LINE",
"414 232 LINE",
"509 232 LINE",
"509 496 LINE",
"414 496 LINE",
"406 431 LINE",
"324 431 LINE",
"324 584 LINE",
"556 584 LINE",
"565 485 LINE",
"672 485 LINE",
"672 714 LINE",
"55 714 LINE",
"55 602 LINE",
"131 593 LINE",
"131 121 LINE",
"55 112 LINE",
"55 0 LINE"
);
}
);
width = 732;
}
);
leftKerningGroup = uni13BB;
leftMetricsKey = uni13BB;
note = uni13AC;
unicode = 13AC;
},
{
glyphname = uni13AD;
lastChange = "2016-06-22 20:04:59 +0000";
layers = (
{
anchors = (
{
name = bottom;
position = "{566, 0}";
},
{
name = top;
position = "{566, 714}";
}
);
layerId = "7F3B6D50-898E-416D-BEA3-584E42DB8369";
paths = (
{
closed = 1;
nodes = (
"620 0 LINE",
"897 423 LINE",
"978 430 LINE",
"978 479 LINE",
"730 479 LINE",
"730 430 LINE",
"815 422 LINE",
"698 236 LINE SMOOTH",
"655 168 OFFCURVE",
"624 115 OFFCURVE",
"601 70 CURVE",
"598 70 LINE",
"602 140 OFFCURVE",
"605 240 OFFCURVE",
"605 340 CURVE SMOOTH",
"605 657 LINE",
"692 665 LINE",
"692 714 LINE",
"427 714 LINE",
"427 665 LINE",
"527 657 LINE",
"527 438 LINE",
"396 358 LINE",
"381 458 OFFCURVE",
"314 517 OFFCURVE",
"218 517 CURVE SMOOTH",
"108 517 OFFCURVE",
"35 439 OFFCURVE",
"35 320 CURVE SMOOTH",
"35 200 OFFCURVE",
"106 124 OFFCURVE",
"216 124 CURVE SMOOTH",
"315 124 OFFCURVE",
"385 187 OFFCURVE",
"397 288 CURVE",
"527 370 LINE",
"527 0 LINE"
);
},
{
closed = 1;
nodes = (
"148 182 OFFCURVE",
"108 233 OFFCURVE",
"108 320 CURVE SMOOTH",
"108 407 OFFCURVE",
"148 458 OFFCURVE",
"218 458 CURVE SMOOTH",
"287 458 OFFCURVE",
"326 408 OFFCURVE",
"326 320 CURVE SMOOTH",
"326 234 OFFCURVE",
"285 182 OFFCURVE",
"216 182 CURVE SMOOTH"
);
}
);
width = 1000;
},
{
anchors = (
{
name = bottom;
position = "{543, 0}";
},
{
name = top;
position = "{543, 714}";
}
);
layerId = "2DF4BED8-8C28-42AB-BF0E-54235D05585D";
paths = (
{
closed = 1;
nodes = (
"556 0 LINE",
"871 447 LINE",
"945 452 LINE",
"945 470 LINE",
"754 470 LINE",
"754 452 LINE",
"840 447 LINE",
"645 168 LINE SMOOTH",
"599 103 OFFCURVE",
"577 70 OFFCURVE",
"555 36 CURVE",
"553 36 LINE",
"555 95 OFFCURVE",
"556 178 OFFCURVE",
"556 248 CURVE SMOOTH",
"556 691 LINE",
"638 696 LINE",
"638 714 LINE",
"447 714 LINE",
"447 696 LINE",
"530 691 LINE",
"530 419 LINE",
"403 338 LINE",
"398 449 OFFCURVE",
"331 518 OFFCURVE",
"226 518 CURVE SMOOTH",
"114 518 OFFCURVE",
"41 438 OFFCURVE",
"41 316 CURVE SMOOTH",
"41 191 OFFCURVE",
"110 117 OFFCURVE",
"223 117 CURVE SMOOTH",
"331 117 OFFCURVE",
"402 194 OFFCURVE",
"404 311 CURVE",
"530 391 LINE",
"530 0 LINE"
);
},
{
closed = 1;
nodes = (
"130 140 OFFCURVE",
"67 201 OFFCURVE",
"67 316 CURVE SMOOTH",
"67 424 OFFCURVE",
"128 495 OFFCURVE",
"226 495 CURVE SMOOTH",
"322 495 OFFCURVE",
"379 431 OFFCURVE",
"379 317 CURVE SMOOTH",
"379 201 OFFCURVE",
"313 140 OFFCURVE",
"223 140 CURVE SMOOTH"
);
}
);
width = 971;
},
{
anchors = (
{
name = bottom;
position = "{649, 0}";
},
{
name = top;
position = "{649, 714}";
}
);
layerId = "E4ECE1AD-6BB8-4230-9342-12306ED3D56E";
paths = (
{
closed = 1;
nodes = (
"828 0 LINE",
"1075 372 LINE",
"1135 380 LINE",
"1135 492 LINE",
"816 492 LINE",
"816 380 LINE",
"872 373 LINE",
"819 288 LINE SMOOTH",
"785 233 OFFCURVE",
"758 191 OFFCURVE",
"742 158 CURVE",
"740 158 LINE",
"744 229 OFFCURVE",
"745 273 OFFCURVE",
"745 323 CURVE SMOOTH",
"745 594 LINE",
"812 602 LINE",
"812 714 LINE",
"484 714 LINE",
"484 602 LINE",
"552 594 LINE",
"552 430 LINE",
"463 382 LINE",
"445 471 OFFCURVE",
"370 530 OFFCURVE",
"248 530 CURVE SMOOTH",
"121 530 OFFCURVE",
"32 455 OFFCURVE",
"32 318 CURVE SMOOTH",
"32 184 OFFCURVE",
"118 109 OFFCURVE",
"248 109 CURVE SMOOTH",
"356 109 OFFCURVE",
"437 167 OFFCURVE",
"460 266 CURVE",
"552 316 LINE",
"552 0 LINE"
);
},
{
closed = 1;
nodes = (
"216 231 OFFCURVE",
"193 260 OFFCURVE",
"193 321 CURVE SMOOTH",
"193 379 OFFCURVE",
"216 408 OFFCURVE",
"248 408 CURVE SMOOTH",
"281 408 OFFCURVE",
"305 383 OFFCURVE",
"305 323 CURVE SMOOTH",
"305 263 OFFCURVE",
"281 231 OFFCURVE",
"248 231 CURVE SMOOTH"
);
}
);
width = 1159;
}
);
note = uni13AD;
unicode = 13AD;
},
{
glyphname = uni13AE;
lastChange = "2016-06-22 20:04:59 +0000";
layers = (
{
anchors = (
{
name = bottom;
position = "{193, 0}";
},
{
name = top;
position = "{301, 767}";
}
);
layerId = "7F3B6D50-898E-416D-BEA3-584E42DB8369";
paths = (
{
closed = 1;
nodes = (
"320 0 LINE",
"320 49 LINE",
"237 57 LINE",
"237 312 LINE",
"295 312 LINE SMOOTH",
"482 312 OFFCURVE",
"582 398 OFFCURVE",
"582 557 CURVE SMOOTH",
"582 693 OFFCURVE",
"472 783 OFFCURVE",
"302 783 CURVE SMOOTH",
"221 783 OFFCURVE",
"141 764 OFFCURVE",
"95 733 CURVE",
"120 679 LINE",
"169 701 OFFCURVE",
"237 715 OFFCURVE",
"297 715 CURVE SMOOTH",
"430 715 OFFCURVE",
"504 657 OFFCURVE",
"504 554 CURVE SMOOTH",
"504 433 OFFCURVE",
"435 375 OFFCURVE",
"292 375 CURVE SMOOTH",
"237 375 LINE",
"237 490 LINE",
"313 498 LINE",
"313 547 LINE",
"70 547 LINE",
"70 498 LINE",
"153 490 LINE",
"153 57 LINE",
"70 49 LINE",
"70 0 LINE"
);
}
);
width = 627;
},
{
anchors = (
{
name = bottom;
position = "{176, 0}";
},
{
name = top;
position = "{300, 772}";
}
);
layerId = "2DF4BED8-8C28-42AB-BF0E-54235D05585D";
paths = (
{
closed = 1;
nodes = (
"271 0 LINE",
"271 18 LINE",
"189 23 LINE",
"189 323 LINE",
"286 323 LINE SMOOTH",
"444 323 OFFCURVE",
"545 406 OFFCURVE",
"545 561 CURVE SMOOTH",
"545 700 OFFCURVE",
"451 783 OFFCURVE",
"299 783 CURVE SMOOTH",
"223 783 OFFCURVE",
"157 766 OFFCURVE",
"101 737 CURVE",
"111 714 LINE",
"163 741 OFFCURVE",
"223 758 OFFCURVE",
"295 758 CURVE SMOOTH",
"437 758 OFFCURVE",
"518 687 OFFCURVE",
"518 560 CURVE SMOOTH",
"518 414 OFFCURVE",
"424 348 OFFCURVE",
"284 348 CURVE SMOOTH",
"189 348 LINE",
"189 501 LINE",
"271 506 LINE",
"271 524 LINE",
"80 524 LINE",
"80 506 LINE",
"163 501 LINE",
"163 23 LINE",
"80 18 LINE",
"80 0 LINE"
);
}
);
width = 600;
},
{
anchors = (
{
name = bottom;
position = "{230, 0}";
},
{
name = top;
position = "{346, 765}";
}
);
layerId = "E4ECE1AD-6BB8-4230-9342-12306ED3D56E";
paths = (
{
closed = 1;
nodes = (
"395 0 LINE",
"395 112 LINE",
"322 119 LINE",
"322 229 LINE",
"343 229 LINE SMOOTH",
"590 229 OFFCURVE",
"673 368 OFFCURVE",
"673 519 CURVE SMOOTH",
"673 677 OFFCURVE",
"571 782 OFFCURVE",
"349 782 CURVE SMOOTH",
"243 782 OFFCURVE",
"160 755 OFFCURVE",
"117 732 CURVE",
"164 595 LINE",
"200 612 OFFCURVE",
"257 632 OFFCURVE",
"330 632 CURVE SMOOTH",
"438 632 OFFCURVE",
"477 583 OFFCURVE",
"477 504 CURVE SMOOTH",
"477 413 OFFCURVE",
"424 378 OFFCURVE",
"337 378 CURVE SMOOTH",
"322 378 LINE",
"322 435 LINE",
"379 442 LINE",
"379 554 LINE",
"55 554 LINE",
"55 442 LINE",
"128 433 LINE",
"128 121 LINE",
"55 112 LINE",
"55 0 LINE"
);
}
);
width = 718;
}
);
leftMetricsKey = uni13BB;
note = uni13AE;
rightKerningGroup = uni13AE;
unicode = 13AE;
},
{
glyphname = uni13AF;
lastChange = "2016-06-22 20:04:59 +0000";
layers = (
{
anchors = (
{
name = bottom;
position = "{400, 0}";
},
{
name = top;
position = "{462, 714}";
}
);
layerId = "7F3B6D50-898E-416D-BEA3-584E42DB8369";
paths = (
{
closed = 1;
nodes = (
"228 -5 OFFCURVE",
"269 128 OFFCURVE",
"292 301 CURVE",
"611 301 LINE",
"610 202 OFFCURVE",
"596 59 OFFCURVE",
"545 57 CURVE",
"545 61 OFFCURVE",
"545 65 OFFCURVE",
"545 68 CURVE SMOOTH",
"545 96 OFFCURVE",
"521 106 OFFCURVE",
"497 106 CURVE SMOOTH",
"468 106 OFFCURVE",
"447 84 OFFCURVE",
"447 54 CURVE SMOOTH",
"447 18 OFFCURVE",
"477 -5 OFFCURVE",
"523 -5 CURVE SMOOTH",
"641 -5 OFFCURVE",
"696 116 OFFCURVE",
"696 338 CURVE SMOOTH",
"696 565 OFFCURVE",
"658 725 OFFCURVE",
"462 725 CURVE SMOOTH",
"305 725 OFFCURVE",
"238 632 OFFCURVE",
"217 357 CURVE SMOOTH",
"205 202 OFFCURVE",
"189 68 OFFCURVE",
"117 56 CURVE",
"117 59 OFFCURVE",
"117 62 OFFCURVE",
"117 65 CURVE SMOOTH",
"117 95 OFFCURVE",
"95 107 OFFCURVE",
"71 107 CURVE SMOOTH",
"41 107 OFFCURVE",
"20 85 OFFCURVE",
"20 54 CURVE SMOOTH",
"20 18 OFFCURVE",
"50 -5 OFFCURVE",
"96 -5 CURVE SMOOTH"
);
},
{
closed = 1;
nodes = (
"311 578 OFFCURVE",
"349 660 OFFCURVE",
"458 660 CURVE SMOOTH",
"589 660 OFFCURVE",
"610 540 OFFCURVE",
"612 364 CURVE",
"298 364 LINE"
);
}
);
width = 770;
},
{
anchors = (
{
name = bottom;
position = "{382, 0}";
},
{
name = top;
position = "{441, 714}";
}
);
layerId = "2DF4BED8-8C28-42AB-BF0E-54235D05585D";
paths = (
{
closed = 1;
nodes = (
"143 -4 OFFCURVE",
"216 65 OFFCURVE",
"241 328 CURVE",
"628 328 LINE",
"624 59 OFFCURVE",
"535 22 OFFCURVE",
"489 20 CURVE",
"493 24 OFFCURVE",
"497 31 OFFCURVE",
"497 40 CURVE SMOOTH",
"497 56 OFFCURVE",
"487 66 OFFCURVE",
"471 66 CURVE SMOOTH",
"455 66 OFFCURVE",
"443 54 OFFCURVE",
"443 36 CURVE SMOOTH",
"443 11 OFFCURVE",
"458 -4 OFFCURVE",
"485 -4 CURVE SMOOTH",
"558 -4 OFFCURVE",
"654 61 OFFCURVE",
"654 352 CURVE SMOOTH",
"654 659 OFFCURVE",
"562 725 OFFCURVE",
"444 725 CURVE SMOOTH",
"285 725 OFFCURVE",
"240 606 OFFCURVE",
"217 349 CURVE SMOOTH",
"192 67 OFFCURVE",
"122 22 OFFCURVE",
"75 20 CURVE",
"79 24 OFFCURVE",
"83 31 OFFCURVE",
"83 40 CURVE SMOOTH",
"83 56 OFFCURVE",
"73 66 OFFCURVE",
"57 66 CURVE SMOOTH",
"41 66 OFFCURVE",
"29 54 OFFCURVE",
"29 36 CURVE SMOOTH",
"29 11 OFFCURVE",
"44 -4 OFFCURVE",
"71 -4 CURVE SMOOTH"
);
},
{
closed = 1;
nodes = (
"266 603 OFFCURVE",
"310 701 OFFCURVE",
"443 701 CURVE SMOOTH",
"545 701 OFFCURVE",
"627 644 OFFCURVE",
"628 352 CURVE",
"243 352 LINE"
);
}
);
width = 720;
},
{
anchors = (
{
name = bottom;
position = "{460, 0}";
},
{
name = top;
position = "{573, 714}";
}
);
layerId = "E4ECE1AD-6BB8-4230-9342-12306ED3D56E";
paths = (
{
closed = 1;
nodes = (
"343 -9 OFFCURVE",
"408 106 OFFCURVE",
"435 278 CURVE",
"668 278 LINE",
"661 176 OFFCURVE",
"640 132 OFFCURVE",
"615 132 CURVE",
"617 136 OFFCURVE",
"619 147 OFFCURVE",
"619 159 CURVE SMOOTH",
"619 192 OFFCURVE",
"597 226 OFFCURVE",
"545 226 CURVE SMOOTH",
"481 226 OFFCURVE",
"450 183 OFFCURVE",
"450 125 CURVE SMOOTH",
"450 39 OFFCURVE",
"507 -9 OFFCURVE",
"607 -9 CURVE SMOOTH",
"788 -9 OFFCURVE",
"861 153 OFFCURVE",
"861 371 CURVE SMOOTH",
"861 629 OFFCURVE",
"764 725 OFFCURVE",
"573 725 CURVE SMOOTH",
"365 725 OFFCURVE",
"277 620 OFFCURVE",
"258 399 CURVE SMOOTH",
"240 193 OFFCURVE",
"223 132 OFFCURVE",
"188 132 CURVE",
"190 136 OFFCURVE",
"192 147 OFFCURVE",
"192 159 CURVE SMOOTH",
"192 192 OFFCURVE",
"170 226 OFFCURVE",
"118 226 CURVE SMOOTH",
"54 226 OFFCURVE",
"23 183 OFFCURVE",
"23 125 CURVE SMOOTH",
"23 39 OFFCURVE",
"80 -9 OFFCURVE",
"180 -9 CURVE SMOOTH"
);
},
{
closed = 1;
nodes = (
"457 533 OFFCURVE",
"483 589 OFFCURVE",
"558 589 CURVE SMOOTH",
"623 589 OFFCURVE",
"665 551 OFFCURVE",
"669 402 CURVE",
"448 402 LINE"
);
}
);
width = 920;
}
);
leftKerningGroup = uni13AF;
note = uni13AF;
unicode = 13AF;
},
{
glyphname = uni13B0;
lastChange = "2016-06-22 20:04:59 +0000";
layers = (
{
anchors = (
{
name = bottom;
position = "{195, 0}";
},
{
name = top;
position = "{195, 714}";
}
);
layerId = "7F3B6D50-898E-416D-BEA3-584E42DB8369";
paths = (
{
closed = 1;
nodes = (
"320 0 LINE",
"320 49 LINE",
"238 57 LINE",
"238 333 LINE",
"482 333 LINE",
"491 244 LINE",
"544 244 LINE",
"544 494 LINE",
"491 494 LINE",
"482 400 LINE",
"238 400 LINE",
"238 657 LINE",
"320 665 LINE",
"320 714 LINE",
"70 714 LINE",
"70 665 LINE",
"153 657 LINE",
"153 57 LINE",
"70 49 LINE",
"70 0 LINE"
);
}
);
width = 610;
},
{
anchors = (
{
name = bottom;
position = "{176, 0}";
},
{
name = top;
position = "{176, 714}";
}
);
layerId = "2DF4BED8-8C28-42AB-BF0E-54235D05585D";
paths = (
{
closed = 1;
nodes = (
"271 0 LINE",
"271 18 LINE",
"189 23 LINE",
"189 357 LINE",
"494 357 LINE",
"499 258 LINE",
"520 258 LINE",
"520 478 LINE",
"499 478 LINE",
"494 378 LINE",
"189 378 LINE",
"189 691 LINE",
"271 696 LINE",
"271 714 LINE",
"80 714 LINE",
"80 696 LINE",
"163 691 LINE",
"163 23 LINE",
"80 18 LINE",
"80 0 LINE"
);
}
);
width = 600;
},
{
anchors = (
{
name = bottom;
position = "{226, 0}";
},
{
name = top;
position = "{226, 714}";
}
);
layerId = "E4ECE1AD-6BB8-4230-9342-12306ED3D56E";
paths = (
{
closed = 1;
nodes = (
"386 0 LINE",
"386 112 LINE",
"322 119 LINE",
"322 308 LINE",
"484 308 LINE",
"496 217 LINE",
"591 217 LINE",
"591 511 LINE",
"496 511 LINE",
"486 431 LINE",
"322 431 LINE",
"322 595 LINE",
"386 602 LINE",
"386 714 LINE",
"55 714 LINE",
"55 602 LINE",
"128 593 LINE",
"128 121 LINE",
"55 112 LINE",
"55 0 LINE"
);
}
);
width = 636;
}
);
leftKerningGroup = uni13BB;
leftMetricsKey = uni13BB;
note = uni13B0;
unicode = 13B0;
},
{
glyphname = uni13B1;
lastChange = "2016-06-22 20:04:59 +0000";
layers = (
{
anchors = (
{
name = bottom;
position = "{199, 0}";
},
{
name = top;
position = "{365, 714}";
}
);
layerId = "7F3B6D50-898E-416D-BEA3-584E42DB8369";
paths = (
{
closed = 1;
nodes = (
"333 0 LINE",
"333 49 LINE",
"239 57 LINE",
"239 652 LINE",
"544 652 LINE",
"550 524 LINE",
"617 524 LINE",
"617 714 LINE",
"70 714 LINE",
"70 665 LINE",
"153 657 LINE",
"153 57 LINE",
"70 49 LINE",
"70 0 LINE"
);
}
);
width = 641;
},
{
anchors = (
{
name = bottom;
position = "{180, 0}";
},
{
name = top;
position = "{351, 714}";
}
);
layerId = "2DF4BED8-8C28-42AB-BF0E-54235D05585D";
paths = (
{
closed = 1;
nodes = (
"287 0 LINE",
"287 18 LINE",
"194 23 LINE",
"194 691 LINE",
"574 691 LINE",
"579 564 LINE",
"598 564 LINE",
"598 714 LINE",
"80 714 LINE",
"80 696 LINE",
"168 691 LINE",
"168 23 LINE",
"80 18 LINE",
"80 0 LINE"
);
}
);
width = 620;
},
{
anchors = (
{
name = bottom;
position = "{229, 0}";
},
{
name = top;
position = "{361, 714}";
}
);
layerId = "E4ECE1AD-6BB8-4230-9342-12306ED3D56E";
paths = (
{
closed = 1;
nodes = (
"400 0 LINE",
"400 112 LINE",
"324 121 LINE",
"324 582 LINE",
"539 582 LINE",
"547 485 LINE",
"654 485 LINE",
"654 714 LINE",
"55 714 LINE",
"55 602 LINE",
"131 593 LINE",
"131 121 LINE",
"55 112 LINE",
"55 0 LINE"
);
}
);
width = 678;
}
);
leftKerningGroup = uni13BB;
leftMetricsKey = uni13BB;
note = uni13B1;
unicode = 13B1;
},
{
glyphname = uni13B2;
lastChange = "2016-06-22 20:04:59 +0000";
layers = (
{
anchors = (
{
name = bottom;
position = "{423, 0}";
},
{
name = top;
position = "{425, 714}";
}
);
layerId = "7F3B6D50-898E-416D-BEA3-584E42DB8369";
paths = (
{
closed = 1;
nodes = (
"305 -11 OFFCURVE",
"368 19 OFFCURVE",
"420 72 CURVE",
"479 17 OFFCURVE",
"541 -11 OFFCURVE",
"608 -11 CURVE SMOOTH",
"731 -11 OFFCURVE",
"808 70 OFFCURVE",
"817 212 CURVE",
"892 220 LINE",
"892 269 LINE",
"655 269 LINE",
"655 220 LINE",
"746 212 LINE",
"738 104 OFFCURVE",
"696 56 OFFCURVE",
"607 56 CURVE SMOOTH",
"559 56 OFFCURVE",
"513 79 OFFCURVE",
"469 126 CURVE",
"555 229 OFFCURVE",
"615 384 OFFCURVE",
"615 504 CURVE SMOOTH",
"615 640 OFFCURVE",
"542 725 OFFCURVE",
"425 725 CURVE SMOOTH",
"302 725 OFFCURVE",
"224 633 OFFCURVE",
"224 486 CURVE SMOOTH",
"224 364 OFFCURVE",
"277 230 OFFCURVE",
"370 122 CURVE",
"329 78 OFFCURVE",
"287 56 OFFCURVE",
"242 56 CURVE SMOOTH",
"162 56 OFFCURVE",
"123 105 OFFCURVE",
"123 203 CURVE SMOOTH",
"123 222 OFFCURVE",
"124 242 OFFCURVE",
"125 252 CURVE",
"54 252 LINE",
"51 235 OFFCURVE",
"50 215 OFFCURVE",
"50 193 CURVE SMOOTH",
"50 63 OFFCURVE",
"112 -11 OFFCURVE",
"241 -11 CURVE SMOOTH"
);
},
{
closed = 1;
nodes = (
"350 264 OFFCURVE",
"307 387 OFFCURVE",
"307 499 CURVE SMOOTH",
"307 596 OFFCURVE",
"353 660 OFFCURVE",
"424 660 CURVE SMOOTH",
"496 660 OFFCURVE",
"534 603 OFFCURVE",
"534 499 CURVE SMOOTH",
"534 400 OFFCURVE",
"488 267 OFFCURVE",
"422 170 CURVE"
);
}
);
width = 910;
},
{
anchors = (
{
name = bottom;
position = "{429, 0}";
},
{
name = top;
position = "{436, 714}";
}
);
layerId = "2DF4BED8-8C28-42AB-BF0E-54235D05585D";
paths = (
{
closed = 1;
nodes = (
"305 -10 OFFCURVE",
"364 33 OFFCURVE",
"428 94 CURVE",
"485 37 OFFCURVE",
"540 -10 OFFCURVE",
"636 -10 CURVE SMOOTH",
"752 -10 OFFCURVE",
"821 65 OFFCURVE",
"826 224 CURVE",
"900 229 LINE",
"900 247 LINE",
"711 247 LINE",
"711 229 LINE",
"798 224 LINE",
"796 78 OFFCURVE",
"730 15 OFFCURVE",
"636 15 CURVE SMOOTH",
"554 15 OFFCURVE",
"504 53 OFFCURVE",
"446 114 CURVE",
"546 233 OFFCURVE",
"612 358 OFFCURVE",
"612 515 CURVE SMOOTH",
"612 651 OFFCURVE",
"545 726 OFFCURVE",
"436 726 CURVE SMOOTH",
"320 726 OFFCURVE",
"256 637 OFFCURVE",
"256 500 CURVE SMOOTH",
"256 367 OFFCURVE",
"321 219 OFFCURVE",
"408 113 CURVE",
"343 48 OFFCURVE",
"290 15 OFFCURVE",
"223 15 CURVE SMOOTH",
"135 15 OFFCURVE",
"86 70 OFFCURVE",
"86 186 CURVE SMOOTH",
"86 206 OFFCURVE",
"87 224 OFFCURVE",
"89 245 CURVE",
"62 245 LINE",
"60 224 OFFCURVE",
"59 206 OFFCURVE",
"59 186 CURVE SMOOTH",
"59 61 OFFCURVE",
"113 -10 OFFCURVE",
"218 -10 CURVE SMOOTH"
);
},
{
closed = 1;
nodes = (
"343 235 OFFCURVE",
"283 375 OFFCURVE",
"283 500 CURVE SMOOTH",
"283 632 OFFCURVE",
"343 701 OFFCURVE",
"436 701 CURVE SMOOTH",
"520 701 OFFCURVE",
"585 638 OFFCURVE",
"585 513 CURVE SMOOTH",
"585 366 OFFCURVE",
"523 243 OFFCURVE",
"427 133 CURVE"
);
}
);
width = 905;
},
{
anchors = (
{
name = bottom;
position = "{481, 0}";
},
{
name = top;
position = "{477, 714}";
}
);
layerId = "E4ECE1AD-6BB8-4230-9342-12306ED3D56E";
paths = (
{
closed = 1;
nodes = (
"363 -11 OFFCURVE",
"418 17 OFFCURVE",
"468 58 CURVE",
"522 15 OFFCURVE",
"583 -11 OFFCURVE",
"685 -11 CURVE SMOOTH",
"824 -11 OFFCURVE",
"908 69 OFFCURVE",
"928 183 CURVE",
"975 189 LINE",
"975 301 LINE",
"699 301 LINE",
"699 189 LINE",
"743 183 LINE",
"733 153 OFFCURVE",
"714 136 OFFCURVE",
"677 136 CURVE SMOOTH",
"636 136 OFFCURVE",
"612 152 OFFCURVE",
"592 171 CURVE",
"675 258 OFFCURVE",
"718 370 OFFCURVE",
"718 483 CURVE SMOOTH",
"718 638 OFFCURVE",
"625 725 OFFCURVE",
"479 725 CURVE SMOOTH",
"322 725 OFFCURVE",
"224 629 OFFCURVE",
"224 466 CURVE SMOOTH",
"224 358 OFFCURVE",
"262 260 OFFCURVE",
"349 170 CURVE",
"332 153 OFFCURVE",
"307 136 OFFCURVE",
"273 136 CURVE SMOOTH",
"231 136 OFFCURVE",
"205 166 OFFCURVE",
"205 234 CURVE SMOOTH",
"205 261 OFFCURVE",
"207 283 OFFCURVE",
"209 303 CURVE",
"33 303 LINE",
"28 276 OFFCURVE",
"25 244 OFFCURVE",
"25 210 CURVE SMOOTH",
"25 66 OFFCURVE",
"113 -11 OFFCURVE",
"268 -11 CURVE SMOOTH"
);
},
{
closed = 1;
nodes = (
"437 346 OFFCURVE",
"420 409 OFFCURVE",
"420 475 CURVE SMOOTH",
"420 551 OFFCURVE",
"440 584 OFFCURVE",
"474 584 CURVE SMOOTH",
"503 584 OFFCURVE",
"525 555 OFFCURVE",
"525 479 CURVE SMOOTH",
"525 420 OFFCURVE",
"507 351 OFFCURVE",
"470 291 CURVE"
);
}
);
width = 992;
}
);
leftKerningGroup = uni13EA;
note = uni13B2;
unicode = 13B2;
},
{
glyphname = uni13B3;
lastChange = "2016-06-22 20:04:59 +0000";
layers = (
{
anchors = (
{
name = bottom;
position = "{539, 0}";
},
{
name = top;
position = "{539, 714}";
}
);
layerId = "7F3B6D50-898E-416D-BEA3-584E42DB8369";
paths = (
{
closed = 1;
nodes = (
"379 0 LINE",
"483 341 LINE SMOOTH",
"507 421 OFFCURVE",
"523 477 OFFCURVE",
"535 528 CURVE",
"539 528 LINE",
"550 473 OFFCURVE",
"568 396 OFFCURVE",
"581 346 CURVE SMOOTH",
"669 0 LINE",
"768 0 LINE",
"984 657 LINE",
"1065 665 LINE",
"1065 714 LINE",
"815 714 LINE",
"815 665 LINE",
"902 657 LINE",
"758 185 LINE SMOOTH",
"746 144 OFFCURVE",
"735 110 OFFCURVE",
"725 68 CURVE",
"721 68 LINE",
"713 110 OFFCURVE",
"708 132 OFFCURVE",
"695 185 CURVE SMOOTH",
"577 657 LINE",
"662 665 LINE",
"662 714 LINE",
"416 714 LINE",
"416 665 LINE",
"498 657 LINE",
"502 639 LINE",
"367 181 LINE SMOOTH",
"355 142 OFFCURVE",
"345 104 OFFCURVE",
"336 69 CURVE",
"332 69 LINE",
"326 104 OFFCURVE",
"318 141 OFFCURVE",
"308 181 CURVE SMOOTH",
"185 657 LINE",
"268 665 LINE",
"268 714 LINE",
"12 714 LINE",
"12 665 LINE",
"94 657 LINE",
"279 0 LINE"
);
}
);
width = 1077;
},
{
anchors = (
{
name = bottom;
position = "{487, 0}";
},
{
name = top;
position = "{487, 714}";
}
);
layerId = "2DF4BED8-8C28-42AB-BF0E-54235D05585D";
paths = (
{
closed = 1;
nodes = (
"301 0 LINE",
"470 553 LINE SMOOTH",
"476 573 OFFCURVE",
"482 593 OFFCURVE",
"488 616 CURVE",
"490 616 LINE",
"496 592 OFFCURVE",
"501 577 OFFCURVE",
"510 544 CURVE SMOOTH",
"660 0 LINE",
"688 0 LINE",
"883 692 LINE",
"960 696 LINE",
"960 714 LINE",
"780 714 LINE",
"780 696 LINE",
"856 692 LINE",
"704 151 LINE SMOOTH",
"691 106 OFFCURVE",
"683 74 OFFCURVE",
"675 42 CURVE",
"673 42 LINE",
"665 74 OFFCURVE",
"657 107 OFFCURVE",
"645 151 CURVE SMOOTH",
"495 692 LINE",
"572 696 LINE",
"572 714 LINE",
"392 714 LINE",
"392 696 LINE",
"466 692 LINE",
"477 654 LINE",
"322 152 LINE SMOOTH",
"308 107 OFFCURVE",
"299 76 OFFCURVE",
"289 42 CURVE",
"287 42 LINE",
"279 77 OFFCURVE",
"271 109 OFFCURVE",
"259 153 CURVE SMOOTH",
"116 692 LINE",
"195 696 LINE",
"195 714 LINE",
"14 714 LINE",
"14 696 LINE",
"89 692 LINE",
"272 0 LINE"
);
}
);
width = 974;
},
{
anchors = (
{
name = bottom;
position = "{562, 0}";
},
{
name = top;
position = "{562, 714}";
}
);
layerId = "E4ECE1AD-6BB8-4230-9342-12306ED3D56E";
paths = (
{
closed = 1;
nodes = (
"439 0 LINE",
"519 263 LINE SMOOTH",
"531 301 OFFCURVE",
"544 349 OFFCURVE",
"554 393 CURVE",
"556 393 LINE",
"565 349 OFFCURVE",
"578 301 OFFCURVE",
"588 263 CURVE SMOOTH",
"656 0 LINE",
"881 0 LINE",
"1036 593 LINE",
"1113 602 LINE",
"1113 714 LINE",
"794 714 LINE",
"794 602 LINE",
"863 594 LINE",
"807 350 LINE SMOOTH",
"800 319 OFFCURVE",
"779 219 OFFCURVE",
"769 167 CURVE",
"767 167 LINE",
"758 219 OFFCURVE",
"740 298 OFFCURVE",
"727 349 CURVE SMOOTH",
"663 594 LINE",
"730 602 LINE",
"730 714 LINE",
"414 714 LINE",
"414 602 LINE",
"467 595 LINE",
"469 581 LINE",
"393 320 LINE SMOOTH",
"378 267 OFFCURVE",
"360 214 OFFCURVE",
"349 167 CURVE",
"347 167 LINE",
"340 214 OFFCURVE",
"327 289 OFFCURVE",
"320 320 CURVE SMOOTH",
"261 592 LINE",
"344 602 LINE",
"344 714 LINE",
"10 714 LINE",
"10 602 LINE",
"73 595 LINE",
"223 0 LINE"
);
}
);
width = 1123;
}
);
leftKerningGroup = uni13B3;
note = uni13B3;
unicode = 13B3;
},
{
glyphname = uni13B4;
lastChange = "2016-06-22 20:04:59 +0000";
layers = (
{
anchors = (
{
name = bottom;
position = "{259, 0}";
},
{
name = top;
position = "{392, 714}";
}
);
layerId = "7F3B6D50-898E-416D-BEA3-584E42DB8369";
paths = (
{
closed = 1;
nodes = (
"400 -11 OFFCURVE",
"475 91 OFFCURVE",
"475 288 CURVE",
"471 528 LINE SMOOTH",
"471 617 OFFCURVE",
"508 665 OFFCURVE",
"580 665 CURVE SMOOTH",
"636 665 OFFCURVE",
"673 635 OFFCURVE",
"676 585 CURVE",
"651 574 OFFCURVE",
"639 558 OFFCURVE",
"639 534 CURVE SMOOTH",
"639 505 OFFCURVE",
"659 486 OFFCURVE",
"691 486 CURVE SMOOTH",
"731 486 OFFCURVE",
"752 515 OFFCURVE",
"752 571 CURVE SMOOTH",
"752 661 OFFCURVE",
"678 725 OFFCURVE",
"579 725 CURVE SMOOTH",
"461 725 OFFCURVE",
"391 648 OFFCURVE",
"391 516 CURVE SMOOTH",
"391 474 LINE SMOOTH",
"391 443 OFFCURVE",
"392 419 OFFCURVE",
"393 396 CURVE",
"389 396 LINE",
"369 440 OFFCURVE",
"321 468 OFFCURVE",
"255 468 CURVE SMOOTH",
"131 468 OFFCURVE",
"46 368 OFFCURVE",
"46 222 CURVE SMOOTH",
"46 79 OFFCURVE",
"122 -11 OFFCURVE",
"242 -11 CURVE SMOOTH"
);
},
{
closed = 1;
nodes = (
"176 51 OFFCURVE",
"129 115 OFFCURVE",
"129 225 CURVE SMOOTH",
"129 322 OFFCURVE",
"171 404 OFFCURVE",
"264 404 CURVE SMOOTH",
"342 404 OFFCURVE",
"395 341 OFFCURVE",
"395 248 CURVE SMOOTH",
"395 127 OFFCURVE",
"344 51 OFFCURVE",
"256 51 CURVE SMOOTH"
);
}
);
width = 783;
},
{
anchors = (
{
name = bottom;
position = "{233, 0}";
},
{
name = top;
position = "{348, 714}";
}
);
layerId = "2DF4BED8-8C28-42AB-BF0E-54235D05585D";
paths = (
{
closed = 1;
nodes = (
"345 -11 OFFCURVE",
"417 75 OFFCURVE",
"417 237 CURVE SMOOTH",
"417 569 LINE SMOOTH",
"417 669 OFFCURVE",
"466 703 OFFCURVE",
"539 703 CURVE SMOOTH",
"602 703 OFFCURVE",
"629 668 OFFCURVE",
"639 618 CURVE",
"619 617 OFFCURVE",
"613 606 OFFCURVE",
"613 592 CURVE SMOOTH",
"613 576 OFFCURVE",
"624 568 OFFCURVE",
"638 568 CURVE SMOOTH",
"652 568 OFFCURVE",
"665 578 OFFCURVE",
"665 598 CURVE SMOOTH",
"665 680 OFFCURVE",
"612 724 OFFCURVE",
"538 724 CURVE SMOOTH",
"457 724 OFFCURVE",
"391 687 OFFCURVE",
"391 567 CURVE SMOOTH",
"391 466 LINE SMOOTH",
"391 384 OFFCURVE",
"392 386 OFFCURVE",
"393 355 CURVE",
"390 355 LINE",
"369 418 OFFCURVE",
"317 461 OFFCURVE",
"239 461 CURVE SMOOTH",
"117 461 OFFCURVE",
"50 370 OFFCURVE",
"50 222 CURVE SMOOTH",
"50 63 OFFCURVE",
"124 -11 OFFCURVE",
"229 -11 CURVE SMOOTH"
);
},
{
closed = 1;
nodes = (
"144 13 OFFCURVE",
"76 77 OFFCURVE",
"76 223 CURVE SMOOTH",
"76 362 OFFCURVE",
"137 437 OFFCURVE",
"238 437 CURVE SMOOTH",
"337 437 OFFCURVE",
"391 355 OFFCURVE",
"391 234 CURVE SMOOTH",
"391 88 OFFCURVE",
"331 13 OFFCURVE",
"231 13 CURVE SMOOTH"
);
}
);
width = 695;
},
{
anchors = (
{
name = bottom;
position = "{271, 0}";
},
{
name = top;
position = "{403, 714}";
}
);
layerId = "E4ECE1AD-6BB8-4230-9342-12306ED3D56E";
paths = (
{
closed = 1;
nodes = (
"467 -9 OFFCURVE",
"544 105 OFFCURVE",
"544 313 CURVE SMOOTH",
"544 551 LINE SMOOTH",
"544 590 OFFCURVE",
"559 604 OFFCURVE",
"585 604 CURVE SMOOTH",
"602 604 OFFCURVE",
"616 596 OFFCURVE",
"619 579 CURVE",
"616 574 OFFCURVE",
"615 567 OFFCURVE",
"615 553 CURVE SMOOTH",
"615 506 OFFCURVE",
"639 475 OFFCURVE",
"693 475 CURVE SMOOTH",
"748 475 OFFCURVE",
"780 513 OFFCURVE",
"780 572 CURVE SMOOTH",
"780 663 OFFCURVE",
"704 726 OFFCURVE",
"578 726 CURVE SMOOTH",
"434 726 OFFCURVE",
"351 657 OFFCURVE",
"351 517 CURVE SMOOTH",
"351 486 LINE SMOOTH",
"351 431 OFFCURVE",
"351 442 OFFCURVE",
"353 418 CURVE",
"350 418 LINE",
"337 433 OFFCURVE",
"293 467 OFFCURVE",
"219 467 CURVE SMOOTH",
"103 467 OFFCURVE",
"15 393 OFFCURVE",
"15 237 CURVE SMOOTH",
"15 73 OFFCURVE",
"106 -9 OFFCURVE",
"267 -9 CURVE SMOOTH"
);
},
{
closed = 1;
nodes = (
"231 123 OFFCURVE",
"202 158 OFFCURVE",
"202 230 CURVE SMOOTH",
"202 301 OFFCURVE",
"228 336 OFFCURVE",
"277 336 CURVE SMOOTH",
"320 336 OFFCURVE",
"349 301 OFFCURVE",
"349 236 CURVE SMOOTH",
"349 157 OFFCURVE",
"319 123 OFFCURVE",
"274 123 CURVE SMOOTH"
);
}
);
width = 805;
}
);
note = uni13B4;
unicode = 13B4;
},
{
glyphname = uni13B5;
lastChange = "2016-06-22 20:04:59 +0000";
layers = (
{
anchors = (
{
name = bottom;
position = "{183, 0}";
},
{
name = top;
position = "{394, 714}";
}
);
layerId = "7F3B6D50-898E-416D-BEA3-584E42DB8369";
paths = (
{
closed = 1;
nodes = (
"305 0 LINE",
"305 49 LINE",
"222 57 LINE",
"222 443 LINE SMOOTH",
"222 583 OFFCURVE",
"282 660 OFFCURVE",
"394 660 CURVE SMOOTH",
"494 660 OFFCURVE",
"556 601 OFFCURVE",
"556 505 CURVE SMOOTH",
"556 432 OFFCURVE",
"534 380 OFFCURVE",
"496 362 CURVE",
"490 384 OFFCURVE",
"474 397 OFFCURVE",
"452 397 CURVE SMOOTH",
"422 397 OFFCURVE",
"402 377 OFFCURVE",
"402 347 CURVE SMOOTH",
"402 315 OFFCURVE",
"428 294 OFFCURVE",
"467 294 CURVE SMOOTH",
"564 294 OFFCURVE",
"634 385 OFFCURVE",
"634 509 CURVE SMOOTH",
"634 635 OFFCURVE",
"535 725 OFFCURVE",
"395 725 CURVE SMOOTH",
"228 725 OFFCURVE",
"138 625 OFFCURVE",
"138 439 CURVE SMOOTH",
"138 57 LINE",
"55 49 LINE",
"55 0 LINE"
);
}
);
width = 679;
},
{
anchors = (
{
name = bottom;
position = "{168, 0}";
},
{
name = top;
position = "{367, 714}";
}
);
layerId = "2DF4BED8-8C28-42AB-BF0E-54235D05585D";
paths = (
{
closed = 1;
nodes = (
"251 0 LINE",
"251 18 LINE",
"168 23 LINE",
"168 450 LINE",
"168 609 OFFCURVE",
"235 703 OFFCURVE",
"378 703 CURVE SMOOTH",
"510 703 OFFCURVE",
"567 621 OFFCURVE",
"567 524 CURVE SMOOTH",
"567 413 OFFCURVE",
"506 355 OFFCURVE",
"443 355 CURVE",
"442 374 OFFCURVE",
"431 384 OFFCURVE",
"419 384 CURVE SMOOTH",
"401 384 OFFCURVE",
"394 372 OFFCURVE",
"394 359 CURVE SMOOTH",
"394 344 OFFCURVE",
"406 330 OFFCURVE",
"432 330 CURVE SMOOTH",
"534 330 OFFCURVE",
"593 413 OFFCURVE",
"593 525 CURVE SMOOTH",
"593 630 OFFCURVE",
"528 725 OFFCURVE",
"379 725 CURVE SMOOTH",
"224 725 OFFCURVE",
"142 625 OFFCURVE",
"142 454 CURVE SMOOTH",
"142 23 LINE",
"60 18 LINE",
"60 0 LINE"
);
}
);
width = 648;
},
{
anchors = (
{
name = bottom;
position = "{207, 0}";
},
{
name = top;
position = "{414, 714}";
}
);
layerId = "E4ECE1AD-6BB8-4230-9342-12306ED3D56E";
paths = (
{
closed = 1;
nodes = (
"371 0 LINE",
"371 112 LINE",
"298 121 LINE",
"298 429 LINE SMOOTH",
"298 547 OFFCURVE",
"342 592 OFFCURVE",
"423 592 CURVE SMOOTH",
"495 592 OFFCURVE",
"531 547 OFFCURVE",
"531 480 CURVE SMOOTH",
"531 428 OFFCURVE",
"503 392 OFFCURVE",
"477 386 CURVE",
"471 405 OFFCURVE",
"453 422 OFFCURVE",
"423 422 CURVE SMOOTH",
"379 422 OFFCURVE",
"351 396 OFFCURVE",
"351 348 CURVE SMOOTH",
"351 285 OFFCURVE",
"400 249 OFFCURVE",
"474 249 CURVE SMOOTH",
"615 249 OFFCURVE",
"697 349 OFFCURVE",
"697 483 CURVE SMOOTH",
"697 620 OFFCURVE",
"612 724 OFFCURVE",
"423 724 CURVE SMOOTH",
"207 724 OFFCURVE",
"107 620 OFFCURVE",
"107 421 CURVE SMOOTH",
"107 120 LINE",
"40 112 LINE",
"40 0 LINE"
);
}
);
width = 737;
}
);
leftKerningGroup = uni13DD;
leftMetricsKey = uni13CC;
note = uni13B5;
rightKerningGroup = uni13AE;
unicode = 13B5;
},
{
glyphname = uni13B6;
lastChange = "2016-06-22 20:04:59 +0000";
layers = (
{
anchors = (
{
name = bottom;
position = "{373, 0}";
},
{
name = top;
position = "{373, 714}";
}
);
layerId = "7F3B6D50-898E-416D-BEA3-584E42DB8369";
paths = (
{
closed = 1;
nodes = (
"534 -11 OFFCURVE",
"655 68 OFFCURVE",
"655 205 CURVE SMOOTH",
"655 318 OFFCURVE",
"592 375 OFFCURVE",
"461 378 CURVE",
"458 464 LINE",
"394 464 LINE",
"394 223 LINE",
"458 223 LINE",
"461 317 LINE",
"544 317 OFFCURVE",
"581 282 OFFCURVE",
"581 199 CURVE SMOOTH",
"581 113 OFFCURVE",
"507 57 OFFCURVE",
"392 57 CURVE SMOOTH",
"235 57 OFFCURVE",
"150 161 OFFCURVE",
"150 353 CURVE SMOOTH",
"150 551 OFFCURVE",
"237 657 OFFCURVE",
"400 657 CURVE SMOOTH",
"466 657 OFFCURVE",
"531 639 OFFCURVE",
"562 611 CURVE",
"568 523 LINE",
"635 523 LINE",
"635 643 LINE",
"593 689 OFFCURVE",
"491 725 OFFCURVE",
"400 725 CURVE SMOOTH",
"186 725 OFFCURVE",
"62 577 OFFCURVE",
"62 350 CURVE SMOOTH",
"62 120 OFFCURVE",
"180 -11 OFFCURVE",
"387 -11 CURVE SMOOTH"
);
}
);
width = 705;
},
{
anchors = (
{
name = bottom;
position = "{372, 0}";
},
{
name = top;
position = "{372, 714}";
}
);
layerId = "2DF4BED8-8C28-42AB-BF0E-54235D05585D";
paths = (
{
closed = 1;
nodes = (
"549 -10 OFFCURVE",
"625 87 OFFCURVE",
"625 200 CURVE SMOOTH",
"625 311 OFFCURVE",
"567 362 OFFCURVE",
"442 362 CURVE",
"437 445 LINE",
"419 445 LINE",
"419 254 LINE",
"437 254 LINE",
"442 338 LINE",
"547 338 OFFCURVE",
"599 300 OFFCURVE",
"599 199 CURVE SMOOTH",
"599 98 OFFCURVE",
"528 13 OFFCURVE",
"373 13 CURVE SMOOTH",
"175 13 OFFCURVE",
"97 153 OFFCURVE",
"97 350 CURVE SMOOTH",
"97 553 OFFCURVE",
"194 703 OFFCURVE",
"391 703 CURVE SMOOTH",
"480 703 OFFCURVE",
"534 679 OFFCURVE",
"574 649 CURVE",
"580 519 LINE",
"599 519 LINE",
"599 662 LINE",
"559 692 OFFCURVE",
"501 724 OFFCURVE",
"391 724 CURVE SMOOTH",
"179 724 OFFCURVE",
"70 566 OFFCURVE",
"70 350 CURVE SMOOTH",
"70 135 OFFCURVE",
"159 -10 OFFCURVE",
"372 -10 CURVE SMOOTH"
);
}
);
width = 679;
},
{
anchors = (
{
name = bottom;
position = "{387, 0}";
},
{
name = top;
position = "{387, 714}";
}
);
layerId = "E4ECE1AD-6BB8-4230-9342-12306ED3D56E";
paths = (
{
closed = 1;
nodes = (
"611 -10 OFFCURVE",
"698 98 OFFCURVE",
"698 230 CURVE SMOOTH",
"698 374 OFFCURVE",
"611 425 OFFCURVE",
"475 426 CURVE",
"468 485 LINE",
"356 485 LINE",
"356 219 LINE",
"468 219 LINE",
"476 288 LINE",
"514 286 OFFCURVE",
"546 271 OFFCURVE",
"546 220 CURVE SMOOTH",
"546 165 OFFCURVE",
"505 129 OFFCURVE",
"423 129 CURVE SMOOTH",
"320 129 OFFCURVE",
"249 180 OFFCURVE",
"249 353 CURVE SMOOTH",
"249 528 OFFCURVE",
"313 589 OFFCURVE",
"424 589 CURVE SMOOTH",
"467 589 OFFCURVE",
"498 578 OFFCURVE",
"520 564 CURVE",
"535 487 LINE",
"652 487 LINE",
"652 659 LINE",
"589 704 OFFCURVE",
"506 724 OFFCURVE",
"407 724 CURVE SMOOTH",
"174 724 OFFCURVE",
"51 594 OFFCURVE",
"51 348 CURVE SMOOTH",
"51 118 OFFCURVE",
"167 -10 OFFCURVE",
"394 -10 CURVE SMOOTH"
);
}
);
width = 733;
}
);
leftKerningGroup = uni13DF;
leftMetricsKey = uni13BE;
note = uni13B6;
unicode = 13B6;
},
{
glyphname = uni13B7;
lastChange = "2016-06-22 20:04:59 +0000";
layers = (
{
anchors = (
{
name = bottom;
position = "{501, 0}";
},
{
name = top;
position = "{501, 714}";
}
);
layerId = "7F3B6D50-898E-416D-BEA3-584E42DB8369";
paths = (
{
closed = 1;
nodes = (
"298 0 LINE",
"298 49 LINE",
"228 57 LINE",
"228 367 LINE SMOOTH",
"228 493 OFFCURVE",
"226 576 OFFCURVE",
"222 647 CURVE",
"234 647 LINE",
"448 0 LINE",
"539 0 LINE",
"757 647 LINE",
"770 647 LINE",
"768 559 OFFCURVE",
"767 485 OFFCURVE",
"767 378 CURVE SMOOTH",
"767 57 LINE",
"696 49 LINE",
"696 0 LINE",
"932 0 LINE",
"932 49 LINE",
"850 57 LINE",
"850 657 LINE",
"932 665 LINE",
"932 714 LINE",
"706 714 LINE",
"536 195 LINE SMOOTH",
"523 154 OFFCURVE",
"511 114 OFFCURVE",
"504 83 CURVE",
"497 83 LINE",
"490 114 OFFCURVE",
"481 148 OFFCURVE",
"467 193 CURVE SMOOTH",
"302 714 LINE",
"70 714 LINE",
"70 665 LINE",
"152 657 LINE",
"152 57 LINE",
"70 49 LINE",
"70 0 LINE"
);
}
);
width = 1002;
},
{
anchors = (
{
name = bottom;
position = "{475, 0}";
},
{
name = top;
position = "{475, 714}";
}
);
layerId = "2DF4BED8-8C28-42AB-BF0E-54235D05585D";
paths = (
{
closed = 1;
nodes = (
"267 0 LINE",
"267 18 LINE",
"185 23 LINE",
"185 596 LINE SMOOTH",
"185 626 OFFCURVE",
"185 646 OFFCURVE",
"184 679 CURVE",
"186 679 LINE",
"463 0 LINE",
"480 0 LINE",
"759 678 LINE",
"761 678 LINE",
"760 645 OFFCURVE",
"760 622 OFFCURVE",
"760 602 CURVE SMOOTH",
"760 23 LINE",
"678 18 LINE",
"678 0 LINE",
"869 0 LINE",
"869 18 LINE",
"786 23 LINE",
"786 691 LINE",
"870 696 LINE",
"870 714 LINE",
"749 714 LINE",
"503 119 LINE SMOOTH",
"493 95 OFFCURVE",
"484 71 OFFCURVE",
"474 43 CURVE",
"471 43 LINE",
"462 70 OFFCURVE",
"454 93 OFFCURVE",
"445 116 CURVE SMOOTH",
"200 714 LINE",
"80 714 LINE",
"80 696 LINE",
"162 691 LINE",
"162 23 LINE",
"80 18 LINE",
"80 0 LINE"
);
}
);
width = 950;
},
{
anchors = (
{
name = bottom;
position = "{552, 0}";
},
{
name = top;
position = "{552, 714}";
}
);
layerId = "E4ECE1AD-6BB8-4230-9342-12306ED3D56E";
paths = (
{
closed = 1;
nodes = (
"366 0 LINE",
"366 112 LINE",
"292 121 LINE",
"292 310 LINE SMOOTH",
"292 383 OFFCURVE",
"285 474 OFFCURVE",
"282 514 CURVE",
"286 514 LINE",
"464 0 LINE",
"628 0 LINE",
"796 513 LINE",
"800 513 LINE",
"797 473 OFFCURVE",
"793 380 OFFCURVE",
"793 313 CURVE SMOOTH",
"793 120 LINE",
"725 112 LINE",
"725 0 LINE",
"1049 0 LINE",
"1049 112 LINE",
"970 121 LINE",
"970 593 LINE",
"1049 602 LINE",
"1049 714 LINE",
"719 714 LINE",
"588 325 LINE SMOOTH",
"574 285 OFFCURVE",
"563 248 OFFCURVE",
"552 204 CURVE",
"548 204 LINE",
"538 247 OFFCURVE",
"527 286 OFFCURVE",
"514 325 CURVE SMOOTH",
"387 714 LINE",
"55 714 LINE",
"55 602 LINE",
"134 593 LINE",
"134 121 LINE",
"55 112 LINE",
"55 0 LINE"
);
}
);
width = 1104;
}
);
leftKerningGroup = uni13BB;
leftMetricsKey = uni13BB;
note = uni13B7;
rightKerningGroup = uni13BB;
rightMetricsKey = uni13BB;
unicode = 13B7;
},
{
glyphname = uni13B8;
lastChange = "2016-06-22 20:04:59 +0000";
layers = (
{
anchors = (
{
name = bottom;
position = "{633, 0}";
},
{
name = top;
position = "{419, 714}";
}
);
layerId = "7F3B6D50-898E-416D-BEA3-584E42DB8369";
paths = (
{
closed = 1;
nodes = (
"756 0 LINE",
"756 49 LINE",
"673 57 LINE",
"673 413 LINE SMOOTH",
"673 620 OFFCURVE",
"596 725 OFFCURVE",
"419 725 CURVE SMOOTH",
"280 725 OFFCURVE",
"217 648 OFFCURVE",
"217 583 CURVE SMOOTH",
"217 547 OFFCURVE",
"239 525 OFFCURVE",
"275 525 CURVE SMOOTH",
"307 525 OFFCURVE",
"326 544 OFFCURVE",
"326 572 CURVE SMOOTH",
"326 593 OFFCURVE",
"316 608 OFFCURVE",
"295 617 CURVE",
"308 638 OFFCURVE",
"348 661 OFFCURVE",
"409 661 CURVE SMOOTH",
"533 661 OFFCURVE",
"589 576 OFFCURVE",
"589 421 CURVE SMOOTH",
"589 377 LINE",
"555 312 OFFCURVE",
"482 272 OFFCURVE",
"398 272 CURVE SMOOTH",
"329 272 OFFCURVE",
"294 303 OFFCURVE",
"280 376 CURVE",
"120 376 LINE",
"115 467 LINE",
"52 467 LINE",
"52 217 LINE",
"115 217 LINE",
"120 312 LINE",
"219 312 LINE",
"248 239 OFFCURVE",
"305 205 OFFCURVE",
"397 205 CURVE SMOOTH",
"475 205 OFFCURVE",
"539 230 OFFCURVE",
"589 282 CURVE",
"589 57 LINE",
"500 49 LINE",
"500 0 LINE"
);
}
);
width = 811;
},
{
anchors = (
{
name = bottom;
position = "{608, 0}";
},
{
name = top;
position = "{393, 714}";
}
);
layerId = "2DF4BED8-8C28-42AB-BF0E-54235D05585D";
paths = (
{
closed = 1;
nodes = (
"702 0 LINE",
"702 18 LINE",
"620 23 LINE",
"620 456 LINE SMOOTH",
"620 627 OFFCURVE",
"544 725 OFFCURVE",
"397 725 CURVE SMOOTH",
"273 725 OFFCURVE",
"206 655 OFFCURVE",
"206 587 CURVE SMOOTH",
"206 562 OFFCURVE",
"220 551 OFFCURVE",
"234 551 CURVE SMOOTH",
"248 551 OFFCURVE",
"260 560 OFFCURVE",
"260 576 CURVE SMOOTH",
"260 590 OFFCURVE",
"253 600 OFFCURVE",
"233 601 CURVE",
"237 649 OFFCURVE",
"296 701 OFFCURVE",
"396 701 CURVE SMOOTH",
"531 701 OFFCURVE",
"594 611 OFFCURVE",
"594 452 CURVE SMOOTH",
"594 365 LINE",
"563 319 OFFCURVE",
"491 239 OFFCURVE",
"373 239 CURVE SMOOTH",
"267 239 OFFCURVE",
"228 297 OFFCURVE",
"221 361 CURVE",
"79 361 LINE",
"73 463 LINE",
"55 463 LINE",
"55 231 LINE",
"73 231 LINE",
"79 335 LINE",
"199 335 LINE",
"213 267 OFFCURVE",
"264 214 OFFCURVE",
"371 214 CURVE SMOOTH",
"500 214 OFFCURVE",
"572 298 OFFCURVE",
"594 327 CURVE",
"594 23 LINE",
"511 18 LINE",
"511 0 LINE"
);
}
);
width = 762;
},
{
anchors = (
{
name = bottom;
position = "{681, 0}";
},
{
name = top;
position = "{485, 714}";
}
);
layerId = "E4ECE1AD-6BB8-4230-9342-12306ED3D56E";
paths = (
{
closed = 1;
nodes = (
"851 0 LINE",
"851 112 LINE",
"784 120 LINE",
"784 436 LINE SMOOTH",
"784 637 OFFCURVE",
"685 728 OFFCURVE",
"485 728 CURVE SMOOTH",
"296 728 OFFCURVE",
"221 647 OFFCURVE",
"221 561 CURVE SMOOTH",
"221 501 OFFCURVE",
"251 464 OFFCURVE",
"315 464 CURVE SMOOTH",
"374 464 OFFCURVE",
"399 497 OFFCURVE",
"399 536 CURVE SMOOTH",
"399 549 OFFCURVE",
"396 558 OFFCURVE",
"393 564 CURVE",
"404 582 OFFCURVE",
"431 596 OFFCURVE",
"478 596 CURVE SMOOTH",
"560 596 OFFCURVE",
"593 551 OFFCURVE",
"593 458 CURVE SMOOTH",
"593 377 LINE",
"572 344 OFFCURVE",
"532 304 OFFCURVE",
"459 304 CURVE SMOOTH",
"369 304 OFFCURVE",
"336 352 OFFCURVE",
"330 422 CURVE",
"179 422 LINE",
"170 495 LINE",
"58 495 LINE",
"58 177 LINE",
"170 177 LINE",
"178 244 LINE",
"223 244 LINE",
"249 187 OFFCURVE",
"319 142 OFFCURVE",
"419 142 CURVE SMOOTH",
"508 142 OFFCURVE",
"561 177 OFFCURVE",
"593 204 CURVE",
"593 121 LINE",
"520 112 LINE",
"520 0 LINE"
);
}
);
width = 891;
}
);
note = uni13B8;
rightMetricsKey = uni13CC;
unicode = 13B8;
},
{
glyphname = uni13B9;
lastChange = "2016-06-22 20:04:59 +0000";
layers = (
{
anchors = (
{
name = bottom;
position = "{340, 0}";
},
{
name = top;
position = "{374, 714}";
}
);
layerId = "7F3B6D50-898E-416D-BEA3-584E42DB8369";
paths = (
{
closed = 1;
nodes = (
"444 -8 OFFCURVE",
"508 68 OFFCURVE",
"508 196 CURVE SMOOTH",
"508 291 OFFCURVE",
"457 366 OFFCURVE",
"364 404 CURVE",
"383 430 OFFCURVE",
"396 460 OFFCURVE",
"405 494 CURVE",
"417 480 OFFCURVE",
"442 469 OFFCURVE",
"475 469 CURVE SMOOTH",
"532 469 OFFCURVE",
"579 499 OFFCURVE",
"639 549 CURVE SMOOTH",
"696 596 OFFCURVE",
"736 625 OFFCURVE",
"791 625 CURVE SMOOTH",
"847 625 OFFCURVE",
"880 595 OFFCURVE",
"880 543 CURVE SMOOTH",
"880 490 OFFCURVE",
"842 456 OFFCURVE",
"786 448 CURVE",
"786 382 LINE",
"888 396 OFFCURVE",
"954 453 OFFCURVE",
"954 549 CURVE SMOOTH",
"954 637 OFFCURVE",
"891 695 OFFCURVE",
"792 695 CURVE SMOOTH",
"725 695 OFFCURVE",
"670 665 OFFCURVE",
"599 605 CURVE SMOOTH",
"555 568 OFFCURVE",
"515 537 OFFCURVE",
"468 537 CURVE SMOOTH",
"440 537 OFFCURVE",
"422 547 OFFCURVE",
"416 563 CURVE",
"416 659 LINE",
"500 662 LINE",
"500 714 LINE",
"249 714 LINE",
"249 662 LINE",
"334 659 LINE",
"334 583 LINE SMOOTH",
"334 521 OFFCURVE",
"326 463 OFFCURVE",
"292 419 CURVE",
"285 420 OFFCURVE",
"268 422 OFFCURVE",
"245 422 CURVE SMOOTH",
"128 422 OFFCURVE",
"39 356 OFFCURVE",
"26 249 CURVE",
"94 249 LINE",
"106 316 OFFCURVE",
"159 362 OFFCURVE",
"230 362 CURVE SMOOTH",
"239 362 OFFCURVE",
"247 361 OFFCURVE",
"251 360 CURVE",
"201 295 OFFCURVE",
"176 228 OFFCURVE",
"176 156 CURVE SMOOTH",
"176 53 OFFCURVE",
"235 -8 OFFCURVE",
"337 -8 CURVE SMOOTH"
);
},
{
closed = 1;
nodes = (
"282 55 OFFCURVE",
"250 97 OFFCURVE",
"250 168 CURVE SMOOTH",
"250 233 OFFCURVE",
"271 285 OFFCURVE",
"326 351 CURVE",
"392 330 OFFCURVE",
"432 271 OFFCURVE",
"432 196 CURVE SMOOTH",
"432 106 OFFCURVE",
"398 55 OFFCURVE",
"338 55 CURVE SMOOTH"
);
}
);
width = 988;
},
{
anchors = (
{
name = bottom;
position = "{334, 0}";
},
{
name = top;
position = "{372, 714}";
}
);
layerId = "2DF4BED8-8C28-42AB-BF0E-54235D05585D";
paths = (
{
closed = 1;
nodes = (
"422 -18 OFFCURVE",
"483 54 OFFCURVE",
"483 178 CURVE SMOOTH",
"483 283 OFFCURVE",
"427 366 OFFCURVE",
"331 402 CURVE",
"355 440 OFFCURVE",
"371 478 OFFCURVE",
"379 526 CURVE",
"391 507 OFFCURVE",
"420 489 OFFCURVE",
"467 489 CURVE SMOOTH",
"527 489 OFFCURVE",
"572 523 OFFCURVE",
"633 578 CURVE SMOOTH",
"697 636 OFFCURVE",
"732 663 OFFCURVE",
"797 663 CURVE SMOOTH",
"868 663 OFFCURVE",
"916 619 OFFCURVE",
"916 548 CURVE SMOOTH",
"916 476 OFFCURVE",
"874 430 OFFCURVE",
"796 417 CURVE",
"796 393 LINE",
"894 410 OFFCURVE",
"942 464 OFFCURVE",
"942 548 CURVE SMOOTH",
"942 633 OFFCURVE",
"885 688 OFFCURVE",
"798 688 CURVE SMOOTH",
"722 688 OFFCURVE",
"680 654 OFFCURVE",
"612 593 CURVE SMOOTH",
"565 551 OFFCURVE",
"526 514 OFFCURVE",
"470 514 CURVE SMOOTH",
"422 514 OFFCURVE",
"393 536 OFFCURVE",
"387 568 CURVE",
"387 691 LINE",
"469 696 LINE",
"469 714 LINE",
"279 714 LINE",
"279 696 LINE",
"361 691 LINE",
"361 590 LINE SMOOTH",
"361 516 OFFCURVE",
"336 456 OFFCURVE",
"306 409 CURVE",
"290 412 OFFCURVE",
"268 416 OFFCURVE",
"234 416 CURVE SMOOTH",
"114 416 OFFCURVE",
"44 347 OFFCURVE",
"35 242 CURVE",
"60 242 LINE",
"69 333 OFFCURVE",
"125 391 OFFCURVE",
"229 391 CURVE SMOOTH",
"257 391 OFFCURVE",
"276 389 OFFCURVE",
"292 386 CURVE",
"244 311 OFFCURVE",
"190 246 OFFCURVE",
"190 139 CURVE SMOOTH",
"190 38 OFFCURVE",
"244 -18 OFFCURVE",
"331 -18 CURVE SMOOTH"
);
},
{
closed = 1;
nodes = (
"262 7 OFFCURVE",
"216 53 OFFCURVE",
"216 140 CURVE SMOOTH",
"216 243 OFFCURVE",
"267 304 OFFCURVE",
"316 379 CURVE",
"401 350 OFFCURVE",
"457 277 OFFCURVE",
"457 178 CURVE SMOOTH",
"457 71 OFFCURVE",
"412 7 OFFCURVE",
"332 7 CURVE SMOOTH"
);
}
);
width = 982;
},
{
anchors = (
{
name = bottom;
position = "{396, 0}";
},
{
name = top;
position = "{430, 714}";
}
);
layerId = "E4ECE1AD-6BB8-4230-9342-12306ED3D56E";
paths = (
{
closed = 1;
nodes = (
"528 -10 OFFCURVE",
"609 76 OFFCURVE",
"609 202 CURVE SMOOTH",
"609 300 OFFCURVE",
"560 369 OFFCURVE",
"481 412 CURVE",
"485 417 OFFCURVE",
"492 430 OFFCURVE",
"494 437 CURVE",
"505 430 OFFCURVE",
"526 424 OFFCURVE",
"553 424 CURVE SMOOTH",
"618 424 OFFCURVE",
"679 456 OFFCURVE",
"730 498 CURVE SMOOTH",
"784 542 OFFCURVE",
"807 556 OFFCURVE",
"836 556 CURVE SMOOTH",
"865 556 OFFCURVE",
"885 539 OFFCURVE",
"885 508 CURVE SMOOTH",
"885 473 OFFCURVE",
"852 454 OFFCURVE",
"811 454 CURVE",
"811 331 LINE",
"948 331 OFFCURVE",
"1042 389 OFFCURVE",
"1042 528 CURVE SMOOTH",
"1042 633 OFFCURVE",
"970 702 OFFCURVE",
"849 702 CURVE SMOOTH",
"755 702 OFFCURVE",
"700 656 OFFCURVE",
"641 606 CURVE SMOOTH",
"598 570 OFFCURVE",
"569 554 OFFCURVE",
"542 554 CURVE SMOOTH",
"530 554 OFFCURVE",
"523 557 OFFCURVE",
"520 560 CURVE",
"520 593 LINE",
"594 602 LINE",
"594 714 LINE",
"275 714 LINE",
"275 602 LINE",
"347 594 LINE",
"347 564 LINE SMOOTH",
"347 515 OFFCURVE",
"343 480 OFFCURVE",
"330 455 CURVE",
"308 458 OFFCURVE",
"290 460 OFFCURVE",
"256 460 CURVE SMOOTH",
"87 460 OFFCURVE",
"-7 356 OFFCURVE",
"-7 224 CURVE",
"135 224 LINE",
"135 290 OFFCURVE",
"183 331 OFFCURVE",
"241 331 CURVE SMOOTH",
"245 331 OFFCURVE",
"250 331 OFFCURVE",
"254 330 CURVE",
"216 284 OFFCURVE",
"196 243 OFFCURVE",
"196 178 CURVE SMOOTH",
"196 64 OFFCURVE",
"266 -10 OFFCURVE",
"397 -10 CURVE SMOOTH"
);
},
{
closed = 1;
nodes = (
"375 109 OFFCURVE",
"358 131 OFFCURVE",
"358 180 CURVE SMOOTH",
"358 223 OFFCURVE",
"370 254 OFFCURVE",
"396 294 CURVE",
"420 277 OFFCURVE",
"437 237 OFFCURVE",
"437 191 CURVE SMOOTH",
"437 132 OFFCURVE",
"419 109 OFFCURVE",
"396 109 CURVE SMOOTH"
);
}
);
width = 1072;
}
);
note = uni13B9;
rightKerningGroup = uni13B9;
unicode = 13B9;
},
{
glyphname = uni13BA;
lastChange = "2016-06-22 20:04:59 +0000";
layers = (
{
anchors = (
{
name = bottom;
position = "{527, 0}";
},
{
name = top;
position = "{527, 714}";
}
);
layerId = "7F3B6D50-898E-416D-BEA3-584E42DB8369";
paths = (
{
closed = 1;
nodes = (
"574 -10 OFFCURVE",
"695 122 OFFCURVE",
"702 338 CURVE",
"856 338 LINE",
"856 0 LINE",
"940 0 LINE",
"940 713 LINE",
"856 713 LINE",
"856 400 LINE",
"702 400 LINE",
"685 607 OFFCURVE",
"570 725 OFFCURVE",
"385 725 CURVE SMOOTH",
"180 725 OFFCURVE",
"62 591 OFFCURVE",
"62 358 CURVE SMOOTH",
"62 122 OFFCURVE",
"178 -10 OFFCURVE",
"384 -10 CURVE SMOOTH"
);
},
{
closed = 1;
nodes = (
"233 57 OFFCURVE",
"150 164 OFFCURVE",
"150 357 CURVE SMOOTH",
"150 553 OFFCURVE",
"231 658 OFFCURVE",
"385 658 CURVE SMOOTH",
"536 658 OFFCURVE",
"617 552 OFFCURVE",
"617 357 CURVE SMOOTH",
"617 162 OFFCURVE",
"537 57 OFFCURVE",
"384 57 CURVE SMOOTH"
);
}
);
width = 1054;
},
{
anchors = (
{
name = bottom;
position = "{524, 0}";
},
{
name = top;
position = "{524, 714}";
}
);
layerId = "2DF4BED8-8C28-42AB-BF0E-54235D05585D";
paths = (
{
closed = 1;
nodes = (
"562 -11 OFFCURVE",
"665 125 OFFCURVE",
"670 347 CURVE",
"892 347 LINE",
"892 0 LINE",
"918 0 LINE",
"918 714 LINE",
"892 714 LINE",
"892 372 LINE",
"669 372 LINE",
"666 567 OFFCURVE",
"575 724 OFFCURVE",
"372 724 CURVE SMOOTH",
"163 724 OFFCURVE",
"70 568 OFFCURVE",
"70 356 CURVE SMOOTH",
"70 139 OFFCURVE",
"168 -11 OFFCURVE",
"369 -11 CURVE SMOOTH"
);
},
{
closed = 1;
nodes = (
"179 14 OFFCURVE",
"97 162 OFFCURVE",
"97 356 CURVE SMOOTH",
"97 554 OFFCURVE",
"180 699 OFFCURVE",
"370 699 CURVE SMOOTH",
"561 699 OFFCURVE",
"643 548 OFFCURVE",
"643 362 CURVE SMOOTH",
"643 150 OFFCURVE",
"555 14 OFFCURVE",
"370 14 CURVE SMOOTH"
);
}
);
width = 1048;
},
{
anchors = (
{
name = bottom;
position = "{539, 0}";
},
{
name = top;
position = "{539, 714}";
}
);
layerId = "E4ECE1AD-6BB8-4230-9342-12306ED3D56E";
paths = (
{
closed = 1;
nodes = (
"574 -10 OFFCURVE",
"667 107 OFFCURVE",
"685 291 CURVE",
"804 291 LINE",
"804 0 LINE",
"998 0 LINE",
"998 714 LINE",
"804 714 LINE",
"804 449 LINE",
"682 449 LINE",
"659 619 OFFCURVE",
"565 725 OFFCURVE",
"373 725 CURVE SMOOTH",
"146 725 OFFCURVE",
"51 580 OFFCURVE",
"51 358 CURVE SMOOTH",
"51 137 OFFCURVE",
"146 -10 OFFCURVE",
"374 -10 CURVE SMOOTH"
);
},
{
closed = 1;
nodes = (
"286 151 OFFCURVE",
"254 229 OFFCURVE",
"254 358 CURVE SMOOTH",
"254 487 OFFCURVE",
"286 567 OFFCURVE",
"373 567 CURVE SMOOTH",
"461 567 OFFCURVE",
"494 487 OFFCURVE",
"494 358 CURVE SMOOTH",
"494 229 OFFCURVE",
"460 151 OFFCURVE",
"374 151 CURVE SMOOTH"
);
}
);
width = 1078;
}
);
leftKerningGroup = uni13DF;
leftMetricsKey = uni13BE;
note = uni13BA;
unicode = 13BA;
},
{
glyphname = uni13BB;
lastChange = "2016-06-22 20:04:59 +0000";
layers = (
{
anchors = (
{
name = bottom;
position = "{425, 0}";
},
{
name = top;
position = "{425, 714}";
}
);
layerId = "7F3B6D50-898E-416D-BEA3-584E42DB8369";
paths = (
{
closed = 1;
nodes = (
"320 0 LINE",
"320 49 LINE",
"238 57 LINE",
"238 338 LINE",
"612 338 LINE",
"612 57 LINE",
"530 49 LINE",
"530 0 LINE",
"779 0 LINE",
"779 49 LINE",
"697 57 LINE",
"697 657 LINE",
"779 665 LINE",
"779 714 LINE",
"530 714 LINE",
"530 665 LINE",
"612 657 LINE",
"612 400 LINE",
"238 400 LINE",
"238 657 LINE",
"320 665 LINE",
"320 714 LINE",
"70 714 LINE",
"70 665 LINE",
"153 657 LINE",
"153 57 LINE",
"70 49 LINE",
"70 0 LINE"
);
}
);
width = 849;
},
{
anchors = (
{
name = bottom;
position = "{413, 0}";
},
{
name = top;
position = "{413, 714}";
}
);
layerId = "2DF4BED8-8C28-42AB-BF0E-54235D05585D";
paths = (
{
closed = 1;
nodes = (
"271 0 LINE",
"271 18 LINE",
"189 23 LINE",
"189 365 LINE",
"637 365 LINE",
"637 23 LINE",
"554 18 LINE",
"554 0 LINE",
"745 0 LINE",
"745 18 LINE",
"663 23 LINE",
"663 691 LINE",
"745 696 LINE",
"745 714 LINE",
"554 714 LINE",
"554 696 LINE",
"637 691 LINE",
"637 386 LINE",
"189 386 LINE",
"189 691 LINE",
"271 696 LINE",
"271 714 LINE",
"80 714 LINE",
"80 696 LINE",
"163 691 LINE",
"163 23 LINE",
"80 18 LINE",
"80 0 LINE"
);
}
);
width = 825;
},
{
anchors = (
{
name = bottom;
position = "{435, 0}";
},
{
name = top;
position = "{435, 714}";
}
);
layerId = "E4ECE1AD-6BB8-4230-9342-12306ED3D56E";
paths = (
{
closed = 1;
nodes = (
"386 0 LINE",
"386 112 LINE",
"322 119 LINE",
"322 301 LINE",
"546 301 LINE",
"546 119 LINE",
"483 112 LINE",
"483 0 LINE",
"814 0 LINE",
"814 112 LINE",
"740 121 LINE",
"740 593 LINE",
"814 602 LINE",
"814 714 LINE",
"483 714 LINE",
"483 602 LINE",
"546 595 LINE",
"546 439 LINE",
"322 439 LINE",
"322 595 LINE",
"386 602 LINE",
"386 714 LINE",
"55 714 LINE",
"55 602 LINE",
"128 593 LINE",
"128 121 LINE",
"55 112 LINE",
"55 0 LINE"
);
}
);
width = 869;
}
);
leftKerningGroup = uni13BB;
note = uni13BB;
rightKerningGroup = uni13BB;
unicode = 13BB;
},
{
glyphname = uni13BC;
lastChange = "2016-06-22 20:04:59 +0000";
layers = (
{
anchors = (
{
name = bottom;
position = "{478, 0}";
},
{
name = top;
position = "{439, 714}";
}
);
layerId = "7F3B6D50-898E-416D-BEA3-584E42DB8369";
paths = (
{
closed = 1;
nodes = (
"658 -11 OFFCURVE",
"767 114 OFFCURVE",
"767 280 CURVE SMOOTH",
"767 445 OFFCURVE",
"668 546 OFFCURVE",
"477 555 CURVE",
"477 657 LINE",
"562 665 LINE",
"562 714 LINE",
"311 714 LINE",
"311 665 LINE",
"397 657 LINE",
"397 557 LINE",
"350 484 OFFCURVE",
"273 418 OFFCURVE",
"187 418 CURVE SMOOTH",
"139 418 OFFCURVE",
"102 435 OFFCURVE",
"64 478 CURVE",
"16 433 LINE",
"49 378 OFFCURVE",
"108 346 OFFCURVE",
"178 346 CURVE SMOOTH",
"277 346 OFFCURVE",
"361 392 OFFCURVE",
"439 491 CURVE",
"597 486 OFFCURVE",
"684 414 OFFCURVE",
"684 276 CURVE SMOOTH",
"684 125 OFFCURVE",
"595 57 OFFCURVE",
"479 57 CURVE SMOOTH",
"373 57 OFFCURVE",
"304 119 OFFCURVE",
"302 220 CURVE",
"221 220 LINE",
"222 78 OFFCURVE",
"316 -11 OFFCURVE",
"478 -11 CURVE SMOOTH"
);
}
);
width = 809;
},
{
anchors = (
{
name = bottom;
position = "{488, 0}";
},
{
name = top;
position = "{429, 714}";
}
);
layerId = "2DF4BED8-8C28-42AB-BF0E-54235D05585D";
paths = (
{
closed = 1;
nodes = (
"633 -11 OFFCURVE",
"753 82 OFFCURVE",
"753 264 CURVE SMOOTH",
"753 450 OFFCURVE",
"636 538 OFFCURVE",
"441 549 CURVE",
"441 691 LINE",
"524 696 LINE",
"524 714 LINE",
"332 714 LINE",
"332 696 LINE",
"415 691 LINE",
"415 557 LINE",
"331 436 OFFCURVE",
"268 390 OFFCURVE",
"176 390 CURVE SMOOTH",
"114 390 OFFCURVE",
"75 421 OFFCURVE",
"50 451 CURVE",
"31 434 LINE",
"61 399 OFFCURVE",
"106 366 OFFCURVE",
"176 366 CURVE SMOOTH",
"282 366 OFFCURVE",
"353 432 OFFCURVE",
"423 528 CURVE",
"621 519 OFFCURVE",
"727 438 OFFCURVE",
"727 263 CURVE SMOOTH",
"727 93 OFFCURVE",
"615 15 OFFCURVE",
"492 15 CURVE SMOOTH",
"360 15 OFFCURVE",
"287 89 OFFCURVE",
"282 201 CURVE",
"256 201 LINE",
"259 78 OFFCURVE",
"341 -11 OFFCURVE",
"492 -11 CURVE SMOOTH"
);
}
);
width = 820;
},
{
anchors = (
{
name = bottom;
position = "{581, 0}";
},
{
name = top;
position = "{512, 714}";
}
);
layerId = "E4ECE1AD-6BB8-4230-9342-12306ED3D56E";
paths = (
{
closed = 1;
nodes = (
"768 -13 OFFCURVE",
"884 99 OFFCURVE",
"884 271 CURVE SMOOTH",
"884 440 OFFCURVE",
"788 540 OFFCURVE",
"603 561 CURVE",
"603 594 LINE",
"683 602 LINE",
"683 714 LINE",
"352 714 LINE",
"352 602 LINE",
"430 594 LINE",
"430 561 LINE",
"374 489 OFFCURVE",
"319 451 OFFCURVE",
"248 451 CURVE SMOOTH",
"194 451 OFFCURVE",
"157 478 OFFCURVE",
"131 515 CURVE",
"20 410 LINE",
"61 346 OFFCURVE",
"134 295 OFFCURVE",
"236 295 CURVE SMOOTH",
"359 295 OFFCURVE",
"439 352 OFFCURVE",
"510 435 CURVE",
"635 429 OFFCURVE",
"705 377 OFFCURVE",
"705 258 CURVE SMOOTH",
"705 177 OFFCURVE",
"664 126 OFFCURVE",
"590 126 CURVE SMOOTH",
"518 126 OFFCURVE",
"491 172 OFFCURVE",
"489 220 CURVE",
"323 220 LINE",
"323 90 OFFCURVE",
"404 -13 OFFCURVE",
"583 -13 CURVE SMOOTH"
);
}
);
width = 928;
}
);
note = uni13BC;
unicode = 13BC;
},
{
glyphname = uni13BD;
lastChange = "2016-06-22 20:04:59 +0000";
layers = (
{
anchors = (
{
name = bottom;
position = "{256, 0}";
},
{
name = top;
position = "{404, 714}";
}
);
layerId = "7F3B6D50-898E-416D-BEA3-584E42DB8369";
paths = (
{
closed = 1;
nodes = (
"354 -11 OFFCURVE",
"419 55 OFFCURVE",
"489 197 CURVE SMOOTH",
"717 657 LINE",
"788 665 LINE",
"788 714 LINE",
"536 714 LINE",
"536 665 LINE",
"632 657 LINE",
"486 355 LINE SMOOTH",
"469 321 OFFCURVE",
"453 285 OFFCURVE",
"437 251 CURVE",
"434 251 LINE",
"420 283 OFFCURVE",
"402 320 OFFCURVE",
"384 351 CURVE SMOOTH",
"175 714 LINE",
"74 714 LINE",
"391 171 LINE",
"346 90 OFFCURVE",
"305 54 OFFCURVE",
"253 54 CURVE SMOOTH",
"194 54 OFFCURVE",
"163 94 OFFCURVE",
"163 166 CURVE",
"222 174 LINE",
"222 223 LINE",
"15 223 LINE",
"15 174 LINE",
"84 166 LINE",
"87 50 OFFCURVE",
"145 -11 OFFCURVE",
"250 -11 CURVE SMOOTH"
);
}
);
width = 808;
},
{
anchors = (
{
name = bottom;
position = "{232, 0}";
},
{
name = top;
position = "{386, 714}";
}
);
layerId = "2DF4BED8-8C28-42AB-BF0E-54235D05585D";
paths = (
{
closed = 1;
nodes = (
"331 -10 OFFCURVE",
"381 45 OFFCURVE",
"457 215 CURVE SMOOTH",
"669 692 LINE",
"743 696 LINE",
"743 714 LINE",
"561 714 LINE",
"561 696 LINE",
"640 692 LINE",
"449 253 LINE SMOOTH",
"441 235 OFFCURVE",
"432 211 OFFCURVE",
"424 192 CURVE",
"422 192 LINE",
"413 212 OFFCURVE",
"402 235 OFFCURVE",
"390 257 CURVE SMOOTH",
"128 714 LINE",
"99 714 LINE",
"410 168 LINE",
"365 78 OFFCURVE",
"325 13 OFFCURVE",
"230 13 CURVE SMOOTH",
"145 13 OFFCURVE",
"119 70 OFFCURVE",
"116 152 CURVE",
"196 157 LINE",
"196 175 LINE",
"7 175 LINE",
"7 157 LINE",
"90 153 LINE",
"95 55 OFFCURVE",
"128 -10 OFFCURVE",
"226 -10 CURVE SMOOTH"
);
}
);
width = 771;
},
{
anchors = (
{
name = bottom;
position = "{249, 0}";
},
{
name = top;
position = "{393, 714}";
}
);
layerId = "E4ECE1AD-6BB8-4230-9342-12306ED3D56E";
paths = (
{
closed = 1;
nodes = (
"394 -11 OFFCURVE",
"457 81 OFFCURVE",
"518 203 CURVE SMOOTH",
"713 595 LINE",
"774 602 LINE",
"774 714 LINE",
"469 714 LINE",
"469 602 LINE",
"525 595 LINE",
"469 472 LINE SMOOTH",
"458 448 OFFCURVE",
"445 419 OFFCURVE",
"430 381 CURVE",
"425 381 LINE",
"408 418 OFFCURVE",
"392 450 OFFCURVE",
"375 481 CURVE SMOOTH",
"245 714 LINE",
"26 714 LINE",
"334 206 LINE",
"311 155 OFFCURVE",
"292 119 OFFCURVE",
"258 119 CURVE SMOOTH",
"230 119 OFFCURVE",
"221 134 OFFCURVE",
"219 153 CURVE",
"265 159 LINE",
"265 271 LINE",
"3 271 LINE",
"3 159 LINE",
"51 154 LINE",
"58 63 OFFCURVE",
"113 -11 OFFCURVE",
"246 -11 CURVE SMOOTH"
);
}
);
width = 786;
}
);
note = uni13BD;
rightKerningGroup = uni13A9;
unicode = 13BD;
},
{
glyphname = uni13BE;
lastChange = "2016-06-22 20:04:59 +0000";
layers = (
{
anchors = (
{
name = bottom;
position = "{387, 0}";
},
{
name = top;
position = "{387, 714}";
}
);
layerId = "7F3B6D50-898E-416D-BEA3-584E42DB8369";
paths = (
{
closed = 1;
nodes = (
"586 -10 OFFCURVE",
"711 131 OFFCURVE",
"711 357 CURVE SMOOTH",
"711 590 OFFCURVE",
"593 725 OFFCURVE",
"389 725 CURVE SMOOTH",
"184 725 OFFCURVE",
"62 589 OFFCURVE",
"62 358 CURVE SMOOTH",
"62 121 OFFCURVE",
"178 -10 OFFCURVE",
"387 -10 CURVE SMOOTH"
);
},
{
closed = 1;
nodes = (
"239 57 OFFCURVE",
"155 156 OFFCURVE",
"149 338 CURVE",
"624 338 LINE",
"617 155 OFFCURVE",
"534 57 OFFCURVE",
"387 57 CURVE SMOOTH"
);
},
{
closed = 1;
nodes = (
"165 571 OFFCURVE",
"247 658 OFFCURVE",
"389 658 CURVE SMOOTH",
"525 658 OFFCURVE",
"607 570 OFFCURVE",
"623 407 CURVE",
"150 407 LINE"
);
}
);
width = 773;
},
{
anchors = (
{
name = bottom;
position = "{384, 0}";
},
{
name = top;
position = "{384, 714}";
}
);
layerId = "2DF4BED8-8C28-42AB-BF0E-54235D05585D";
paths = (
{
closed = 1;
nodes = (
"594 -10 OFFCURVE",
"697 143 OFFCURVE",
"697 358 CURVE SMOOTH",
"697 590 OFFCURVE",
"586 725 OFFCURVE",
"389 725 CURVE SMOOTH",
"184 725 OFFCURVE",
"70 574 OFFCURVE",
"70 359 CURVE SMOOTH",
"70 143 OFFCURVE",
"175 -10 OFFCURVE",
"383 -10 CURVE SMOOTH"
);
},
{
closed = 1;
nodes = (
"193 13 OFFCURVE",
"101 153 OFFCURVE",
"97 346 CURVE",
"670 346 LINE",
"666 150 OFFCURVE",
"576 13 OFFCURVE",
"384 13 CURVE SMOOTH"
);
},
{
closed = 1;
nodes = (
"100 561 OFFCURVE",
"196 702 OFFCURVE",
"389 702 CURVE SMOOTH",
"566 702 OFFCURVE",
"667 579 OFFCURVE",
"670 369 CURVE",
"97 369 LINE"
);
}
);
width = 767;
},
{
anchors = (
{
name = bottom;
position = "{398, 0}";
},
{
name = top;
position = "{398, 714}";
}
);
layerId = "E4ECE1AD-6BB8-4230-9342-12306ED3D56E";
paths = (
{
closed = 1;
nodes = (
"643 -10 OFFCURVE",
"745 137 OFFCURVE",
"745 358 CURVE SMOOTH",
"745 580 OFFCURVE",
"643 725 OFFCURVE",
"399 725 CURVE SMOOTH",
"158 725 OFFCURVE",
"51 581 OFFCURVE",
"51 359 CURVE SMOOTH",
"51 136 OFFCURVE",
"158 -10 OFFCURVE",
"398 -10 CURVE SMOOTH"
);
},
{
closed = 1;
nodes = (
"310 131 OFFCURVE",
"267 188 OFFCURVE",
"257 298 CURVE",
"540 298 LINE",
"530 188 OFFCURVE",
"489 131 OFFCURVE",
"398 131 CURVE SMOOTH"
);
},
{
closed = 1;
nodes = (
"267 528 OFFCURVE",
"309 587 OFFCURVE",
"399 587 CURVE SMOOTH",
"489 587 OFFCURVE",
"530 528 OFFCURVE",
"540 418 CURVE",
"257 418 LINE"
);
}
);
width = 796;
}
);
leftKerningGroup = uni13DF;
note = uni13BE;
rightKerningGroup = uni13A0;
unicode = 13BE;
},
{
glyphname = uni13BF;
lastChange = "2016-06-22 20:04:59 +0000";
layers = (
{
anchors = (
{
name = bottom;
position = "{327, 0}";
},
{
name = top;
position = "{205, 714}";
}
);
layerId = "7F3B6D50-898E-416D-BEA3-584E42DB8369";
paths = (
{
closed = 1;
nodes = (
"619 -78 LINE",
"619 242 LINE",
"755 242 LINE",
"755 304 LINE",
"409 304 LINE",
"409 242 LINE",
"545 242 LINE",
"545 234 LINE SMOOTH",
"545 116 OFFCURVE",
"495 57 OFFCURVE",
"382 57 CURVE SMOOTH",
"296 57 OFFCURVE",
"251 109 OFFCURVE",
"251 214 CURVE SMOOTH",
"251 513 LINE",
"426 513 LINE",
"426 575 LINE",
"251 575 LINE",
"251 714 LINE",
"173 714 LINE",
"169 575 LINE",
"31 575 LINE",
"31 513 LINE",
"167 513 LINE",
"167 209 LINE SMOOTH",
"167 63 OFFCURVE",
"241 -11 OFFCURVE",
"371 -11 CURVE SMOOTH",
"457 -11 OFFCURVE",
"511 21 OFFCURVE",
"542 73 CURVE",
"545 73 LINE",
"545 -78 LINE"
);
}
);
width = 776;
},
{
anchors = (
{
name = bottom;
position = "{349, 0}";
},
{
name = top;
position = "{201, 714}";
}
);
layerId = "2DF4BED8-8C28-42AB-BF0E-54235D05585D";
paths = (
{
closed = 1;
nodes = (
"588 -77 LINE",
"588 270 LINE",
"728 270 LINE",
"728 296 LINE",
"416 296 LINE",
"416 270 LINE",
"562 270 LINE",
"562 222 LINE SMOOTH",
"562 113 OFFCURVE",
"512 15 OFFCURVE",
"385 15 CURVE SMOOTH",
"280 15 OFFCURVE",
"214 78 OFFCURVE",
"214 197 CURVE SMOOTH",
"214 531 LINE",
"406 531 LINE",
"406 557 LINE",
"214 557 LINE",
"214 714 LINE",
"189 714 LINE",
"188 557 LINE",
"34 557 LINE",
"34 531 LINE",
"188 531 LINE",
"188 192 LINE SMOOTH",
"188 59 OFFCURVE",
"267 -10 OFFCURVE",
"384 -10 CURVE SMOOTH",
"480 -10 OFFCURVE",
"541 39 OFFCURVE",
"560 103 CURVE",
"562 103 LINE",
"562 -77 LINE"
);
}
);
width = 753;
},
{
anchors = (
{
name = bottom;
position = "{313, 0}";
},
{
name = top;
position = "{240, 714}";
}
);
layerId = "E4ECE1AD-6BB8-4230-9342-12306ED3D56E";
paths = (
{
closed = 1;
nodes = (
"716 -80 LINE",
"716 244 LINE",
"809 244 LINE",
"809 366 LINE",
"443 366 LINE",
"443 244 LINE",
"547 244 LINE",
"547 232 LINE SMOOTH",
"547 174 OFFCURVE",
"511 131 OFFCURVE",
"447 131 CURVE SMOOTH",
"386 131 OFFCURVE",
"341 160 OFFCURVE",
"341 240 CURVE SMOOTH",
"341 470 LINE",
"496 470 LINE",
"496 592 LINE",
"341 592 LINE",
"341 714 LINE",
"143 714 LINE",
"143 592 LINE",
"26 592 LINE",
"26 470 LINE",
"143 470 LINE",
"143 234 LINE SMOOTH",
"143 81 OFFCURVE",
"233 -10 OFFCURVE",
"378 -10 CURVE SMOOTH",
"462 -10 OFFCURVE",
"516 16 OFFCURVE",
"545 47 CURVE",
"547 47 LINE",
"547 -80 LINE"
);
}
);
width = 827;
}
);
note = uni13BF;
unicode = 13BF;
},
{
glyphname = uni13C0;
lastChange = "2016-06-22 20:04:59 +0000";
layers = (
{
anchors = (
{
name = bottom;
position = "{389, 0}";
},
{
name = top;
position = "{389, 714}";
}
);
layerId = "7F3B6D50-898E-416D-BEA3-584E42DB8369";
paths = (
{
closed = 1;
nodes = (
"455 -10 OFFCURVE",
"525 24 OFFCURVE",
"569 92 CURVE",
"569 0 LINE",
"647 0 LINE",
"647 253 LINE",
"728 262 LINE",
"728 311 LINE",
"482 311 LINE",
"482 262 LINE",
"569 253 LINE",
"569 200 LINE",
"554 116 OFFCURVE",
"472 57 OFFCURVE",
"368 57 CURVE SMOOTH",
"232 57 OFFCURVE",
"150 168 OFFCURVE",
"150 353 CURVE SMOOTH",
"150 552 OFFCURVE",
"239 657 OFFCURVE",
"408 657 CURVE SMOOTH",
"472 657 OFFCURVE",
"530 640 OFFCURVE",
"565 611 CURVE",
"570 514 LINE",
"642 514 LINE",
"642 646 LINE",
"602 691 OFFCURVE",
"503 725 OFFCURVE",
"408 725 CURVE SMOOTH",
"187 725 OFFCURVE",
"62 577 OFFCURVE",
"62 351 CURVE SMOOTH",
"62 123 OFFCURVE",
"173 -10 OFFCURVE",
"361 -10 CURVE SMOOTH"
);
}
);
width = 778;
},
{
anchors = (
{
name = bottom;
position = "{372, 0}";
},
{
name = top;
position = "{372, 714}";
}
);
layerId = "2DF4BED8-8C28-42AB-BF0E-54235D05585D";
paths = (
{
closed = 1;
nodes = (
"475 -10 OFFCURVE",
"548 44 OFFCURVE",
"583 128 CURVE",
"583 0 LINE",
"609 0 LINE",
"609 270 LINE",
"690 274 LINE",
"690 292 LINE",
"499 292 LINE",
"499 274 LINE",
"583 269 LINE",
"583 185 LINE",
"560 83 OFFCURVE",
"483 13 OFFCURVE",
"362 13 CURVE SMOOTH",
"175 13 OFFCURVE",
"97 153 OFFCURVE",
"97 350 CURVE SMOOTH",
"97 553 OFFCURVE",
"194 703 OFFCURVE",
"391 703 CURVE SMOOTH",
"480 703 OFFCURVE",
"534 682 OFFCURVE",
"574 649 CURVE",
"580 519 LINE",
"599 519 LINE",
"599 662 LINE",
"559 695 OFFCURVE",
"501 724 OFFCURVE",
"391 724 CURVE SMOOTH",
"179 724 OFFCURVE",
"70 566 OFFCURVE",
"70 350 CURVE SMOOTH",
"70 135 OFFCURVE",
"159 -10 OFFCURVE",
"361 -10 CURVE SMOOTH"
);
}
);
width = 744;
},
{
anchors = (
{
name = bottom;
position = "{391, 0}";
},
{
name = top;
position = "{391, 714}";
}
);
layerId = "E4ECE1AD-6BB8-4230-9342-12306ED3D56E";
paths = (
{
closed = 1;
nodes = (
"402 -10 OFFCURVE",
"456 16 OFFCURVE",
"493 55 CURVE",
"493 0 LINE",
"662 0 LINE",
"662 233 LINE",
"725 240 LINE",
"725 352 LINE",
"419 352 LINE",
"419 240 LINE",
"493 231 LINE",
"493 191 LINE",
"477 157 OFFCURVE",
"443 129 OFFCURVE",
"391 129 CURVE SMOOTH",
"305 129 OFFCURVE",
"249 180 OFFCURVE",
"249 337 CURVE SMOOTH",
"249 528 OFFCURVE",
"313 589 OFFCURVE",
"424 589 CURVE SMOOTH",
"466 589 OFFCURVE",
"497 578 OFFCURVE",
"519 565 CURVE",
"535 475 LINE",
"652 475 LINE",
"652 659 LINE",
"589 704 OFFCURVE",
"506 724 OFFCURVE",
"407 724 CURVE SMOOTH",
"174 724 OFFCURVE",
"51 594 OFFCURVE",
"51 332 CURVE SMOOTH",
"51 118 OFFCURVE",
"149 -10 OFFCURVE",
"322 -10 CURVE SMOOTH"
);
}
);
width = 781;
}
);
leftKerningGroup = uni13DF;
leftMetricsKey = uni13BE;
note = uni13C0;
unicode = 13C0;
},
{
glyphname = uni13C1;
lastChange = "2016-06-22 20:04:59 +0000";
layers = (
{
anchors = (
{
name = bottom;
position = "{417, 0}";
},
{
name = top;
position = "{466, 714}";
}
);
layerId = "7F3B6D50-898E-416D-BEA3-584E42DB8369";
paths = (
{
closed = 1;
nodes = (
"252 -6 OFFCURVE",
"276 164 OFFCURVE",
"297 363 CURVE SMOOTH",
"317 555 OFFCURVE",
"340 657 OFFCURVE",
"466 657 CURVE SMOOTH",
"567 657 OFFCURVE",
"610 596 OFFCURVE",
"610 454 CURVE SMOOTH",
"610 57 LINE",
"529 49 LINE",
"529 0 LINE",
"779 0 LINE",
"779 49 LINE",
"696 57 LINE",
"696 460 LINE SMOOTH",
"696 642 OFFCURVE",
"622 725 OFFCURVE",
"474 725 CURVE SMOOTH",
"309 725 OFFCURVE",
"241 631 OFFCURVE",
"218 371 CURVE SMOOTH",
"199 155 OFFCURVE",
"178 63 OFFCURVE",
"116 53 CURVE",
"116 55 OFFCURVE",
"117 60 OFFCURVE",
"117 64 CURVE SMOOTH",
"117 92 OFFCURVE",
"99 110 OFFCURVE",
"71 110 CURVE SMOOTH",
"41 110 OFFCURVE",
"20 87 OFFCURVE",
"20 56 CURVE SMOOTH",
"20 19 OFFCURVE",
"51 -6 OFFCURVE",
"96 -6 CURVE SMOOTH"
);
}
);
width = 834;
},
{
anchors = (
{
name = bottom;
position = "{386, 0}";
},
{
name = top;
position = "{441, 714}";
}
);
layerId = "2DF4BED8-8C28-42AB-BF0E-54235D05585D";
paths = (
{
closed = 1;
nodes = (
"144 -4 OFFCURVE",
"218 67 OFFCURVE",
"246 385 CURVE SMOOTH",
"265 600 OFFCURVE",
"310 701 OFFCURVE",
"448 701 CURVE SMOOTH",
"549 701 OFFCURVE",
"604 645 OFFCURVE",
"604 507 CURVE SMOOTH",
"604 23 LINE",
"521 18 LINE",
"521 0 LINE",
"712 0 LINE",
"712 18 LINE",
"630 23 LINE",
"630 511 LINE SMOOTH",
"630 661 OFFCURVE",
"567 725 OFFCURVE",
"449 725 CURVE SMOOTH",
"287 725 OFFCURVE",
"240 606 OFFCURVE",
"220 385 CURVE SMOOTH",
"191 67 OFFCURVE",
"122 22 OFFCURVE",
"75 20 CURVE",
"79 24 OFFCURVE",
"83 31 OFFCURVE",
"83 40 CURVE SMOOTH",
"83 56 OFFCURVE",
"73 66 OFFCURVE",
"57 66 CURVE SMOOTH",
"41 66 OFFCURVE",
"29 54 OFFCURVE",
"29 36 CURVE SMOOTH",
"29 11 OFFCURVE",
"44 -4 OFFCURVE",
"71 -4 CURVE SMOOTH"
);
}
);
width = 772;
},
{
anchors = (
{
name = bottom;
position = "{467, 0}";
},
{
name = top;
position = "{549, 714}";
}
);
layerId = "E4ECE1AD-6BB8-4230-9342-12306ED3D56E";
paths = (
{
closed = 1;
nodes = (
"372 -9 OFFCURVE",
"435 144 OFFCURVE",
"450 351 CURVE SMOOTH",
"462 521 OFFCURVE",
"479 586 OFFCURVE",
"559 586 CURVE SMOOTH",
"615 586 OFFCURVE",
"635 543 OFFCURVE",
"635 468 CURVE SMOOTH",
"635 121 LINE",
"562 112 LINE",
"562 0 LINE",
"893 0 LINE",
"893 112 LINE",
"826 120 LINE",
"826 450 LINE SMOOTH",
"826 627 OFFCURVE",
"752 726 OFFCURVE",
"564 726 CURVE SMOOTH",
"363 726 OFFCURVE",
"282 627 OFFCURVE",
"264 383 CURVE SMOOTH",
"250 190 OFFCURVE",
"229 132 OFFCURVE",
"194 132 CURVE",
"196 136 OFFCURVE",
"198 147 OFFCURVE",
"198 159 CURVE SMOOTH",
"198 191 OFFCURVE",
"176 225 OFFCURVE",
"124 225 CURVE SMOOTH",
"60 225 OFFCURVE",
"29 182 OFFCURVE",
"29 125 CURVE SMOOTH",
"29 39 OFFCURVE",
"86 -9 OFFCURVE",
"186 -9 CURVE SMOOTH"
);
}
);
width = 933;
}
);
leftKerningGroup = uni13AF;
note = uni13C1;
rightMetricsKey = uni13CC;
unicode = 13C1;
},
{
glyphname = uni13C2;
lastChange = "2016-06-22 20:04:59 +0000";
layers = (
{
anchors = (
{
name = bottom;
position = "{387, 0}";
},
{
name = top;
position = "{193, 714}";
}
);
layerId = "7F3B6D50-898E-416D-BEA3-584E42DB8369";
paths = (
{
closed = 1;
nodes = (
"320 0 LINE",
"320 49 LINE",
"238 57 LINE",
"238 199 LINE SMOOTH",
"238 348 OFFCURVE",
"299 420 OFFCURVE",
"426 420 CURVE SMOOTH",
"523 420 OFFCURVE",
"569 361 OFFCURVE",
"569 242 CURVE SMOOTH",
"569 57 LINE",
"487 49 LINE",
"487 0 LINE",
"736 0 LINE",
"736 49 LINE",
"653 57 LINE",
"653 247 LINE SMOOTH",
"653 410 OFFCURVE",
"584 487 OFFCURVE",
"436 487 CURVE SMOOTH",
"346 487 OFFCURVE",
"273 447 OFFCURVE",
"238 381 CURVE",
"234 381 LINE",
"236 406 OFFCURVE",
"238 439 OFFCURVE",
"238 483 CURVE SMOOTH",
"238 657 LINE",
"327 665 LINE",
"327 714 LINE",
"70 714 LINE",
"70 665 LINE",
"153 657 LINE",
"153 57 LINE",
"70 49 LINE",
"70 0 LINE"
);
}
);
width = 773;
},
{
anchors = (
{
name = bottom;
position = "{385, 0}";
},
{
name = top;
position = "{175, 714}";
}
);
layerId = "2DF4BED8-8C28-42AB-BF0E-54235D05585D";
paths = (
{
closed = 1;
nodes = (
"272 0 LINE",
"272 18 LINE",
"189 23 LINE",
"189 212 LINE SMOOTH",
"189 357 OFFCURVE",
"253 463 OFFCURVE",
"407 463 CURVE SMOOTH",
"533 463 OFFCURVE",
"592 393 OFFCURVE",
"592 264 CURVE SMOOTH",
"592 23 LINE",
"509 18 LINE",
"509 0 LINE",
"700 0 LINE",
"700 18 LINE",
"618 23 LINE",
"618 269 LINE SMOOTH",
"618 412 OFFCURVE",
"546 488 OFFCURVE",
"409 488 CURVE SMOOTH",
"274 488 OFFCURVE",
"207 414 OFFCURVE",
"189 328 CURVE",
"187 329 LINE",
"188 337 OFFCURVE",
"189 359 OFFCURVE",
"189 378 CURVE SMOOTH",
"189 691 LINE",
"271 696 LINE",
"271 714 LINE",
"80 714 LINE",
"80 696 LINE",
"163 691 LINE",
"163 23 LINE",
"81 18 LINE",
"81 0 LINE"
);
}
);
width = 770;
},
{
anchors = (
{
name = bottom;
position = "{421, 0}";
},
{
name = top;
position = "{219, 714}";
}
);
layerId = "E4ECE1AD-6BB8-4230-9342-12306ED3D56E";
paths = (
{
closed = 1;
nodes = (
"392 0 LINE",
"392 112 LINE",
"319 121 LINE",
"319 244 LINE SMOOTH",
"319 326 OFFCURVE",
"354 365 OFFCURVE",
"435 365 CURVE SMOOTH",
"508 365 OFFCURVE",
"538 328 OFFCURVE",
"538 258 CURVE SMOOTH",
"538 120 LINE",
"471 112 LINE",
"471 0 LINE",
"802 0 LINE",
"802 112 LINE",
"729 121 LINE",
"729 280 LINE SMOOTH",
"729 449 OFFCURVE",
"646 527 OFFCURVE",
"501 527 CURVE SMOOTH",
"399 527 OFFCURVE",
"343 484 OFFCURVE",
"319 437 CURVE",
"315 439 LINE",
"318 454 OFFCURVE",
"319 472 OFFCURVE",
"319 488 CURVE SMOOTH",
"319 595 LINE",
"386 602 LINE",
"386 714 LINE",
"55 714 LINE",
"55 602 LINE",
"128 593 LINE",
"128 120 LINE",
"61 112 LINE",
"61 0 LINE"
);
}
);
width = 842;
}
);
leftKerningGroup = uni13BB;
leftMetricsKey = uni13BB;
note = uni13C2;
unicode = 13C2;
},
{
glyphname = uni13C3;
lastChange = "2016-06-22 20:04:59 +0000";
layers = (
{
anchors = (
{
name = bottom;
position = "{318, 0}";
},
{
name = top;
position = "{318, 714}";
}
);
layerId = "7F3B6D50-898E-416D-BEA3-584E42DB8369";
paths = (
{
closed = 1;
nodes = (
"585 0 LINE",
"585 175 LINE",
"522 175 LINE",
"513 62 LINE",
"139 62 LINE",
"584 651 LINE",
"584 714 LINE",
"64 714 LINE",
"64 539 LINE",
"127 539 LINE",
"135 652 LINE",
"495 652 LINE",
"50 63 LINE",
"50 0 LINE"
);
}
);
width = 635;
},
{
anchors = (
{
name = bottom;
position = "{311, 0}";
},
{
name = top;
position = "{311, 714}";
}
);
layerId = "2DF4BED8-8C28-42AB-BF0E-54235D05585D";
paths = (
{
closed = 1;
nodes = (
"558 0 LINE",
"558 150 LINE",
"539 150 LINE",
"533 23 LINE",
"83 23 LINE",
"556 696 LINE",
"556 714 LINE",
"75 714 LINE",
"75 570 LINE",
"94 570 LINE",
"100 691 LINE",
"521 691 LINE",
"48 18 LINE",
"48 0 LINE"
);
}
);
width = 621;
},
{
anchors = (
{
name = bottom;
position = "{326, 0}";
},
{
name = top;
position = "{326, 714}";
}
);
layerId = "E4ECE1AD-6BB8-4230-9342-12306ED3D56E";
paths = (
{
closed = 1;
nodes = (
"607 0 LINE",
"607 229 LINE",
"500 229 LINE",
"492 132 LINE",
"267 132 LINE",
"611 595 LINE",
"611 714 LINE",
"53 714 LINE",
"53 485 LINE",
"160 485 LINE",
"170 582 LINE",
"385 582 LINE",
"38 119 LINE",
"38 0 LINE"
);
}
);
width = 651;
}
);
note = uni13C3;
unicode = 13C3;
},
{
glyphname = uni13C4;
lastChange = "2016-06-22 20:04:59 +0000";
layers = (
{
anchors = (
{
name = bottom;
position = "{550, 0}";
},
{
name = top;
position = "{335, 714}";
}
);
layerId = "7F3B6D50-898E-416D-BEA3-584E42DB8369";
paths = (
{
closed = 1;
nodes = (
"671 0 LINE",
"671 49 LINE",
"588 57 LINE",
"588 445 LINE SMOOTH",
"588 629 OFFCURVE",
"501 725 OFFCURVE",
"333 725 CURVE SMOOTH",
"198 725 OFFCURVE",
"114 653 OFFCURVE",
"95 546 CURVE",
"31 540 LINE",
"31 491 LINE",
"259 491 LINE",
"259 540 LINE",
"176 545 LINE",
"182 610 OFFCURVE",
"235 660 OFFCURVE",
"334 660 CURVE SMOOTH",
"450 660 OFFCURVE",
"505 588 OFFCURVE",
"505 448 CURVE SMOOTH",
"505 321 OFFCURVE",
"441 231 OFFCURVE",
"322 231 CURVE SMOOTH",
"233 231 OFFCURVE",
"183 276 OFFCURVE",
"176 345 CURVE",
"259 351 LINE",
"259 399 LINE",
"31 399 LINE",
"31 351 LINE",
"95 344 LINE",
"108 233 OFFCURVE",
"189 166 OFFCURVE",
"312 166 CURVE SMOOTH",
"406 166 OFFCURVE",
"471 205 OFFCURVE",
"504 260 CURVE",
"508 260 LINE",
"506 228 OFFCURVE",
"505 178 OFFCURVE",
"505 129 CURVE SMOOTH",
"505 57 LINE",
"421 49 LINE",
"421 0 LINE"
);
}
);
width = 726;
},
{
anchors = (
{
name = bottom;
position = "{566, 0}";
},
{
name = top;
position = "{348, 714}";
}
);
layerId = "2DF4BED8-8C28-42AB-BF0E-54235D05585D";
paths = (
{
closed = 1;
nodes = (
"662 0 LINE",
"662 18 LINE",
"580 23 LINE",
"580 466 LINE SMOOTH",
"580 639 OFFCURVE",
"496 725 OFFCURVE",
"348 725 CURVE SMOOTH",
"207 725 OFFCURVE",
"133 641 OFFCURVE",
"124 536 CURVE",
"30 530 LINE",
"30 512 LINE",
"244 512 LINE",
"244 530 LINE",
"150 536 LINE",
"159 637 OFFCURVE",
"230 701 OFFCURVE",
"348 701 CURVE SMOOTH",
"485 701 OFFCURVE",
"554 618 OFFCURVE",
"554 470 CURVE SMOOTH",
"554 353 OFFCURVE",
"490 239 OFFCURVE",
"348 239 CURVE SMOOTH",
"225 239 OFFCURVE",
"154 305 OFFCURVE",
"150 404 CURVE",
"244 410 LINE",
"244 428 LINE",
"30 428 LINE",
"30 410 LINE",
"124 404 LINE",
"129 291 OFFCURVE",
"208 214 OFFCURVE",
"348 214 CURVE SMOOTH",
"480 214 OFFCURVE",
"539 304 OFFCURVE",
"554 348 CURVE",
"556 348 LINE",
"555 317 OFFCURVE",
"554 283 OFFCURVE",
"554 240 CURVE SMOOTH",
"554 23 LINE",
"471 18 LINE",
"471 0 LINE"
);
}
);
width = 722;
},
{
anchors = (
{
name = bottom;
position = "{605, 0}";
},
{
name = top;
position = "{391, 714}";
}
);
layerId = "E4ECE1AD-6BB8-4230-9342-12306ED3D56E";
paths = (
{
closed = 1;
nodes = (
"771 0 LINE",
"771 112 LINE",
"704 120 LINE",
"704 421 LINE SMOOTH",
"704 619 OFFCURVE",
"605 725 OFFCURVE",
"390 725 CURVE SMOOTH",
"221 725 OFFCURVE",
"121 647 OFFCURVE",
"91 555 CURVE",
"26 546 LINE",
"26 450 LINE",
"347 450 LINE",
"347 546 LINE",
"282 554 LINE",
"304 581 OFFCURVE",
"334 597 OFFCURVE",
"387 597 CURVE SMOOTH",
"472 597 OFFCURVE",
"513 543 OFFCURVE",
"513 434 CURVE SMOOTH",
"513 332 OFFCURVE",
"471 264 OFFCURVE",
"381 264 CURVE SMOOTH",
"318 264 OFFCURVE",
"296 284 OFFCURVE",
"282 306 CURVE",
"347 315 LINE",
"347 410 LINE",
"26 410 LINE",
"26 315 LINE",
"91 307 LINE",
"116 202 OFFCURVE",
"194 135 OFFCURVE",
"338 135 CURVE SMOOTH",
"438 135 OFFCURVE",
"486 168 OFFCURVE",
"513 197 CURVE",
"515 197 LINE",
"514 186 OFFCURVE",
"513 165 OFFCURVE",
"513 151 CURVE SMOOTH",
"513 121 LINE",
"440 112 LINE",
"440 0 LINE"
);
}
);
width = 811;
}
);
note = uni13C4;
rightMetricsKey = uni13CC;
unicode = 13C4;
},
{
glyphname = uni13C5;
lastChange = "2016-06-22 20:04:59 +0000";
layers = (
{
anchors = (
{
name = bottom;
position = "{374, 0}";
},
{
name = top;
position = "{374, 714}";
}
);
layerId = "7F3B6D50-898E-416D-BEA3-584E42DB8369";
paths = (
{
closed = 1;
nodes = (
"550 -10 OFFCURVE",
"663 117 OFFCURVE",
"674 328 CURVE",
"792 398 LINE",
"823 306 OFFCURVE",
"870 264 OFFCURVE",
"942 264 CURVE SMOOTH",
"1039 264 OFFCURVE",
"1092 328 OFFCURVE",
"1107 464 CURVE",
"1048 470 LINE",
"1031 375 OFFCURVE",
"1000 333 OFFCURVE",
"946 333 CURVE SMOOTH",
"886 333 OFFCURVE",
"863 385 OFFCURVE",
"838 498 CURVE",
"836 498 LINE",
"673 398 LINE",
"660 611 OFFCURVE",
"555 725 OFFCURVE",
"374 725 CURVE SMOOTH",
"175 725 OFFCURVE",
"62 593 OFFCURVE",
"62 358 CURVE SMOOTH",
"62 118 OFFCURVE",
"170 -10 OFFCURVE",
"371 -10 CURVE SMOOTH"
);
},
{
closed = 1;
nodes = (
"225 57 OFFCURVE",
"150 160 OFFCURVE",
"150 357 CURVE SMOOTH",
"150 557 OFFCURVE",
"225 658 OFFCURVE",
"374 658 CURVE SMOOTH",
"517 658 OFFCURVE",
"590 557 OFFCURVE",
"590 357 CURVE SMOOTH",
"590 156 OFFCURVE",
"518 57 OFFCURVE",
"371 57 CURVE SMOOTH"
);
}
);
width = 1127;
},
{
anchors = (
{
name = bottom;
position = "{356, 0}";
},
{
name = top;
position = "{356, 714}";
}
);
layerId = "2DF4BED8-8C28-42AB-BF0E-54235D05585D";
paths = (
{
closed = 1;
nodes = (
"526 -10 OFFCURVE",
"633 120 OFFCURVE",
"638 352 CURVE",
"780 449 LINE",
"797 342 OFFCURVE",
"828 281 OFFCURVE",
"907 281 CURVE SMOOTH",
"989 281 OFFCURVE",
"1030 349 OFFCURVE",
"1052 456 CURVE",
"1025 460 LINE",
"1008 372 OFFCURVE",
"977 307 OFFCURVE",
"907 307 CURVE SMOOTH",
"849 307 OFFCURVE",
"821 353 OFFCURVE",
"808 434 CURVE SMOOTH",
"799 489 LINE",
"638 380 LINE",
"631 608 OFFCURVE",
"529 725 OFFCURVE",
"361 725 CURVE SMOOTH",
"173 725 OFFCURVE",
"70 574 OFFCURVE",
"70 359 CURVE SMOOTH",
"70 143 OFFCURVE",
"164 -10 OFFCURVE",
"354 -10 CURVE SMOOTH"
);
},
{
closed = 1;
nodes = (
"178 15 OFFCURVE",
"97 159 OFFCURVE",
"97 359 CURVE SMOOTH",
"97 556 OFFCURVE",
"182 700 OFFCURVE",
"361 700 CURVE SMOOTH",
"515 700 OFFCURVE",
"611 589 OFFCURVE",
"611 358 CURVE SMOOTH",
"611 156 OFFCURVE",
"526 15 OFFCURVE",
"355 15 CURVE SMOOTH"
);
}
);
width = 1072;
},
{
anchors = (
{
name = bottom;
position = "{375, 0}";
},
{
name = top;
position = "{375, 714}";
}
);
layerId = "E4ECE1AD-6BB8-4230-9342-12306ED3D56E";
paths = (
{
closed = 1;
nodes = (
"529 -10 OFFCURVE",
"649 80 OFFCURVE",
"677 263 CURVE",
"772 319 LINE",
"794 269 OFFCURVE",
"831 219 OFFCURVE",
"931 219 CURVE SMOOTH",
"1060 219 OFFCURVE",
"1120 311 OFFCURVE",
"1141 458 CURVE",
"1010 474 LINE",
"998 400 OFFCURVE",
"983 360 OFFCURVE",
"936 360 CURVE SMOOTH",
"898 360 OFFCURVE",
"881 380 OFFCURVE",
"865 444 CURVE SMOOTH",
"852 497 LINE",
"683 404 LINE",
"668 656 OFFCURVE",
"545 725 OFFCURVE",
"374 725 CURVE SMOOTH",
"155 725 OFFCURVE",
"51 581 OFFCURVE",
"51 359 CURVE SMOOTH",
"51 136 OFFCURVE",
"148 -10 OFFCURVE",
"367 -10 CURVE SMOOTH"
);
},
{
closed = 1;
nodes = (
"285 149 OFFCURVE",
"252 227 OFFCURVE",
"252 358 CURVE SMOOTH",
"252 489 OFFCURVE",
"284 569 OFFCURVE",
"367 569 CURVE SMOOTH",
"451 569 OFFCURVE",
"481 489 OFFCURVE",
"481 358 CURVE SMOOTH",
"481 227 OFFCURVE",
"451 149 OFFCURVE",
"367 149 CURVE SMOOTH"
);
}
);
width = 1155;
}
);
leftKerningGroup = uni13DF;
leftMetricsKey = uni13BE;
note = uni13C5;
rightKerningGroup = uni13A8;
unicode = 13C5;
},
{
glyphname = uni13C6;
lastChange = "2016-06-22 20:04:59 +0000";
layers = (
{
anchors = (
{
name = bottom;
position = "{387, 0}";
},
{
name = top;
position = "{387, 714}";
}
);
layerId = "7F3B6D50-898E-416D-BEA3-584E42DB8369";
paths = (
{
closed = 1;
nodes = (
"699 0 LINE",
"699 175 LINE",
"635 175 LINE",
"628 62 LINE",
"426 62 LINE",
"426 652 LINE",
"603 652 LINE",
"611 539 LINE",
"674 539 LINE",
"674 714 LINE",
"74 714 LINE",
"74 539 LINE",
"137 539 LINE",
"145 652 LINE",
"342 652 LINE",
"342 62 LINE",
"163 62 LINE",
"155 175 LINE",
"92 175 LINE",
"92 0 LINE"
);
}
);
width = 773;
},
{
anchors = (
{
name = bottom;
position = "{333, 0}";
},
{
name = top;
position = "{333, 714}";
}
);
layerId = "2DF4BED8-8C28-42AB-BF0E-54235D05585D";
paths = (
{
closed = 1;
nodes = (
"606 0 LINE",
"606 158 LINE",
"587 158 LINE",
"581 21 LINE",
"346 21 LINE",
"346 693 LINE",
"561 693 LINE",
"567 556 LINE",
"586 556 LINE",
"586 714 LINE",
"60 714 LINE",
"60 556 LINE",
"79 556 LINE",
"85 693 LINE",
"320 693 LINE",
"320 21 LINE",
"105 21 LINE",
"99 158 LINE",
"80 158 LINE",
"80 0 LINE"
);
}
);
width = 666;
},
{
anchors = (
{
name = bottom;
position = "{388, 0}";
},
{
name = top;
position = "{388, 714}";
}
);
layerId = "E4ECE1AD-6BB8-4230-9342-12306ED3D56E";
paths = (
{
closed = 1;
nodes = (
"720 0 LINE",
"720 244 LINE",
"618 244 LINE",
"604 135 LINE",
"484 135 LINE",
"484 579 LINE",
"590 579 LINE",
"604 470 LINE",
"706 470 LINE",
"706 714 LINE",
"55 714 LINE",
"55 470 LINE",
"157 470 LINE",
"171 579 LINE",
"291 579 LINE",
"291 135 LINE",
"185 135 LINE",
"171 244 LINE",
"69 244 LINE",
"69 0 LINE"
);
}
);
width = 775;
}
);
note = uni13C6;
unicode = 13C6;
},
{
glyphname = uni13C7;
lastChange = "2016-06-22 20:04:59 +0000";
layers = (
{
anchors = (
{
name = bottom;
position = "{518, 0}";
},
{
name = top;
position = "{659, 714}";
}
);
layerId = "7F3B6D50-898E-416D-BEA3-584E42DB8369";
paths = (
{
closed = 1;
nodes = (
"371 -11 OFFCURVE",
"449 38 OFFCURVE",
"485 133 CURVE",
"488 133 LINE",
"513 39 OFFCURVE",
"585 -11 OFFCURVE",
"688 -11 CURVE SMOOTH",
"878 -11 OFFCURVE",
"976 116 OFFCURVE",
"976 361 CURVE SMOOTH",
"976 569 OFFCURVE",
"856 725 OFFCURVE",
"652 725 CURVE SMOOTH",
"540 725 OFFCURVE",
"455 683 OFFCURVE",
"406 606 CURVE",
"461 563 LINE",
"498 617 OFFCURVE",
"558 653 OFFCURVE",
"643 653 CURVE SMOOTH",
"788 653 OFFCURVE",
"889 536 OFFCURVE",
"889 361 CURVE SMOOTH",
"889 162 OFFCURVE",
"822 57 OFFCURVE",
"693 57 CURVE SMOOTH",
"588 57 OFFCURVE",
"536 133 OFFCURVE",
"536 270 CURVE SMOOTH",
"536 309 OFFCURVE",
"541 350 OFFCURVE",
"547 383 CURVE",
"466 383 LINE",
"460 351 OFFCURVE",
"452 287 OFFCURVE",
"452 240 CURVE",
"430 121 OFFCURVE",
"367 57 OFFCURVE",
"272 57 CURVE SMOOTH",
"179 57 OFFCURVE",
"131 120 OFFCURVE",
"131 239 CURVE SMOOTH",
"131 298 OFFCURVE",
"144 354 OFFCURVE",
"161 390 CURVE",
"92 393 LINE",
"69 361 OFFCURVE",
"50 287 OFFCURVE",
"50 224 CURVE SMOOTH",
"50 70 OFFCURVE",
"126 -11 OFFCURVE",
"270 -11 CURVE SMOOTH"
);
}
);
width = 1035;
},
{
anchors = (
{
name = bottom;
position = "{511, 0}";
},
{
name = top;
position = "{648, 714}";
}
);
layerId = "2DF4BED8-8C28-42AB-BF0E-54235D05585D";
paths = (
{
closed = 1;
nodes = (
"379 -10 OFFCURVE",
"465 63 OFFCURVE",
"491 165 CURVE",
"493 165 LINE",
"505 81 OFFCURVE",
"560 -10 OFFCURVE",
"694 -10 CURVE SMOOTH",
"860 -10 OFFCURVE",
"956 125 OFFCURVE",
"956 346 CURVE SMOOTH",
"956 593 OFFCURVE",
"837 724 OFFCURVE",
"639 724 CURVE SMOOTH",
"518 724 OFFCURVE",
"444 668 OFFCURVE",
"405 603 CURVE",
"425 586 LINE",
"465 651 OFFCURVE",
"530 699 OFFCURVE",
"638 699 CURVE SMOOTH",
"817 699 OFFCURVE",
"929 577 OFFCURVE",
"929 346 CURVE SMOOTH",
"929 135 OFFCURVE",
"838 15 OFFCURVE",
"694 15 CURVE SMOOTH",
"573 15 OFFCURVE",
"508 100 OFFCURVE",
"508 238 CURVE SMOOTH",
"508 302 OFFCURVE",
"515 350 OFFCURVE",
"523 379 CURVE",
"498 380 LINE",
"490 351 OFFCURVE",
"481 287 OFFCURVE",
"481 234 CURVE",
"467 86 OFFCURVE",
"373 15 OFFCURVE",
"267 15 CURVE SMOOTH",
"151 15 OFFCURVE",
"86 81 OFFCURVE",
"86 226 CURVE SMOOTH",
"86 289 OFFCURVE",
"103 349 OFFCURVE",
"115 377 CURVE",
"88 377 LINE",
"76 348 OFFCURVE",
"59 287 OFFCURVE",
"59 224 CURVE SMOOTH",
"59 66 OFFCURVE",
"134 -10 OFFCURVE",
"265 -10 CURVE SMOOTH"
);
}
);
width = 1022;
},
{
anchors = (
{
name = bottom;
position = "{535, 0}";
},
{
name = top;
position = "{673, 714}";
}
);
layerId = "E4ECE1AD-6BB8-4230-9342-12306ED3D56E";
paths = (
{
closed = 1;
nodes = (
"409 -11 OFFCURVE",
"468 50 OFFCURVE",
"498 117 CURVE",
"500 117 LINE",
"524 58 OFFCURVE",
"575 -11 OFFCURVE",
"710 -11 CURVE SMOOTH",
"878 -11 OFFCURVE",
"1020 119 OFFCURVE",
"1020 354 CURVE SMOOTH",
"1020 565 OFFCURVE",
"911 725 OFFCURVE",
"660 725 CURVE SMOOTH",
"496 725 OFFCURVE",
"408 655 OFFCURVE",
"360 585 CURVE",
"466 487 LINE",
"498 529 OFFCURVE",
"556 574 OFFCURVE",
"642 574 CURVE SMOOTH",
"766 574 OFFCURVE",
"836 484 OFFCURVE",
"836 350 CURVE SMOOTH",
"836 200 OFFCURVE",
"775 139 OFFCURVE",
"705 139 CURVE SMOOTH",
"629 139 OFFCURVE",
"588 196 OFFCURVE",
"588 292 CURVE SMOOTH",
"588 330 OFFCURVE",
"591 360 OFFCURVE",
"599 391 CURVE",
"444 398 LINE",
"437 372 OFFCURVE",
"430 325 OFFCURVE",
"428 276 CURVE",
"407 178 OFFCURVE",
"371 138 OFFCURVE",
"305 138 CURVE SMOOTH",
"244 138 OFFCURVE",
"210 182 OFFCURVE",
"210 262 CURVE SMOOTH",
"210 321 OFFCURVE",
"224 357 OFFCURVE",
"238 391 CURVE",
"87 404 LINE",
"63 367 OFFCURVE",
"45 307 OFFCURVE",
"45 238 CURVE SMOOTH",
"45 82 OFFCURVE",
"130 -11 OFFCURVE",
"279 -11 CURVE SMOOTH"
);
}
);
width = 1070;
}
);
leftKerningGroup = uni13C7;
note = uni13C7;
rightKerningGroup = uni13A0;
unicode = 13C7;
},
{
glyphname = uni13C8;
lastChange = "2016-06-22 20:04:59 +0000";
layers = (
{
anchors = (
{
name = bottom;
position = "{434, 0}";
},
{
name = top;
position = "{434, 714}";
}
);
layerId = "7F3B6D50-898E-416D-BEA3-584E42DB8369";
paths = (
{
closed = 1;
nodes = (
"539 -11 OFFCURVE",
"622 85 OFFCURVE",
"622 224 CURVE SMOOTH",
"622 359 OFFCURVE",
"576 481 OFFCURVE",
"484 592 CURVE",
"529 636 OFFCURVE",
"579 658 OFFCURVE",
"635 658 CURVE SMOOTH",
"707 658 OFFCURVE",
"755 618 OFFCURVE",
"755 557 CURVE SMOOTH",
"755 509 OFFCURVE",
"734 472 OFFCURVE",
"698 459 CURVE",
"698 396 LINE",
"780 408 OFFCURVE",
"832 471 OFFCURVE",
"832 557 CURVE SMOOTH",
"832 660 OFFCURVE",
"756 725 OFFCURVE",
"636 725 CURVE SMOOTH",
"564 725 OFFCURVE",
"496 697 OFFCURVE",
"435 642 CURVE",
"384 694 OFFCURVE",
"316 725 OFFCURVE",
"255 725 CURVE SMOOTH",
"125 725 OFFCURVE",
"50 644 OFFCURVE",
"50 498 CURVE SMOOTH",
"50 482 OFFCURVE",
"51 470 OFFCURVE",
"52 458 CURVE",
"121 458 LINE",
"121 469 OFFCURVE",
"120 480 OFFCURVE",
"120 497 CURVE SMOOTH",
"120 600 OFFCURVE",
"169 658 OFFCURVE",
"251 658 CURVE SMOOTH",
"296 658 OFFCURVE",
"345 633 OFFCURVE",
"383 591 CURVE",
"287 483 OFFCURVE",
"230 342 OFFCURVE",
"230 216 CURVE SMOOTH",
"230 72 OFFCURVE",
"299 -11 OFFCURVE",
"419 -11 CURVE SMOOTH"
);
},
{
closed = 1;
nodes = (
"350 55 OFFCURVE",
"311 112 OFFCURVE",
"311 217 CURVE SMOOTH",
"311 328 OFFCURVE",
"361 463 OFFCURVE",
"432 543 CURVE",
"504 451 OFFCURVE",
"537 350 OFFCURVE",
"537 223 CURVE SMOOTH",
"537 120 OFFCURVE",
"492 55 OFFCURVE",
"421 55 CURVE SMOOTH"
);
}
);
width = 868;
},
{
anchors = (
{
name = bottom;
position = "{437, 0}";
},
{
name = top;
position = "{437, 714}";
}
);
layerId = "2DF4BED8-8C28-42AB-BF0E-54235D05585D";
paths = (
{
closed = 1;
nodes = (
"538 -10 OFFCURVE",
"602 79 OFFCURVE",
"602 216 CURVE SMOOTH",
"602 349 OFFCURVE",
"537 499 OFFCURVE",
"450 603 CURVE",
"515 668 OFFCURVE",
"578 701 OFFCURVE",
"653 701 CURVE SMOOTH",
"760 701 OFFCURVE",
"801 646 OFFCURVE",
"801 572 CURVE SMOOTH",
"801 487 OFFCURVE",
"743 448 OFFCURVE",
"682 438 CURVE",
"682 411 LINE",
"753 424 OFFCURVE",
"828 470 OFFCURVE",
"828 572 CURVE SMOOTH",
"828 660 OFFCURVE",
"776 726 OFFCURVE",
"658 726 CURVE SMOOTH",
"563 726 OFFCURVE",
"494 683 OFFCURVE",
"430 622 CURVE",
"376 679 OFFCURVE",
"320 726 OFFCURVE",
"234 726 CURVE SMOOTH",
"142 726 OFFCURVE",
"59 665 OFFCURVE",
"59 535 CURVE SMOOTH",
"59 506 OFFCURVE",
"62 476 OFFCURVE",
"65 456 CURVE",
"93 456 LINE",
"89 477 OFFCURVE",
"86 509 OFFCURVE",
"86 536 CURVE SMOOTH",
"86 648 OFFCURVE",
"155 701 OFFCURVE",
"232 701 CURVE SMOOTH",
"304 701 OFFCURVE",
"355 663 OFFCURVE",
"412 602 CURVE",
"312 483 OFFCURVE",
"246 358 OFFCURVE",
"246 201 CURVE SMOOTH",
"246 65 OFFCURVE",
"313 -10 OFFCURVE",
"422 -10 CURVE SMOOTH"
);
},
{
closed = 1;
nodes = (
"338 15 OFFCURVE",
"273 78 OFFCURVE",
"273 203 CURVE SMOOTH",
"273 350 OFFCURVE",
"335 473 OFFCURVE",
"431 583 CURVE",
"515 483 OFFCURVE",
"575 341 OFFCURVE",
"575 216 CURVE SMOOTH",
"575 84 OFFCURVE",
"515 15 OFFCURVE",
"422 15 CURVE SMOOTH"
);
}
);
width = 874;
},
{
anchors = (
{
name = bottom;
position = "{500, 0}";
},
{
name = top;
position = "{500, 714}";
}
);
layerId = "E4ECE1AD-6BB8-4230-9342-12306ED3D56E";
paths = (
{
closed = 1;
nodes = (
"637 -10 OFFCURVE",
"735 86 OFFCURVE",
"735 249 CURVE SMOOTH",
"735 357 OFFCURVE",
"697 450 OFFCURVE",
"610 540 CURVE",
"627 557 OFFCURVE",
"666 577 OFFCURVE",
"714 577 CURVE SMOOTH",
"773 577 OFFCURVE",
"799 556 OFFCURVE",
"799 522 CURVE SMOOTH",
"799 491 OFFCURVE",
"777 478 OFFCURVE",
"752 474 CURVE",
"752 335 LINE",
"868 340 OFFCURVE",
"961 402 OFFCURVE",
"961 530 CURVE SMOOTH",
"961 647 OFFCURVE",
"885 726 OFFCURVE",
"723 726 CURVE SMOOTH",
"624 726 OFFCURVE",
"541 698 OFFCURVE",
"491 657 CURVE",
"437 700 OFFCURVE",
"378 726 OFFCURVE",
"276 726 CURVE SMOOTH",
"133 726 OFFCURVE",
"45 638 OFFCURVE",
"45 494 CURVE SMOOTH",
"45 470 OFFCURVE",
"48 446 OFFCURVE",
"51 419 CURVE",
"213 419 LINE",
"211 437 OFFCURVE",
"210 465 OFFCURVE",
"210 480 CURVE SMOOTH",
"210 543 OFFCURVE",
"240 578 OFFCURVE",
"287 578 CURVE SMOOTH",
"328 578 OFFCURVE",
"347 562 OFFCURVE",
"367 539 CURVE",
"284 452 OFFCURVE",
"241 345 OFFCURVE",
"241 232 CURVE SMOOTH",
"241 77 OFFCURVE",
"334 -10 OFFCURVE",
"480 -10 CURVE SMOOTH"
);
},
{
closed = 1;
nodes = (
"452 135 OFFCURVE",
"430 161 OFFCURVE",
"430 236 CURVE SMOOTH",
"430 295 OFFCURVE",
"448 370 OFFCURVE",
"489 430 CURVE",
"526 375 OFFCURVE",
"543 306 OFFCURVE",
"543 240 CURVE SMOOTH",
"543 165 OFFCURVE",
"523 135 OFFCURVE",
"485 135 CURVE SMOOTH"
);
}
);
width = 999;
}
);
note = uni13C8;
unicode = 13C8;
},
{
glyphname = uni13C9;
lastChange = "2016-06-22 20:04:59 +0000";
layers = (
{
anchors = (
{
name = bottom;
position = "{592, 0}";
},
{
name = top;
position = "{607, 714}";
}
);
layerId = "7F3B6D50-898E-416D-BEA3-584E42DB8369";
paths = (
{
closed = 1;
nodes = (
"640 0 LINE",
"851 625 LINE",
"872 605 OFFCURVE",
"899 596 OFFCURVE",
"934 596 CURVE SMOOTH",
"956 596 OFFCURVE",
"986 605 OFFCURVE",
"1021 622 CURVE SMOOTH",
"1058 640 OFFCURVE",
"1090 647 OFFCURVE",
"1118 647 CURVE SMOOTH",
"1172 647 OFFCURVE",
"1207 614 OFFCURVE",
"1207 561 CURVE SMOOTH",
"1207 501 OFFCURVE",
"1166 459 OFFCURVE",
"1107 459 CURVE SMOOTH",
"1059 459 OFFCURVE",
"1028 483 OFFCURVE",
"1013 531 CURVE",
"952 512 LINE",
"969 439 OFFCURVE",
"1024 399 OFFCURVE",
"1107 399 CURVE SMOOTH",
"1207 399 OFFCURVE",
"1277 467 OFFCURVE",
"1277 565 CURVE SMOOTH",
"1277 652 OFFCURVE",
"1213 713 OFFCURVE",
"1121 713 CURVE SMOOTH",
"1092 713 OFFCURVE",
"1057 705 OFFCURVE",
"1019 687 CURVE SMOOTH",
"979 668 OFFCURVE",
"951 658 OFFCURVE",
"932 658 CURVE SMOOTH",
"900 658 OFFCURVE",
"877 670 OFFCURVE",
"869 691 CURVE",
"869 714 LINE",
"789 714 LINE",
"789 691 LINE",
"781 656 OFFCURVE",
"768 612 OFFCURVE",
"746 544 CURVE SMOOTH",
"640 217 LINE SMOOTH",
"620 158 OFFCURVE",
"601 95 OFFCURVE",
"592 54 CURVE",
"588 54 LINE",
"581 96 OFFCURVE",
"565 166 OFFCURVE",
"551 223 CURVE SMOOTH",
"434 714 LINE",
"347 714 LINE",
"416 451 LINE",
"413 323 OFFCURVE",
"331 210 OFFCURVE",
"213 210 CURVE SMOOTH",
"140 210 OFFCURVE",
"104 247 OFFCURVE",
"104 310 CURVE SMOOTH",
"104 354 OFFCURVE",
"128 395 OFFCURVE",
"178 395 CURVE SMOOTH",
"185 395 OFFCURVE",
"192 394 OFFCURVE",
"200 392 CURVE",
"193 409 LINE",
"186 403 OFFCURVE",
"181 393 OFFCURVE",
"181 380 CURVE SMOOTH",
"181 353 OFFCURVE",
"198 337 OFFCURVE",
"225 337 CURVE SMOOTH",
"256 337 OFFCURVE",
"275 358 OFFCURVE",
"275 389 CURVE SMOOTH",
"275 429 OFFCURVE",
"248 458 OFFCURVE",
"181 458 CURVE SMOOTH",
"92 458 OFFCURVE",
"30 398 OFFCURVE",
"30 307 CURVE SMOOTH",
"30 204 OFFCURVE",
"104 144 OFFCURVE",
"205 144 CURVE SMOOTH",
"323 144 OFFCURVE",
"415 218 OFFCURVE",
"448 317 CURVE",
"451 317 LINE",
"533 0 LINE"
);
}
);
width = 1307;
},
{
anchors = (
{
name = bottom;
position = "{551, 0}";
},
{
name = top;
position = "{576, 714}";
}
);
layerId = "2DF4BED8-8C28-42AB-BF0E-54235D05585D";
paths = (
{
closed = 1;
nodes = (
"566 0 LINE",
"803 661 LINE",
"821 641 OFFCURVE",
"850 626 OFFCURVE",
"892 626 CURVE SMOOTH",
"925 626 OFFCURVE",
"959 639 OFFCURVE",
"986 652 CURVE SMOOTH",
"1019 668 OFFCURVE",
"1044 677 OFFCURVE",
"1084 677 CURVE SMOOTH",
"1151 677 OFFCURVE",
"1197 634 OFFCURVE",
"1197 563 CURVE SMOOTH",
"1197 492 OFFCURVE",
"1158 440 OFFCURVE",
"1079 440 CURVE SMOOTH",
"1022 440 OFFCURVE",
"987 471 OFFCURVE",
"971 514 CURVE",
"948 505 LINE",
"967 453 OFFCURVE",
"1006 414 OFFCURVE",
"1079 414 CURVE SMOOTH",
"1170 414 OFFCURVE",
"1223 477 OFFCURVE",
"1223 564 CURVE SMOOTH",
"1223 646 OFFCURVE",
"1170 703 OFFCURVE",
"1086 703 CURVE SMOOTH",
"1037 703 OFFCURVE",
"1004 688 OFFCURVE",
"972 673 CURVE SMOOTH",
"940 658 OFFCURVE",
"917 651 OFFCURVE",
"890 651 CURVE SMOOTH",
"847 651 OFFCURVE",
"816 675 OFFCURVE",
"810 710 CURVE",
"810 714 LINE",
"785 714 LINE",
"785 700 LINE",
"776 662 OFFCURVE",
"759 612 OFFCURVE",
"741 561 CURVE SMOOTH",
"589 142 LINE SMOOTH",
"575 104 OFFCURVE",
"562 64 OFFCURVE",
"554 38 CURVE",
"552 38 LINE",
"546 66 OFFCURVE",
"537 110 OFFCURVE",
"528 143 CURVE SMOOTH",
"382 714 LINE",
"356 714 LINE",
"433 408 LINE",
"409 287 OFFCURVE",
"346 180 OFFCURVE",
"215 180 CURVE SMOOTH",
"123 180 OFFCURVE",
"71 231 OFFCURVE",
"71 312 CURVE SMOOTH",
"71 384 OFFCURVE",
"119 430 OFFCURVE",
"187 430 CURVE SMOOTH",
"201 430 OFFCURVE",
"221 427 OFFCURVE",
"229 420 CURVE",
"228 428 LINE",
"222 425 OFFCURVE",
"215 417 OFFCURVE",
"215 405 CURVE SMOOTH",
"215 390 OFFCURVE",
"224 379 OFFCURVE",
"241 379 CURVE SMOOTH",
"260 379 OFFCURVE",
"270 392 OFFCURVE",
"270 408 CURVE SMOOTH",
"270 432 OFFCURVE",
"252 456 OFFCURVE",
"188 456 CURVE SMOOTH",
"104 456 OFFCURVE",
"45 400 OFFCURVE",
"45 311 CURVE SMOOTH",
"45 217 OFFCURVE",
"106 154 OFFCURVE",
"211 154 CURVE SMOOTH",
"349 154 OFFCURVE",
"413 255 OFFCURVE",
"445 357 CURVE",
"446 357 LINE",
"537 0 LINE"
);
}
);
width = 1268;
},
{
anchors = (
{
name = bottom;
position = "{624, 0}";
},
{
name = top;
position = "{640, 714}";
}
);
layerId = "E4ECE1AD-6BB8-4230-9342-12306ED3D56E";
paths = (
{
closed = 1;
nodes = (
"726 0 LINE",
"928 561 LINE",
"942 551 OFFCURVE",
"964 541 OFFCURVE",
"992 541 CURVE SMOOTH",
"1023 541 OFFCURVE",
"1048 548 OFFCURVE",
"1084 564 CURVE SMOOTH",
"1107 574 OFFCURVE",
"1125 582 OFFCURVE",
"1148 582 CURVE SMOOTH",
"1182 582 OFFCURVE",
"1208 562 OFFCURVE",
"1208 525 CURVE SMOOTH",
"1208 491 OFFCURVE",
"1186 466 OFFCURVE",
"1148 466 CURVE SMOOTH",
"1112 466 OFFCURVE",
"1090 490 OFFCURVE",
"1082 525 CURVE",
"959 485 LINE",
"978 398 OFFCURVE",
"1042 338 OFFCURVE",
"1147 338 CURVE SMOOTH",
"1284 338 OFFCURVE",
"1364 422 OFFCURVE",
"1364 529 CURVE SMOOTH",
"1364 637 OFFCURVE",
"1296 713 OFFCURVE",
"1168 713 CURVE SMOOTH",
"1121 713 OFFCURVE",
"1087 701 OFFCURVE",
"1052 686 CURVE SMOOTH",
"1024 674 OFFCURVE",
"1007 669 OFFCURVE",
"986 669 CURVE SMOOTH",
"969 669 OFFCURVE",
"960 677 OFFCURVE",
"956 685 CURVE",
"956 714 LINE",
"780 714 LINE",
"780 695 LINE",
"774 659 OFFCURVE",
"763 630 OFFCURVE",
"746 576 CURVE SMOOTH",
"662 311 LINE SMOOTH",
"647 263 OFFCURVE",
"631 203 OFFCURVE",
"624 169 CURVE",
"621 169 LINE",
"615 203 OFFCURVE",
"602 269 OFFCURVE",
"591 315 CURVE SMOOTH",
"497 714 LINE",
"311 714 LINE",
"381 453 LINE",
"370 368 OFFCURVE",
"326 262 OFFCURVE",
"229 262 CURVE SMOOTH",
"187 262 OFFCURVE",
"162 283 OFFCURVE",
"162 319 CURVE SMOOTH",
"162 348 OFFCURVE",
"181 365 OFFCURVE",
"201 365 CURVE SMOOTH",
"207 365 OFFCURVE",
"211 364 OFFCURVE",
"215 363 CURVE",
"209 392 LINE",
"197 389 OFFCURVE",
"191 376 OFFCURVE",
"191 364 CURVE SMOOTH",
"191 333 OFFCURVE",
"211 314 OFFCURVE",
"245 314 CURVE SMOOTH",
"291 314 OFFCURVE",
"314 344 OFFCURVE",
"314 388 CURVE SMOOTH",
"314 449 OFFCURVE",
"271 484 OFFCURVE",
"198 484 CURVE SMOOTH",
"91 484 OFFCURVE",
"20 413 OFFCURVE",
"20 309 CURVE SMOOTH",
"20 200 OFFCURVE",
"81 127 OFFCURVE",
"214 127 CURVE SMOOTH",
"333 127 OFFCURVE",
"404 202 OFFCURVE",
"433 258 CURVE",
"435 258 LINE",
"505 0 LINE"
);
}
);
width = 1384;
}
);
note = uni13C9;
rightKerningGroup = uni13B9;
unicode = 13C9;
},
{
glyphname = uni13CA;
lastChange = "2016-06-22 20:04:59 +0000";
layers = (
{
anchors = (
{
name = bottom;
position = "{486, 0}";
},
{
name = top;
position = "{671, 714}";
}
);
layerId = "7F3B6D50-898E-416D-BEA3-584E42DB8369";
paths = (
{
closed = 1;
nodes = (
"372 -11 OFFCURVE",
"450 43 OFFCURVE",
"482 127 CURVE",
"486 127 LINE",
"506 46 OFFCURVE",
"580 -11 OFFCURVE",
"688 -11 CURVE SMOOTH",
"889 -11 OFFCURVE",
"1009 134 OFFCURVE",
"1009 367 CURVE SMOOTH",
"1009 585 OFFCURVE",
"878 725 OFFCURVE",
"671 725 CURVE SMOOTH",
"552 725 OFFCURVE",
"470 679 OFFCURVE",
"419 619 CURVE",
"466 573 LINE",
"511 624 OFFCURVE",
"581 657 OFFCURVE",
"666 657 CURVE SMOOTH",
"825 657 OFFCURVE",
"922 535 OFFCURVE",
"922 367 CURVE SMOOTH",
"922 174 OFFCURVE",
"839 57 OFFCURVE",
"694 57 CURVE SMOOTH",
"598 57 OFFCURVE",
"536 125 OFFCURVE",
"536 220 CURVE SMOOTH",
"536 294 OFFCURVE",
"567 351 OFFCURVE",
"613 351 CURVE SMOOTH",
"622 351 OFFCURVE",
"631 349 OFFCURVE",
"637 347 CURVE",
"624 364 LINE",
"614 362 OFFCURVE",
"607 351 OFFCURVE",
"607 337 CURVE SMOOTH",
"607 315 OFFCURVE",
"622 297 OFFCURVE",
"650 297 CURVE SMOOTH",
"681 297 OFFCURVE",
"699 319 OFFCURVE",
"699 351 CURVE SMOOTH",
"699 390 OFFCURVE",
"670 417 OFFCURVE",
"619 417 CURVE SMOOTH",
"534 417 OFFCURVE",
"481 365 OFFCURVE",
"460 251 CURVE SMOOTH",
"436 122 OFFCURVE",
"375 57 OFFCURVE",
"275 57 CURVE SMOOTH",
"183 57 OFFCURVE",
"131 124 OFFCURVE",
"131 241 CURVE SMOOTH",
"131 298 OFFCURVE",
"144 354 OFFCURVE",
"161 390 CURVE",
"92 393 LINE",
"69 363 OFFCURVE",
"50 288 OFFCURVE",
"50 224 CURVE SMOOTH",
"50 74 OFFCURVE",
"131 -11 OFFCURVE",
"275 -11 CURVE SMOOTH"
);
}
);
width = 1068;
},
{
anchors = (
{
name = bottom;
position = "{497, 0}";
},
{
name = top;
position = "{660, 714}";
}
);
layerId = "2DF4BED8-8C28-42AB-BF0E-54235D05585D";
paths = (
{
closed = 1;
nodes = (
"384 -10 OFFCURVE",
"463 48 OFFCURVE",
"493 160 CURVE",
"495 160 LINE",
"507 76 OFFCURVE",
"571 -10 OFFCURVE",
"705 -10 CURVE SMOOTH",
"883 -10 OFFCURVE",
"989 125 OFFCURVE",
"989 346 CURVE SMOOTH",
"989 593 OFFCURVE",
"844 724 OFFCURVE",
"658 724 CURVE SMOOTH",
"538 724 OFFCURVE",
"453 677 OFFCURVE",
"410 622 CURVE",
"430 605 LINE",
"476 662 OFFCURVE",
"550 699 OFFCURVE",
"657 699 CURVE SMOOTH",
"824 699 OFFCURVE",
"962 577 OFFCURVE",
"962 346 CURVE SMOOTH",
"962 135 OFFCURVE",
"861 15 OFFCURVE",
"705 15 CURVE SMOOTH",
"583 15 OFFCURVE",
"513 97 OFFCURVE",
"513 218 CURVE SMOOTH",
"513 309 OFFCURVE",
"549 378 OFFCURVE",
"614 378 CURVE SMOOTH",
"640 378 OFFCURVE",
"653 370 OFFCURVE",
"659 361 CURVE",
"660 369 LINE",
"644 369 OFFCURVE",
"635 360 OFFCURVE",
"635 346 CURVE SMOOTH",
"635 330 OFFCURVE",
"646 321 OFFCURVE",
"660 321 CURVE SMOOTH",
"674 321 OFFCURVE",
"688 330 OFFCURVE",
"688 350 CURVE SMOOTH",
"688 377 OFFCURVE",
"665 400 OFFCURVE",
"619 400 CURVE SMOOTH",
"555 400 OFFCURVE",
"500 360 OFFCURVE",
"486 234 CURVE SMOOTH",
"468 72 OFFCURVE",
"382 15 OFFCURVE",
"276 15 CURVE SMOOTH",
"160 15 OFFCURVE",
"86 90 OFFCURVE",
"86 232 CURVE SMOOTH",
"86 295 OFFCURVE",
"102 349 OFFCURVE",
"114 377 CURVE",
"87 377 LINE",
"75 348 OFFCURVE",
"59 293 OFFCURVE",
"59 230 CURVE SMOOTH",
"59 75 OFFCURVE",
"143 -10 OFFCURVE",
"274 -10 CURVE SMOOTH"
);
}
);
width = 1055;
},
{
anchors = (
{
name = bottom;
position = "{528, 0}";
},
{
name = top;
position = "{735, 714}";
}
);
layerId = "E4ECE1AD-6BB8-4230-9342-12306ED3D56E";
paths = (
{
closed = 1;
nodes = (
"417 -11 OFFCURVE",
"488 50 OFFCURVE",
"524 117 CURVE",
"526 117 LINE",
"553 54 OFFCURVE",
"620 -11 OFFCURVE",
"763 -11 CURVE SMOOTH",
"956 -11 OFFCURVE",
"1112 119 OFFCURVE",
"1112 354 CURVE SMOOTH",
"1112 565 OFFCURVE",
"999 725 OFFCURVE",
"724 725 CURVE SMOOTH",
"556 725 OFFCURVE",
"455 659 OFFCURVE",
"407 602 CURVE",
"512 487 LINE",
"547 530 OFFCURVE",
"611 572 OFFCURVE",
"705 572 CURVE SMOOTH",
"852 572 OFFCURVE",
"922 484 OFFCURVE",
"922 350 CURVE SMOOTH",
"922 200 OFFCURVE",
"847 139 OFFCURVE",
"752 139 CURVE SMOOTH",
"656 139 OFFCURVE",
"620 196 OFFCURVE",
"620 252 CURVE SMOOTH",
"620 300 OFFCURVE",
"638 322 OFFCURVE",
"665 322 CURVE SMOOTH",
"675 322 OFFCURVE",
"684 318 OFFCURVE",
"689 314 CURVE",
"671 353 LINE",
"657 347 OFFCURVE",
"648 333 OFFCURVE",
"648 312 CURVE SMOOTH",
"648 278 OFFCURVE",
"667 249 OFFCURVE",
"714 249 CURVE SMOOTH",
"762 249 OFFCURVE",
"790 284 OFFCURVE",
"790 335 CURVE SMOOTH",
"790 395 OFFCURVE",
"750 447 OFFCURVE",
"657 447 CURVE SMOOTH",
"561 447 OFFCURVE",
"495 406 OFFCURVE",
"458 276 CURVE SMOOTH",
"426 164 OFFCURVE",
"382 138 OFFCURVE",
"321 138 CURVE SMOOTH",
"257 138 OFFCURVE",
"219 182 OFFCURVE",
"219 262 CURVE SMOOTH",
"219 321 OFFCURVE",
"234 357 OFFCURVE",
"250 391 CURVE",
"91 404 LINE",
"65 367 OFFCURVE",
"45 307 OFFCURVE",
"45 238 CURVE SMOOTH",
"45 82 OFFCURVE",
"138 -11 OFFCURVE",
"295 -11 CURVE SMOOTH"
);
}
);
width = 1162;
}
);
leftKerningGroup = uni13C7;
note = uni13CA;
rightKerningGroup = uni13A0;
unicode = 13CA;
},
{
glyphname = uni13CB;
lastChange = "2016-06-22 20:04:59 +0000";
layers = (
{
anchors = (
{
name = bottom;
position = "{333, 0}";
},
{
name = top;
position = "{333, 714}";
}
);
layerId = "7F3B6D50-898E-416D-BEA3-584E42DB8369";
paths = (
{
closed = 1;
nodes = (
"495 -11 OFFCURVE",
"598 52 OFFCURVE",
"598 146 CURVE SMOOTH",
"598 218 OFFCURVE",
"552 260 OFFCURVE",
"458 260 CURVE SMOOTH",
"436 260 LINE",
"436 201 LINE",
"450 201 LINE SMOOTH",
"497 201 OFFCURVE",
"521 184 OFFCURVE",
"521 150 CURVE SMOOTH",
"521 92 OFFCURVE",
"453 57 OFFCURVE",
"342 57 CURVE SMOOTH",
"218 57 OFFCURVE",
"153 107 OFFCURVE",
"153 205 CURVE SMOOTH",
"153 302 OFFCURVE",
"229 362 OFFCURVE",
"368 362 CURVE SMOOTH",
"500 362 LINE",
"500 430 LINE",
"368 430 LINE SMOOTH",
"241 430 OFFCURVE",
"176 466 OFFCURVE",
"176 541 CURVE SMOOTH",
"176 614 OFFCURVE",
"240 657 OFFCURVE",
"347 657 CURVE SMOOTH",
"410 657 OFFCURVE",
"481 643 OFFCURVE",
"527 620 CURVE",
"558 678 LINE",
"503 709 OFFCURVE",
"431 725 OFFCURVE",
"339 725 CURVE SMOOTH",
"190 725 OFFCURVE",
"94 655 OFFCURVE",
"94 546 CURVE SMOOTH",
"94 465 OFFCURVE",
"141 411 OFFCURVE",
"232 395 CURVE",
"232 391 LINE",
"127 371 OFFCURVE",
"66 296 OFFCURVE",
"66 194 CURVE SMOOTH",
"66 63 OFFCURVE",
"164 -11 OFFCURVE",
"338 -11 CURVE SMOOTH"
);
}
);
width = 665;
},
{
anchors = (
{
name = bottom;
position = "{329, 0}";
},
{
name = top;
position = "{329, 714}";
}
);
layerId = "2DF4BED8-8C28-42AB-BF0E-54235D05585D";
paths = (
{
closed = 1;
nodes = (
"490 -10 OFFCURVE",
"588 47 OFFCURVE",
"588 153 CURVE SMOOTH",
"588 230 OFFCURVE",
"532 263 OFFCURVE",
"465 263 CURVE SMOOTH",
"446 263 LINE",
"446 237 LINE",
"465 237 LINE SMOOTH",
"527 237 OFFCURVE",
"562 208 OFFCURVE",
"562 151 CURVE SMOOTH",
"562 62 OFFCURVE",
"474 15 OFFCURVE",
"333 15 CURVE SMOOTH",
"172 15 OFFCURVE",
"101 85 OFFCURVE",
"101 199 CURVE SMOOTH",
"101 314 OFFCURVE",
"180 383 OFFCURVE",
"358 383 CURVE SMOOTH",
"457 383 LINE",
"457 408 LINE",
"354 408 LINE SMOOTH",
"204 408 OFFCURVE",
"135 455 OFFCURVE",
"135 551 CURVE SMOOTH",
"135 633 OFFCURVE",
"196 700 OFFCURVE",
"350 700 CURVE SMOOTH",
"427 700 OFFCURVE",
"480 683 OFFCURVE",
"514 668 CURVE",
"525 693 LINE",
"490 708 OFFCURVE",
"425 725 OFFCURVE",
"348 725 CURVE SMOOTH",
"186 725 OFFCURVE",
"109 648 OFFCURVE",
"109 549 CURVE SMOOTH",
"109 450 OFFCURVE",
"172 408 OFFCURVE",
"259 395 CURVE",
"259 393 LINE",
"164 382 OFFCURVE",
"75 325 OFFCURVE",
"75 198 CURVE SMOOTH",
"75 66 OFFCURVE",
"162 -10 OFFCURVE",
"333 -10 CURVE SMOOTH"
);
}
);
width = 658;
},
{
anchors = (
{
name = bottom;
position = "{337, 0}";
},
{
name = top;
position = "{337, 714}";
}
);
layerId = "E4ECE1AD-6BB8-4230-9342-12306ED3D56E";
paths = (
{
closed = 1;
nodes = (
"526 -14 OFFCURVE",
"629 52 OFFCURVE",
"629 175 CURVE SMOOTH",
"629 292 OFFCURVE",
"542 329 OFFCURVE",
"412 329 CURVE SMOOTH",
"396 329 LINE",
"396 215 LINE",
"412 215 LINE SMOOTH",
"450 215 OFFCURVE",
"481 208 OFFCURVE",
"481 177 CURVE SMOOTH",
"481 144 OFFCURVE",
"446 122 OFFCURVE",
"371 122 CURVE SMOOTH",
"297 122 OFFCURVE",
"246 162 OFFCURVE",
"246 243 CURVE SMOOTH",
"246 319 OFFCURVE",
"305 360 OFFCURVE",
"391 360 CURVE SMOOTH",
"490 360 LINE",
"490 483 LINE",
"387 483 LINE SMOOTH",
"312 483 OFFCURVE",
"287 504 OFFCURVE",
"287 537 CURVE SMOOTH",
"287 575 OFFCURVE",
"317 594 OFFCURVE",
"388 594 CURVE SMOOTH",
"453 594 OFFCURVE",
"480 583 OFFCURVE",
"518 567 CURVE",
"560 686 LINE",
"518 705 OFFCURVE",
"444 723 OFFCURVE",
"357 723 CURVE SMOOTH",
"189 723 OFFCURVE",
"101 659 OFFCURVE",
"101 557 CURVE SMOOTH",
"101 483 OFFCURVE",
"140 440 OFFCURVE",
"216 421 CURVE",
"216 420 LINE",
"151 406 OFFCURVE",
"60 354 OFFCURVE",
"60 218 CURVE SMOOTH",
"60 66 OFFCURVE",
"159 -14 OFFCURVE",
"357 -14 CURVE SMOOTH"
);
}
);
width = 674;
}
);
note = uni13CB;
unicode = 13CB;
},
{
glyphname = uni13CC;
lastChange = "2016-06-22 20:04:59 +0000";
layers = (
{
anchors = (
{
name = bottom;
position = "{410, 0}";
},
{
name = top;
position = "{410, 714}";
}
);
layerId = "7F3B6D50-898E-416D-BEA3-584E42DB8369";
paths = (
{
closed = 1;
nodes = (
"586 -9 OFFCURVE",
"682 73 OFFCURVE",
"682 222 CURVE SMOOTH",
"682 657 LINE",
"764 665 LINE",
"764 714 LINE",
"515 714 LINE",
"515 665 LINE",
"598 657 LINE",
"598 417 LINE",
"221 417 LINE",
"221 657 LINE",
"304 665 LINE",
"304 714 LINE",
"55 714 LINE",
"55 665 LINE",
"137 657 LINE",
"137 229 LINE SMOOTH",
"137 66 OFFCURVE",
"224 -9 OFFCURVE",
"412 -9 CURVE SMOOTH"
);
},
{
closed = 1;
nodes = (
"280 59 OFFCURVE",
"221 114 OFFCURVE",
"221 238 CURVE SMOOTH",
"221 355 LINE",
"598 355 LINE",
"598 233 LINE SMOOTH",
"598 112 OFFCURVE",
"540 59 OFFCURVE",
"412 59 CURVE SMOOTH"
);
}
);
width = 819;
},
{
anchors = (
{
name = bottom;
position = "{402, 0}";
},
{
name = top;
position = "{402, 714}";
}
);
layerId = "2DF4BED8-8C28-42AB-BF0E-54235D05585D";
paths = (
{
closed = 1;
nodes = (
"561 -10 OFFCURVE",
"664 64 OFFCURVE",
"664 219 CURVE SMOOTH",
"664 692 LINE",
"744 696 LINE",
"744 714 LINE",
"553 714 LINE",
"553 696 LINE",
"638 691 LINE",
"638 399 LINE",
"167 399 LINE",
"167 691 LINE",
"251 696 LINE",
"251 714 LINE",
"60 714 LINE",
"60 696 LINE",
"141 692 LINE",
"141 234 LINE SMOOTH",
"141 69 OFFCURVE",
"233 -10 OFFCURVE",
"401 -10 CURVE SMOOTH"
);
},
{
closed = 1;
nodes = (
"253 12 OFFCURVE",
"167 80 OFFCURVE",
"167 236 CURVE SMOOTH",
"167 376 LINE",
"638 376 LINE",
"638 224 LINE SMOOTH",
"638 75 OFFCURVE",
"544 12 OFFCURVE",
"402 12 CURVE SMOOTH"
);
}
);
width = 804;
},
{
anchors = (
{
name = bottom;
position = "{412, 0}";
},
{
name = top;
position = "{412, 714}";
}
);
layerId = "E4ECE1AD-6BB8-4230-9342-12306ED3D56E";
paths = (
{
closed = 1;
nodes = (
"615 -10 OFFCURVE",
"717 91 OFFCURVE",
"717 251 CURVE SMOOTH",
"717 594 LINE",
"784 602 LINE",
"784 714 LINE",
"457 714 LINE",
"457 602 LINE",
"524 594 LINE",
"524 438 LINE",
"300 438 LINE",
"300 594 LINE",
"368 602 LINE",
"368 714 LINE",
"40 714 LINE",
"40 602 LINE",
"106 594 LINE",
"106 247 LINE SMOOTH",
"106 82 OFFCURVE",
"212 -10 OFFCURVE",
"409 -10 CURVE SMOOTH"
);
},
{
closed = 1;
nodes = (
"338 131 OFFCURVE",
"300 161 OFFCURVE",
"300 242 CURVE SMOOTH",
"300 318 LINE",
"524 318 LINE",
"524 243 LINE SMOOTH",
"524 161 OFFCURVE",
"491 131 OFFCURVE",
"412 131 CURVE SMOOTH"
);
}
);
width = 824;
}
);
note = uni13CC;
rightKerningGroup = uni13AB;
unicode = 13CC;
},
{
glyphname = uni13CD;
lastChange = "2016-06-22 20:04:59 +0000";
layers = (
{
anchors = (
{
name = bottom;
position = "{524, 0}";
},
{
name = top;
position = "{566, 714}";
}
);
layerId = "7F3B6D50-898E-416D-BEA3-584E42DB8369";
paths = (
{
closed = 1;
nodes = (
"372 -11 OFFCURVE",
"449 65 OFFCURVE",
"459 189 CURVE",
"599 261 LINE",
"599 190 LINE SMOOTH",
"599 52 OFFCURVE",
"653 -11 OFFCURVE",
"765 -11 CURVE SMOOTH",
"904 -11 OFFCURVE",
"988 113 OFFCURVE",
"988 319 CURVE SMOOTH",
"988 574 OFFCURVE",
"833 725 OFFCURVE",
"563 725 CURVE SMOOTH",
"416 725 OFFCURVE",
"304 665 OFFCURVE",
"241 604 CURVE",
"283 549 LINE",
"341 600 OFFCURVE",
"439 652 OFFCURVE",
"560 652 CURVE SMOOTH",
"781 652 OFFCURVE",
"902 535 OFFCURVE",
"902 320 CURVE SMOOTH",
"902 147 OFFCURVE",
"854 51 OFFCURVE",
"767 51 CURVE SMOOTH",
"704 51 OFFCURVE",
"678 98 OFFCURVE",
"678 208 CURVE SMOOTH",
"678 383 LINE",
"756 392 LINE",
"756 440 LINE",
"516 440 LINE",
"516 392 LINE",
"601 383 LINE",
"599 322 LINE",
"457 259 LINE",
"440 369 OFFCURVE",
"367 430 OFFCURVE",
"255 430 CURVE SMOOTH",
"131 430 OFFCURVE",
"50 341 OFFCURVE",
"50 205 CURVE SMOOTH",
"50 70 OFFCURVE",
"127 -11 OFFCURVE",
"255 -11 CURVE SMOOTH"
);
},
{
closed = 1;
nodes = (
"175 50 OFFCURVE",
"128 109 OFFCURVE",
"128 208 CURVE SMOOTH",
"128 308 OFFCURVE",
"175 369 OFFCURVE",
"255 369 CURVE SMOOTH",
"335 369 OFFCURVE",
"382 310 OFFCURVE",
"382 211 CURVE SMOOTH",
"382 111 OFFCURVE",
"334 50 OFFCURVE",
"255 50 CURVE SMOOTH"
);
}
);
width = 1047;
},
{
anchors = (
{
name = bottom;
position = "{510, 0}";
},
{
name = top;
position = "{553, 714}";
}
);
layerId = "2DF4BED8-8C28-42AB-BF0E-54235D05585D";
paths = (
{
closed = 1;
nodes = (
"360 -11 OFFCURVE",
"436 71 OFFCURVE",
"436 209 CURVE",
"600 286 LINE",
"600 162 LINE SMOOTH",
"600 47 OFFCURVE",
"655 -10 OFFCURVE",
"747 -10 CURVE SMOOTH",
"889 -10 OFFCURVE",
"953 125 OFFCURVE",
"953 326 CURVE SMOOTH",
"953 587 OFFCURVE",
"794 724 OFFCURVE",
"557 724 CURVE SMOOTH",
"388 724 OFFCURVE",
"278 652 OFFCURVE",
"230 607 CURVE",
"247 586 LINE",
"298 633 OFFCURVE",
"400 699 OFFCURVE",
"556 699 CURVE SMOOTH",
"774 699 OFFCURVE",
"926 571 OFFCURVE",
"926 326 CURVE SMOOTH",
"926 135 OFFCURVE",
"868 15 OFFCURVE",
"747 15 CURVE SMOOTH",
"661 15 OFFCURVE",
"626 75 OFFCURVE",
"626 174 CURVE SMOOTH",
"626 407 LINE",
"709 412 LINE",
"709 430 LINE",
"517 430 LINE",
"517 412 LINE",
"600 407 LINE",
"600 310 LINE",
"435 232 LINE",
"427 350 OFFCURVE",
"360 421 OFFCURVE",
"251 421 CURVE SMOOTH",
"139 421 OFFCURVE",
"59 336 OFFCURVE",
"59 203 CURVE SMOOTH",
"59 67 OFFCURVE",
"131 -11 OFFCURVE",
"247 -11 CURVE SMOOTH"
);
},
{
closed = 1;
nodes = (
"151 12 OFFCURVE",
"85 78 OFFCURVE",
"85 203 CURVE SMOOTH",
"85 320 OFFCURVE",
"149 397 OFFCURVE",
"251 397 CURVE SMOOTH",
"351 397 OFFCURVE",
"410 325 OFFCURVE",
"410 204 CURVE SMOOTH",
"410 78 OFFCURVE",
"341 12 OFFCURVE",
"247 12 CURVE SMOOTH"
);
}
);
width = 1019;
},
{
anchors = (
{
name = bottom;
position = "{594, 0}";
},
{
name = top;
position = "{701, 714}";
}
);
layerId = "E4ECE1AD-6BB8-4230-9342-12306ED3D56E";
paths = (
{
closed = 1;
nodes = (
"389 -12 OFFCURVE",
"475 53 OFFCURVE",
"499 162 CURVE",
"603 213 LINE",
"603 203 LINE SMOOTH",
"603 92 OFFCURVE",
"656 -11 OFFCURVE",
"838 -11 CURVE SMOOTH",
"1031 -11 OFFCURVE",
"1137 123 OFFCURVE",
"1137 333 CURVE SMOOTH",
"1137 550 OFFCURVE",
"1016 725 OFFCURVE",
"694 725 CURVE SMOOTH",
"500 725 OFFCURVE",
"382 669 OFFCURVE",
"319 623 CURVE",
"399 493 LINE",
"446 530 OFFCURVE",
"540 575 OFFCURVE",
"675 575 CURVE SMOOTH",
"851 575 OFFCURVE",
"936 487 OFFCURVE",
"936 322 CURVE SMOOTH",
"936 178 OFFCURVE",
"904 132 OFFCURVE",
"855 132 CURVE SMOOTH",
"812 132 OFFCURVE",
"796 165 OFFCURVE",
"796 218 CURVE SMOOTH",
"796 343 LINE",
"851 350 LINE",
"851 462 LINE",
"545 462 LINE",
"545 350 LINE",
"603 342 LINE",
"603 327 LINE",
"502 278 LINE",
"484 389 OFFCURVE",
"404 455 OFFCURVE",
"275 455 CURVE SMOOTH",
"140 455 OFFCURVE",
"45 371 OFFCURVE",
"45 220 CURVE SMOOTH",
"45 71 OFFCURVE",
"137 -12 OFFCURVE",
"275 -12 CURVE SMOOTH"
);
},
{
closed = 1;
nodes = (
"241 123 OFFCURVE",
"216 156 OFFCURVE",
"216 223 CURVE SMOOTH",
"216 288 OFFCURVE",
"241 320 OFFCURVE",
"275 320 CURVE SMOOTH",
"310 320 OFFCURVE",
"335 292 OFFCURVE",
"335 225 CURVE SMOOTH",
"335 159 OFFCURVE",
"310 123 OFFCURVE",
"275 123 CURVE SMOOTH"
);
}
);
width = 1187;
}
);
note = uni13CD;
rightKerningGroup = uni13A0;
unicode = 13CD;
},
{
glyphname = uni13CE;
lastChange = "2016-06-22 20:04:59 +0000";
layers = (
{
anchors = (
{
name = bottom;
position = "{429, 0}";
},
{
name = top;
position = "{405, 714}";
}
);
layerId = "7F3B6D50-898E-416D-BEA3-584E42DB8369";
paths = (
{
closed = 1;
nodes = (
"552 0 LINE",
"552 49 LINE",
"471 57 LINE",
"471 182 LINE",
"578 182 LINE",
"578 249 LINE",
"471 249 LINE",
"471 716 LINE",
"361 716 LINE",
"20 247 LINE",
"20 182 LINE",
"387 182 LINE",
"387 57 LINE",
"305 49 LINE",
"305 0 LINE"
);
},
{
closed = 1;
nodes = (
"353 592 LINE",
"386 648 LINE",
"390 648 LINE",
"387 496 LINE",
"387 249 LINE",
"106 249 LINE"
);
}
);
width = 637;
},
{
anchors = (
{
name = bottom;
position = "{413, 0}";
},
{
name = top;
position = "{407, 714}";
}
);
layerId = "2DF4BED8-8C28-42AB-BF0E-54235D05585D";
paths = (
{
closed = 1;
nodes = (
"507 0 LINE",
"507 18 LINE",
"426 22 LINE",
"426 194 LINE",
"550 194 LINE",
"550 219 LINE",
"426 219 LINE",
"426 718 LINE",
"397 718 LINE",
"39 212 LINE",
"39 194 LINE",
"400 194 LINE",
"400 23 LINE",
"317 18 LINE",
"317 0 LINE"
);
},
{
closed = 1;
nodes = (
"352 616 LINE",
"399 684 LINE",
"401 684 LINE",
"400 524 LINE",
"400 219 LINE",
"73 219 LINE"
);
}
);
width = 600;
},
{
anchors = (
{
name = bottom;
position = "{400, 0}";
},
{
name = top;
position = "{394, 714}";
}
);
layerId = "E4ECE1AD-6BB8-4230-9342-12306ED3D56E";
paths = (
{
closed = 1;
nodes = (
"561 0 LINE",
"561 112 LINE",
"500 119 LINE",
"500 166 LINE",
"589 166 LINE",
"589 300 LINE",
"500 300 LINE",
"500 714 LINE",
"308 714 LINE",
"15 298 LINE",
"15 166 LINE",
"310 166 LINE",
"310 120 LINE",
"245 112 LINE",
"245 0 LINE"
);
},
{
closed = 1;
nodes = (
"270 430 LINE",
"308 493 LINE",
"313 493 LINE",
"310 382 LINE",
"310 300 LINE",
"182 300 LINE"
);
}
);
width = 619;
}
);
note = uni13CE;
unicode = 13CE;
},
{
glyphname = uni13CF;
lastChange = "2016-06-22 20:04:59 +0000";
layers = (
{
anchors = (
{
name = bottom;
position = "{336, 0}";
},
{
name = top;
position = "{195, 714}";
}
);
layerId = "7F3B6D50-898E-416D-BEA3-584E42DB8369";
paths = (
{
closed = 1;
nodes = (
"324 0 LINE SMOOTH",
"525 0 OFFCURVE",
"627 71 OFFCURVE",
"627 211 CURVE SMOOTH",
"627 348 OFFCURVE",
"538 411 OFFCURVE",
"341 411 CURVE SMOOTH",
"237 411 LINE",
"237 657 LINE",
"327 665 LINE",
"327 714 LINE",
"70 714 LINE",
"70 665 LINE",
"153 657 LINE",
"153 57 LINE",
"70 49 LINE",
"70 0 LINE"
);
},
{
closed = 1;
nodes = (
"237 348 LINE",
"340 348 LINE SMOOTH",
"486 348 OFFCURVE",
"542 310 OFFCURVE",
"542 209 CURVE SMOOTH",
"542 109 OFFCURVE",
"477 62 OFFCURVE",
"337 62 CURVE SMOOTH",
"237 62 LINE"
);
}
);
width = 672;
},
{
anchors = (
{
name = bottom;
position = "{313, 0}";
},
{
name = top;
position = "{175, 714}";
}
);
layerId = "2DF4BED8-8C28-42AB-BF0E-54235D05585D";
paths = (
{
closed = 1;
nodes = (
"349 0 LINE SMOOTH",
"491 0 OFFCURVE",
"571 67 OFFCURVE",
"571 203 CURVE SMOOTH",
"571 349 OFFCURVE",
"481 391 OFFCURVE",
"338 391 CURVE SMOOTH",
"188 391 LINE",
"188 691 LINE",
"270 696 LINE",
"270 714 LINE",
"80 714 LINE",
"80 696 LINE",
"162 691 LINE",
"162 23 LINE",
"80 18 LINE",
"80 0 LINE"
);
},
{
closed = 1;
nodes = (
"188 369 LINE",
"333 369 LINE SMOOTH",
"463 369 OFFCURVE",
"544 335 OFFCURVE",
"544 203 CURVE SMOOTH",
"544 75 OFFCURVE",
"478 22 OFFCURVE",
"342 22 CURVE SMOOTH",
"188 22 LINE"
);
}
);
width = 626;
},
{
anchors = (
{
name = bottom;
position = "{358, 0}";
},
{
name = top;
position = "{216, 714}";
}
);
layerId = "E4ECE1AD-6BB8-4230-9342-12306ED3D56E";
paths = (
{
closed = 1;
nodes = (
"388 0 LINE SMOOTH",
"569 0 OFFCURVE",
"676 89 OFFCURVE",
"676 239 CURVE SMOOTH",
"676 369 OFFCURVE",
"591 456 OFFCURVE",
"408 456 CURVE SMOOTH",
"314 456 LINE",
"314 594 LINE",
"379 602 LINE",
"379 714 LINE",
"55 714 LINE",
"55 602 LINE",
"121 594 LINE",
"121 120 LINE",
"55 112 LINE",
"55 0 LINE"
);
},
{
closed = 1;
nodes = (
"314 321 LINE",
"389 321 LINE SMOOTH",
"445 321 OFFCURVE",
"483 294 OFFCURVE",
"483 230 CURVE SMOOTH",
"483 163 OFFCURVE",
"449 135 OFFCURVE",
"385 135 CURVE SMOOTH",
"314 135 LINE"
);
}
);
width = 716;
}
);
leftKerningGroup = uni13BB;
leftMetricsKey = uni13BB;
note = uni13CF;
unicode = 13CF;
},
{
glyphname = uni13D0;
lastChange = "2016-06-22 20:04:59 +0000";
layers = (
{
anchors = (
{
name = bottom;
position = "{342, 0}";
},
{
name = top;
position = "{342, 714}";
}
);
layerId = "7F3B6D50-898E-416D-BEA3-584E42DB8369";
paths = (
{
closed = 1;
nodes = (
"467 0 LINE",
"467 49 LINE",
"384 57 LINE",
"384 657 LINE",
"467 665 LINE",
"467 714 LINE",
"217 714 LINE",
"217 665 LINE",
"300 657 LINE",
"300 57 LINE",
"217 49 LINE",
"217 0 LINE"
);
},
{
closed = 1;
nodes = (
"213 240 OFFCURVE",
"256 255 OFFCURVE",
"308 296 CURVE",
"308 373 LINE",
"268 327 OFFCURVE",
"214 301 OFFCURVE",
"175 301 CURVE SMOOTH",
"132 301 OFFCURVE",
"96 321 OFFCURVE",
"96 366 CURVE SMOOTH",
"96 373 OFFCURVE",
"97 380 OFFCURVE",
"99 388 CURVE",
"81 370 LINE",
"87 364 OFFCURVE",
"95 361 OFFCURVE",
"103 361 CURVE SMOOTH",
"123 361 OFFCURVE",
"143 374 OFFCURVE",
"143 401 CURVE SMOOTH",
"143 429 OFFCURVE",
"123 448 OFFCURVE",
"91 448 CURVE SMOOTH",
"52 448 OFFCURVE",
"24 416 OFFCURVE",
"24 369 CURVE SMOOTH",
"24 290 OFFCURVE",
"81 240 OFFCURVE",
"171 240 CURVE SMOOTH"
);
},
{
closed = 1;
nodes = (
"632 266 OFFCURVE",
"660 298 OFFCURVE",
"660 345 CURVE SMOOTH",
"660 424 OFFCURVE",
"603 474 OFFCURVE",
"513 474 CURVE SMOOTH",
"471 474 OFFCURVE",
"428 459 OFFCURVE",
"376 418 CURVE",
"376 341 LINE",
"415 387 OFFCURVE",
"469 413 OFFCURVE",
"509 413 CURVE SMOOTH",
"552 413 OFFCURVE",
"588 393 OFFCURVE",
"588 348 CURVE SMOOTH",
"588 341 OFFCURVE",
"587 334 OFFCURVE",
"585 326 CURVE",
"603 344 LINE",
"597 350 OFFCURVE",
"589 353 OFFCURVE",
"581 353 CURVE SMOOTH",
"561 353 OFFCURVE",
"541 340 OFFCURVE",
"541 313 CURVE SMOOTH",
"541 285 OFFCURVE",
"561 266 OFFCURVE",
"593 266 CURVE SMOOTH"
);
}
);
width = 684;
},
{
anchors = (
{
name = bottom;
position = "{300, 0}";
},
{
name = top;
position = "{300, 714}";
}
);
layerId = "2DF4BED8-8C28-42AB-BF0E-54235D05585D";
paths = (
{
closed = 1;
nodes = (
"397 0 LINE",
"397 18 LINE",
"314 23 LINE",
"314 691 LINE",
"397 696 LINE",
"397 714 LINE",
"205 714 LINE",
"205 696 LINE",
"288 691 LINE",
"288 23 LINE",
"205 18 LINE",
"205 0 LINE"
);
},
{
closed = 1;
nodes = (
"195 284 OFFCURVE",
"243 300 OFFCURVE",
"297 342 CURVE",
"296 366 LINE",
"246 322 OFFCURVE",
"191 303 OFFCURVE",
"145 303 CURVE SMOOTH",
"88 303 OFFCURVE",
"53 331 OFFCURVE",
"53 375 CURVE SMOOTH",
"53 381 OFFCURVE",
"54 387 OFFCURVE",
"57 392 CURVE",
"49 389 LINE",
"54 379 OFFCURVE",
"61 374 OFFCURVE",
"72 374 CURVE SMOOTH",
"87 374 OFFCURVE",
"97 385 OFFCURVE",
"97 399 CURVE SMOOTH",
"97 414 OFFCURVE",
"86 426 OFFCURVE",
"68 426 CURVE SMOOTH",
"47 426 OFFCURVE",
"30 411 OFFCURVE",
"30 376 CURVE SMOOTH",
"30 321 OFFCURVE",
"71 284 OFFCURVE",
"146 284 CURVE SMOOTH"
);
},
{
closed = 1;
nodes = (
"553 288 OFFCURVE",
"570 303 OFFCURVE",
"570 338 CURVE SMOOTH",
"570 393 OFFCURVE",
"529 430 OFFCURVE",
"454 430 CURVE SMOOTH",
"405 430 OFFCURVE",
"355 414 OFFCURVE",
"303 372 CURVE",
"304 348 LINE",
"354 392 OFFCURVE",
"409 411 OFFCURVE",
"455 411 CURVE SMOOTH",
"512 411 OFFCURVE",
"547 383 OFFCURVE",
"547 339 CURVE SMOOTH",
"547 333 OFFCURVE",
"546 327 OFFCURVE",
"543 322 CURVE",
"551 325 LINE",
"546 335 OFFCURVE",
"539 340 OFFCURVE",
"528 340 CURVE SMOOTH",
"513 340 OFFCURVE",
"503 329 OFFCURVE",
"503 315 CURVE SMOOTH",
"503 300 OFFCURVE",
"514 288 OFFCURVE",
"532 288 CURVE SMOOTH"
);
}
);
width = 600;
},
{
anchors = (
{
name = bottom;
position = "{367, 0}";
},
{
name = top;
position = "{367, 714}";
}
);
layerId = "E4ECE1AD-6BB8-4230-9342-12306ED3D56E";
paths = (
{
closed = 1;
nodes = (
"536 0 LINE",
"536 112 LINE",
"463 119 LINE",
"463 595 LINE",
"536 602 LINE",
"536 714 LINE",
"196 714 LINE",
"196 602 LINE",
"269 593 LINE",
"269 121 LINE",
"196 112 LINE",
"196 0 LINE"
);
},
{
closed = 1;
nodes = (
"242 225 OFFCURVE",
"293 248 OFFCURVE",
"320 272 CURVE",
"320 404 LINE",
"289 371 OFFCURVE",
"248 347 OFFCURVE",
"205 347 CURVE SMOOTH",
"166 347 OFFCURVE",
"154 363 OFFCURVE",
"154 390 CURVE SMOOTH",
"154 394 OFFCURVE",
"155 401 OFFCURVE",
"156 405 CURVE",
"118 371 LINE",
"124 361 OFFCURVE",
"137 356 OFFCURVE",
"149 356 CURVE SMOOTH",
"183 356 OFFCURVE",
"205 377 OFFCURVE",
"205 414 CURVE SMOOTH",
"205 457 OFFCURVE",
"173 486 OFFCURVE",
"122 486 CURVE SMOOTH",
"57 486 OFFCURVE",
"20 440 OFFCURVE",
"20 375 CURVE SMOOTH",
"20 283 OFFCURVE",
"74 225 OFFCURVE",
"184 225 CURVE SMOOTH"
);
},
{
closed = 1;
nodes = (
"676 230 OFFCURVE",
"713 276 OFFCURVE",
"713 341 CURVE SMOOTH",
"713 433 OFFCURVE",
"659 491 OFFCURVE",
"549 491 CURVE SMOOTH",
"491 491 OFFCURVE",
"440 468 OFFCURVE",
"414 444 CURVE",
"414 312 LINE",
"444 345 OFFCURVE",
"485 369 OFFCURVE",
"528 369 CURVE SMOOTH",
"567 369 OFFCURVE",
"579 353 OFFCURVE",
"579 326 CURVE SMOOTH",
"579 322 OFFCURVE",
"578 315 OFFCURVE",
"577 311 CURVE",
"615 345 LINE",
"609 355 OFFCURVE",
"596 360 OFFCURVE",
"584 360 CURVE SMOOTH",
"550 360 OFFCURVE",
"528 339 OFFCURVE",
"528 302 CURVE SMOOTH",
"528 259 OFFCURVE",
"560 230 OFFCURVE",
"611 230 CURVE SMOOTH"
);
}
);
width = 733;
}
);
note = uni13D0;
unicode = 13D0;
},
{
glyphname = uni13D1;
lastChange = "2016-06-22 20:04:59 +0000";
layers = (
{
anchors = (
{
name = bottom;
position = "{359, 0}";
},
{
name = top;
position = "{439, 714}";
}
);
layerId = "7F3B6D50-898E-416D-BEA3-584E42DB8369";
paths = (
{
closed = 1;
nodes = (
"461 -8 OFFCURVE",
"522 58 OFFCURVE",
"522 148 CURVE SMOOTH",
"522 252 OFFCURVE",
"456 303 OFFCURVE",
"322 303 CURVE SMOOTH",
"295 303 LINE",
"306 349 OFFCURVE",
"316 395 OFFCURVE",
"327 441 CURVE",
"482 476 OFFCURVE",
"559 625 OFFCURVE",
"675 625 CURVE SMOOTH",
"736 625 OFFCURVE",
"768 591 OFFCURVE",
"768 543 CURVE SMOOTH",
"768 489 OFFCURVE",
"731 452 OFFCURVE",
"674 443 CURVE",
"674 382 LINE",
"780 394 OFFCURVE",
"840 456 OFFCURVE",
"840 550 CURVE SMOOTH",
"840 641 OFFCURVE",
"777 695 OFFCURVE",
"679 695 CURVE SMOOTH",
"521 695 OFFCURVE",
"465 557 OFFCURVE",
"339 509 CURVE",
"343 529 OFFCURVE",
"345 547 OFFCURVE",
"345 570 CURVE SMOOTH",
"345 674 OFFCURVE",
"291 725 OFFCURVE",
"194 725 CURVE SMOOTH",
"104 725 OFFCURVE",
"42 665 OFFCURVE",
"42 581 CURVE SMOOTH",
"42 484 OFFCURVE",
"101 425 OFFCURVE",
"216 425 CURVE SMOOTH",
"225 425 OFFCURVE",
"234 425 OFFCURVE",
"244 426 CURVE",
"218 319 OFFCURVE",
"195 231 OFFCURVE",
"195 163 CURVE SMOOTH",
"195 53 OFFCURVE",
"254 -8 OFFCURVE",
"359 -8 CURVE SMOOTH"
);
},
{
closed = 1;
nodes = (
"302 54 OFFCURVE",
"273 90 OFFCURVE",
"273 168 CURVE SMOOTH",
"273 194 OFFCURVE",
"277 221 OFFCURVE",
"283 248 CURVE",
"301 248 LINE SMOOTH",
"404 248 OFFCURVE",
"448 217 OFFCURVE",
"448 144 CURVE SMOOTH",
"448 89 OFFCURVE",
"415 54 OFFCURVE",
"363 54 CURVE SMOOTH"
);
},
{
closed = 1;
nodes = (
"145 488 OFFCURVE",
"108 518 OFFCURVE",
"108 583 CURVE SMOOTH",
"108 632 OFFCURVE",
"142 667 OFFCURVE",
"191 667 CURVE SMOOTH",
"242 667 OFFCURVE",
"267 634 OFFCURVE",
"267 565 CURVE SMOOTH",
"267 543 OFFCURVE",
"263 515 OFFCURVE",
"258 491 CURVE",
"246 489 OFFCURVE",
"235 488 OFFCURVE",
"221 488 CURVE SMOOTH"
);
}
);
width = 877;
},
{
anchors = (
{
name = bottom;
position = "{391, 0}";
},
{
name = top;
position = "{443, 714}";
}
);
layerId = "2DF4BED8-8C28-42AB-BF0E-54235D05585D";
paths = (
{
closed = 1;
nodes = (
"477 -8 OFFCURVE",
"531 56 OFFCURVE",
"531 143 CURVE SMOOTH",
"531 234 OFFCURVE",
"472 292 OFFCURVE",
"336 292 CURVE SMOOTH",
"282 292 LINE",
"294 349 OFFCURVE",
"314 411 OFFCURVE",
"330 474 CURVE",
"468 521 OFFCURVE",
"546 663 OFFCURVE",
"684 663 CURVE SMOOTH",
"763 663 OFFCURVE",
"820 624 OFFCURVE",
"820 543 CURVE SMOOTH",
"820 460 OFFCURVE",
"766 414 OFFCURVE",
"700 409 CURVE",
"700 384 LINE",
"779 390 OFFCURVE",
"846 447 OFFCURVE",
"846 545 CURVE SMOOTH",
"846 637 OFFCURVE",
"779 688 OFFCURVE",
"685 688 CURVE SMOOTH",
"536 688 OFFCURVE",
"458 554 OFFCURVE",
"336 504 CURVE",
"343 533 OFFCURVE",
"347 560 OFFCURVE",
"347 590 CURVE SMOOTH",
"347 689 OFFCURVE",
"291 746 OFFCURVE",
"204 746 CURVE SMOOTH",
"117 746 OFFCURVE",
"60 689 OFFCURVE",
"60 602 CURVE SMOOTH",
"60 513 OFFCURVE",
"116 454 OFFCURVE",
"221 454 CURVE SMOOTH",
"248 454 OFFCURVE",
"277 458 OFFCURVE",
"301 464 CURVE",
"284 391 OFFCURVE",
"240 268 OFFCURVE",
"240 161 CURVE SMOOTH",
"240 63 OFFCURVE",
"286 -8 OFFCURVE",
"388 -8 CURVE SMOOTH"
);
},
{
closed = 1;
nodes = (
"301 17 OFFCURVE",
"266 77 OFFCURVE",
"266 164 CURVE SMOOTH",
"266 198 OFFCURVE",
"270 233 OFFCURVE",
"277 268 CURVE",
"330 268 LINE SMOOTH",
"454 268 OFFCURVE",
"505 219 OFFCURVE",
"505 141 CURVE SMOOTH",
"505 69 OFFCURVE",
"466 17 OFFCURVE",
"389 17 CURVE SMOOTH"
);
},
{
closed = 1;
nodes = (
"129 479 OFFCURVE",
"86 526 OFFCURVE",
"86 601 CURVE SMOOTH",
"86 677 OFFCURVE",
"134 721 OFFCURVE",
"204 721 CURVE SMOOTH",
"274 721 OFFCURVE",
"321 677 OFFCURVE",
"321 588 CURVE SMOOTH",
"321 556 OFFCURVE",
"316 525 OFFCURVE",
"308 492 CURVE",
"283 484 OFFCURVE",
"253 479 OFFCURVE",
"225 479 CURVE SMOOTH"
);
}
);
width = 886;
},
{
anchors = (
{
name = bottom;
position = "{448, 0}";
},
{
name = top;
position = "{480, 714}";
}
);
layerId = "E4ECE1AD-6BB8-4230-9342-12306ED3D56E";
paths = (
{
closed = 1;
nodes = (
"568 -8 OFFCURVE",
"652 67 OFFCURVE",
"652 177 CURVE SMOOTH",
"652 272 OFFCURVE",
"597 339 OFFCURVE",
"461 339 CURVE SMOOTH",
"420 339 LINE",
"423 355 OFFCURVE",
"428 371 OFFCURVE",
"432 385 CURVE",
"589 432 OFFCURVE",
"636 546 OFFCURVE",
"713 546 CURVE SMOOTH",
"747 546 OFFCURVE",
"766 530 OFFCURVE",
"766 502 CURVE SMOOTH",
"766 464 OFFCURVE",
"735 445 OFFCURVE",
"692 445 CURVE",
"692 324 LINE",
"840 324 OFFCURVE",
"931 389 OFFCURVE",
"931 518 CURVE SMOOTH",
"931 629 OFFCURVE",
"861 698 OFFCURVE",
"733 698 CURVE SMOOTH",
"562 698 OFFCURVE",
"512 586 OFFCURVE",
"454 546 CURVE",
"454 548 OFFCURVE",
"454 550 OFFCURVE",
"454 553 CURVE SMOOTH",
"454 640 OFFCURVE",
"397 725 OFFCURVE",
"252 725 CURVE SMOOTH",
"123 725 OFFCURVE",
"34 661 OFFCURVE",
"34 542 CURVE SMOOTH",
"34 438 OFFCURVE",
"100 365 OFFCURVE",
"226 365 CURVE SMOOTH",
"237 365 OFFCURVE",
"247 365 OFFCURVE",
"256 366 CURVE",
"243 318 OFFCURVE",
"228 256 OFFCURVE",
"228 196 CURVE SMOOTH",
"228 57 OFFCURVE",
"308 -8 OFFCURVE",
"452 -8 CURVE SMOOTH"
);
},
{
closed = 1;
nodes = (
"420 115 OFFCURVE",
"399 133 OFFCURVE",
"399 187 CURVE SMOOTH",
"399 200 OFFCURVE",
"399 212 OFFCURVE",
"400 223 CURVE",
"438 223 LINE SMOOTH",
"469 223 OFFCURVE",
"502 211 OFFCURVE",
"502 170 CURVE SMOOTH",
"502 139 OFFCURVE",
"481 115 OFFCURVE",
"451 115 CURVE SMOOTH"
);
},
{
closed = 1;
nodes = (
"217 493 OFFCURVE",
"195 512 OFFCURVE",
"195 550 CURVE SMOOTH",
"195 579 OFFCURVE",
"212 601 OFFCURVE",
"242 601 CURVE SMOOTH",
"272 601 OFFCURVE",
"288 579 OFFCURVE",
"288 540 CURVE SMOOTH",
"288 525 OFFCURVE",
"286 510 OFFCURVE",
"283 495 CURVE",
"273 494 OFFCURVE",
"261 493 OFFCURVE",
"250 493 CURVE SMOOTH"
);
}
);
width = 959;
}
);
note = uni13D1;
rightKerningGroup = uni13B9;
unicode = 13D1;
},
{
glyphname = uni13D2;
lastChange = "2016-06-22 20:04:59 +0000";
layers = (
{
anchors = (
{
name = bottom;
position = "{374, 0}";
},
{
name = top;
position = "{374, 714}";
}
);
layerId = "7F3B6D50-898E-416D-BEA3-584E42DB8369";
paths = (
{
closed = 1;
nodes = (
"325 0 LINE",
"325 49 LINE",
"238 57 LINE",
"238 652 LINE",
"373 652 LINE SMOOTH",
"522 652 OFFCURVE",
"571 596 OFFCURVE",
"571 503 CURVE SMOOTH",
"571 420 OFFCURVE",
"538 371 OFFCURVE",
"461 356 CURVE",
"430 416 LINE",
"349 416 LINE",
"524 55 LINE",
"447 49 LINE",
"447 0 LINE",
"705 0 LINE",
"705 49 LINE",
"618 55 LINE",
"485 310 LINE",
"601 329 OFFCURVE",
"659 399 OFFCURVE",
"659 512 CURVE SMOOTH",
"659 633 OFFCURVE",
"579 714 OFFCURVE",
"390 714 CURVE SMOOTH",
"70 714 LINE",
"70 665 LINE",
"153 657 LINE",
"153 57 LINE",
"70 49 LINE",
"70 0 LINE"
);
}
);
width = 747;
},
{
anchors = (
{
name = bottom;
position = "{339, 0}";
},
{
name = top;
position = "{339, 714}";
}
);
layerId = "2DF4BED8-8C28-42AB-BF0E-54235D05585D";
paths = (
{
closed = 1;
nodes = (
"261 0 LINE",
"261 18 LINE",
"183 22 LINE",
"183 692 LINE",
"345 692 LINE SMOOTH",
"511 692 OFFCURVE",
"562 621 OFFCURVE",
"562 522 CURVE SMOOTH",
"562 424 OFFCURVE",
"504 366 OFFCURVE",
"397 352 CURVE",
"367 415 LINE",
"340 415 LINE",
"525 22 LINE",
"448 18 LINE",
"448 0 LINE",
"628 0 LINE",
"628 18 LINE",
"553 22 LINE",
"407 329 LINE",
"523 347 OFFCURVE",
"589 417 OFFCURVE",
"589 523 CURVE SMOOTH",
"589 637 OFFCURVE",
"528 714 OFFCURVE",
"350 714 CURVE SMOOTH",
"80 714 LINE",
"80 696 LINE",
"157 692 LINE",
"157 22 LINE",
"80 18 LINE",
"80 0 LINE"
);
}
);
width = 678;
},
{
anchors = (
{
name = bottom;
position = "{383, 0}";
},
{
name = top;
position = "{383, 714}";
}
);
layerId = "E4ECE1AD-6BB8-4230-9342-12306ED3D56E";
paths = (
{
closed = 1;
nodes = (
"359 0 LINE",
"359 112 LINE",
"311 118 LINE",
"311 580 LINE",
"401 580 LINE SMOOTH",
"475 580 OFFCURVE",
"536 546 OFFCURVE",
"536 464 CURVE SMOOTH",
"536 427 OFFCURVE",
"529 400 OFFCURVE",
"516 381 CURVE",
"492 425 LINE",
"324 425 LINE",
"472 118 LINE",
"423 112 LINE",
"423 0 LINE",
"726 0 LINE",
"726 112 LINE",
"659 120 LINE",
"576 271 LINE",
"656 307 OFFCURVE",
"715 373 OFFCURVE",
"715 480 CURVE SMOOTH",
"715 644 OFFCURVE",
"611 714 OFFCURVE",
"425 714 CURVE SMOOTH",
"55 714 LINE",
"55 602 LINE",
"118 595 LINE",
"118 119 LINE",
"55 112 LINE",
"55 0 LINE"
);
}
);
width = 766;
}
);
leftKerningGroup = uni13BB;
leftMetricsKey = uni13BB;
note = uni13D2;
unicode = 13D2;
},
{
glyphname = uni13D3;
lastChange = "2016-06-22 20:04:59 +0000";
layers = (
{
anchors = (
{
name = bottom;
position = "{363, 0}";
},
{
name = top;
position = "{180, 714}";
}
);
layerId = "7F3B6D50-898E-416D-BEA3-584E42DB8369";
paths = (
{
closed = 1;
nodes = (
"502 -11 OFFCURVE",
"588 82 OFFCURVE",
"588 232 CURVE SMOOTH",
"588 346 OFFCURVE",
"541 408 OFFCURVE",
"455 408 CURVE SMOOTH",
"380 408 OFFCURVE",
"336 355 OFFCURVE",
"336 265 CURVE SMOOTH",
"336 243 OFFCURVE",
"337 222 OFFCURVE",
"338 203 CURVE",
"397 203 LINE",
"398 223 OFFCURVE",
"399 243 OFFCURVE",
"399 263 CURVE SMOOTH",
"399 316 OFFCURVE",
"418 343 OFFCURVE",
"454 343 CURVE SMOOTH",
"494 343 OFFCURVE",
"514 307 OFFCURVE",
"514 236 CURVE SMOOTH",
"514 120 OFFCURVE",
"459 55 OFFCURVE",
"362 55 CURVE SMOOTH",
"268 55 OFFCURVE",
"222 121 OFFCURVE",
"222 257 CURVE SMOOTH",
"222 657 LINE",
"305 665 LINE",
"305 714 LINE",
"55 714 LINE",
"55 665 LINE",
"138 657 LINE",
"138 266 LINE SMOOTH",
"138 76 OFFCURVE",
"208 -11 OFFCURVE",
"361 -11 CURVE SMOOTH"
);
}
);
width = 630;
},
{
anchors = (
{
name = bottom;
position = "{351, 0}";
},
{
name = top;
position = "{155, 714}";
}
);
layerId = "2DF4BED8-8C28-42AB-BF0E-54235D05585D";
paths = (
{
closed = 1;
nodes = (
"483 -11 OFFCURVE",
"559 85 OFFCURVE",
"559 222 CURVE SMOOTH",
"559 349 OFFCURVE",
"511 392 OFFCURVE",
"444 392 CURVE SMOOTH",
"380 392 OFFCURVE",
"338 352 OFFCURVE",
"338 261 CURVE SMOOTH",
"338 243 OFFCURVE",
"339 228 OFFCURVE",
"340 219 CURVE",
"367 219 LINE",
"366 230 OFFCURVE",
"365 245 OFFCURVE",
"365 258 CURVE SMOOTH",
"365 338 OFFCURVE",
"394 367 OFFCURVE",
"443 367 CURVE SMOOTH",
"494 367 OFFCURVE",
"532 333 OFFCURVE",
"532 222 CURVE SMOOTH",
"532 95 OFFCURVE",
"467 13 OFFCURVE",
"353 13 CURVE SMOOTH",
"233 13 OFFCURVE",
"168 82 OFFCURVE",
"168 251 CURVE SMOOTH",
"168 691 LINE",
"251 696 LINE",
"251 714 LINE",
"60 714 LINE",
"60 696 LINE",
"142 691 LINE",
"142 248 LINE SMOOTH",
"142 67 OFFCURVE",
"220 -11 OFFCURVE",
"352 -11 CURVE SMOOTH"
);
}
);
width = 614;
},
{
anchors = (
{
name = bottom;
position = "{400, 0}";
},
{
name = top;
position = "{200, 714}";
}
);
layerId = "E4ECE1AD-6BB8-4230-9342-12306ED3D56E";
paths = (
{
closed = 1;
nodes = (
"590 -11 OFFCURVE",
"688 103 OFFCURVE",
"688 270 CURVE SMOOTH",
"688 384 OFFCURVE",
"635 472 OFFCURVE",
"508 472 CURVE SMOOTH",
"400 472 OFFCURVE",
"338 406 OFFCURVE",
"338 289 CURVE SMOOTH",
"338 268 OFFCURVE",
"340 231 OFFCURVE",
"342 217 CURVE",
"478 217 LINE",
"477 228 OFFCURVE",
"476 246 OFFCURVE",
"476 276 CURVE SMOOTH",
"476 317 OFFCURVE",
"489 334 OFFCURVE",
"508 334 CURVE SMOOTH",
"526 334 OFFCURVE",
"538 310 OFFCURVE",
"538 252 CURVE SMOOTH",
"538 160 OFFCURVE",
"495 121 OFFCURVE",
"428 121 CURVE SMOOTH",
"334 121 OFFCURVE",
"298 173 OFFCURVE",
"298 285 CURVE SMOOTH",
"298 593 LINE",
"371 602 LINE",
"371 714 LINE",
"40 714 LINE",
"40 602 LINE",
"107 594 LINE",
"107 296 LINE SMOOTH",
"107 84 OFFCURVE",
"207 -11 OFFCURVE",
"402 -11 CURVE SMOOTH"
);
}
);
width = 732;
}
);
leftMetricsKey = uni13CC;
note = uni13D3;
unicode = 13D3;
},
{
glyphname = uni13D4;
lastChange = "2016-06-22 20:04:59 +0000";
layers = (
{
anchors = (
{
name = bottom;
position = "{498, 0}";
},
{
name = top;
position = "{498, 714}";
}
);
layerId = "7F3B6D50-898E-416D-BEA3-584E42DB8369";
paths = (
{
closed = 1;
nodes = (
"380 0 LINE",
"488 274 LINE",
"576 0 LINE",
"686 0 LINE",
"969 714 LINE",
"879 714 LINE",
"690 206 LINE SMOOTH",
"672 158 OFFCURVE",
"651 97 OFFCURVE",
"638 56 CURVE",
"634 56 LINE",
"626 85 OFFCURVE",
"611 132 OFFCURVE",
"592 192 CURVE SMOOTH",
"537 362 LINE",
"673 714 LINE",
"591 714 LINE",
"501 457 LINE",
"425 714 LINE",
"337 714 LINE",
"453 365 LINE",
"386 196 LINE SMOOTH",
"367 149 OFFCURVE",
"352 103 OFFCURVE",
"334 56 CURVE",
"330 56 LINE",
"322 86 OFFCURVE",
"307 136 OFFCURVE",
"285 202 CURVE SMOOTH",
"120 714 LINE",
"26 714 LINE",
"270 0 LINE"
);
}
);
width = 995;
},
{
anchors = (
{
name = bottom;
position = "{457, 0}";
},
{
name = top;
position = "{457, 714}";
}
);
layerId = "2DF4BED8-8C28-42AB-BF0E-54235D05585D";
paths = (
{
closed = 1;
nodes = (
"292 0 LINE",
"445 373 LINE",
"573 0 LINE",
"598 0 LINE",
"891 714 LINE",
"863 714 LINE",
"629 143 LINE SMOOTH",
"612 102 OFFCURVE",
"598 65 OFFCURVE",
"588 40 CURVE",
"586 40 LINE",
"578 66 OFFCURVE",
"564 109 OFFCURVE",
"553 143 CURVE SMOOTH",
"461 411 LINE",
"585 714 LINE",
"557 714 LINE",
"448 448 LINE",
"356 714 LINE",
"328 714 LINE",
"432 410 LINE",
"323 143 LINE SMOOTH",
"306 104 OFFCURVE",
"292 66 OFFCURVE",
"282 40 CURVE",
"280 40 LINE",
"272 68 OFFCURVE",
"257 110 OFFCURVE",
"247 143 CURVE SMOOTH",
"50 714 LINE",
"22 714 LINE",
"267 0 LINE"
);
}
);
width = 913;
},
{
anchors = (
{
name = bottom;
position = "{591, 0}";
},
{
name = top;
position = "{591, 714}";
}
);
layerId = "E4ECE1AD-6BB8-4230-9342-12306ED3D56E";
paths = (
{
closed = 1;
nodes = (
"487 0 LINE",
"564 216 LINE",
"626 0 LINE",
"876 0 LINE",
"1169 714 LINE",
"960 714 LINE",
"786 263 LINE SMOOTH",
"772 227 OFFCURVE",
"756 176 OFFCURVE",
"742 133 CURVE",
"740 133 LINE",
"729 177 OFFCURVE",
"711 249 OFFCURVE",
"700 286 CURVE SMOOTH",
"672 378 LINE",
"816 714 LINE",
"632 714 LINE",
"572 543 LINE",
"529 714 LINE",
"351 714 LINE",
"469 369 LINE",
"438 284 LINE SMOOTH",
"425 247 OFFCURVE",
"403 179 OFFCURVE",
"389 134 CURVE",
"387 134 LINE",
"375 185 OFFCURVE",
"355 255 OFFCURVE",
"345 292 CURVE SMOOTH",
"227 714 LINE",
"8 714 LINE",
"232 0 LINE"
);
}
);
width = 1182;
}
);
leftKerningGroup = uni13B3;
note = uni13D4;
unicode = 13D4;
},
{
glyphname = uni13D5;
lastChange = "2016-06-22 20:04:59 +0000";
layers = (
{
anchors = (
{
name = bottom;
position = "{318, 0}";
},
{
name = top;
position = "{318, 714}";
}
);
layerId = "7F3B6D50-898E-416D-BEA3-584E42DB8369";
paths = (
{
closed = 1;
nodes = (
"440 -11 OFFCURVE",
"538 51 OFFCURVE",
"550 155 CURVE",
"676 155 LINE",
"676 217 LINE",
"550 217 LINE",
"538 304 OFFCURVE",
"475 339 OFFCURVE",
"343 390 CURVE SMOOTH",
"238 431 OFFCURVE",
"175 460 OFFCURVE",
"175 542 CURVE SMOOTH",
"175 613 OFFCURVE",
"234 660 OFFCURVE",
"323 660 CURVE SMOOTH",
"422 660 OFFCURVE",
"477 614 OFFCURVE",
"477 535 CURVE SMOOTH",
"477 519 LINE",
"676 519 LINE",
"676 582 LINE",
"545 582 LINE",
"528 677 OFFCURVE",
"454 725 OFFCURVE",
"324 725 CURVE SMOOTH",
"191 725 OFFCURVE",
"95 645 OFFCURVE",
"95 533 CURVE SMOOTH",
"95 421 OFFCURVE",
"161 378 OFFCURVE",
"277 333 CURVE SMOOTH",
"402 284 OFFCURVE",
"468 258 OFFCURVE",
"468 180 CURVE SMOOTH",
"468 100 OFFCURVE",
"404 56 OFFCURVE",
"290 56 CURVE SMOOTH",
"235 56 OFFCURVE",
"190 65 OFFCURVE",
"153 86 CURVE",
"147 174 LINE",
"83 174 LINE",
"83 42 LINE",
"127 12 OFFCURVE",
"214 -11 OFFCURVE",
"287 -11 CURVE SMOOTH"
);
}
);
width = 716;
},
{
anchors = (
{
name = bottom;
position = "{275, 0}";
},
{
name = top;
position = "{300, 714}";
}
);
layerId = "2DF4BED8-8C28-42AB-BF0E-54235D05585D";
paths = (
{
closed = 1;
nodes = (
"388 -10 OFFCURVE",
"481 52 OFFCURVE",
"486 170 CURVE",
"675 170 LINE",
"675 194 LINE",
"486 194 LINE",
"479 301 OFFCURVE",
"395 332 OFFCURVE",
"288 377 CURVE SMOOTH",
"193 417 OFFCURVE",
"110 440 OFFCURVE",
"110 549 CURVE SMOOTH",
"110 649 OFFCURVE",
"188 703 OFFCURVE",
"296 703 CURVE SMOOTH",
"406 703 OFFCURVE",
"469 653 OFFCURVE",
"469 555 CURVE SMOOTH",
"469 542 LINE",
"675 542 LINE",
"675 566 LINE",
"494 566 LINE",
"493 672 OFFCURVE",
"414 724 OFFCURVE",
"300 724 CURVE SMOOTH",
"179 724 OFFCURVE",
"83 667 OFFCURVE",
"83 547 CURVE SMOOTH",
"83 428 OFFCURVE",
"166 399 OFFCURVE",
"274 354 CURVE SMOOTH",
"383 308 OFFCURVE",
"459 280 OFFCURVE",
"459 181 CURVE SMOOTH",
"459 65 OFFCURVE",
"375 13 OFFCURVE",
"263 13 CURVE SMOOTH",
"194 13 OFFCURVE",
"139 28 OFFCURVE",
"102 44 CURVE",
"94 170 LINE",
"75 170 LINE",
"75 26 LINE",
"118 8 OFFCURVE",
"177 -10 OFFCURVE",
"261 -10 CURVE SMOOTH"
);
}
);
width = 715;
},
{
anchors = (
{
name = bottom;
position = "{303, 0}";
},
{
name = top;
position = "{327, 714}";
}
);
layerId = "E4ECE1AD-6BB8-4230-9342-12306ED3D56E";
paths = (
{
closed = 1;
nodes = (
"439 -10 OFFCURVE",
"528 59 OFFCURVE",
"557 146 CURVE",
"673 146 LINE",
"673 270 LINE",
"565 270 LINE",
"550 349 OFFCURVE",
"496 389 OFFCURVE",
"375 431 CURVE SMOOTH",
"278 465 OFFCURVE",
"237 481 OFFCURVE",
"237 533 CURVE SMOOTH",
"237 575 OFFCURVE",
"266 602 OFFCURVE",
"316 602 CURVE SMOOTH",
"372 602 OFFCURVE",
"399 575 OFFCURVE",
"399 520 CURVE SMOOTH",
"399 491 LINE",
"673 491 LINE",
"673 615 LINE",
"566 615 LINE",
"529 689 OFFCURVE",
"450 724 OFFCURVE",
"330 724 CURVE SMOOTH",
"158 724 OFFCURVE",
"50 653 OFFCURVE",
"50 515 CURVE SMOOTH",
"50 389 OFFCURVE",
"117 340 OFFCURVE",
"236 297 CURVE SMOOTH",
"348 256 OFFCURVE",
"382 239 OFFCURVE",
"382 188 CURVE SMOOTH",
"382 146 OFFCURVE",
"348 117 OFFCURVE",
"281 117 CURVE SMOOTH",
"237 117 OFFCURVE",
"195 129 OFFCURVE",
"167 145 CURVE",
"157 239 LINE",
"50 239 LINE",
"50 39 LINE",
"110 11 OFFCURVE",
"176 -10 OFFCURVE",
"279 -10 CURVE SMOOTH"
);
}
);
width = 701;
}
);
leftKerningGroup = uni13DA;
note = uni13D5;
unicode = 13D5;
},
{
glyphname = uni13D6;
lastChange = "2016-06-22 20:04:59 +0000";
layers = (
{
anchors = (
{
name = bottom;
position = "{506, 0}";
},
{
name = top;
position = "{344, 714}";
}
);
layerId = "7F3B6D50-898E-416D-BEA3-584E42DB8369";
paths = (
{
closed = 1;
nodes = (
"636 -11 OFFCURVE",
"723 80 OFFCURVE",
"723 208 CURVE SMOOTH",
"723 340 OFFCURVE",
"651 419 OFFCURVE",
"529 419 CURVE SMOOTH",
"464 419 OFFCURVE",
"411 391 OFFCURVE",
"388 350 CURVE",
"384 350 LINE",
"385 379 OFFCURVE",
"386 402 OFFCURVE",
"386 432 CURVE SMOOTH",
"386 652 LINE",
"652 652 LINE",
"652 714 LINE",
"34 714 LINE",
"34 539 LINE",
"97 539 LINE",
"105 652 LINE",
"302 652 LINE",
"302 230 LINE SMOOTH",
"302 84 OFFCURVE",
"375 -11 OFFCURVE",
"515 -11 CURVE SMOOTH"
);
},
{
closed = 1;
nodes = (
"433 55 OFFCURVE",
"387 109 OFFCURVE",
"387 210 CURVE SMOOTH",
"387 297 OFFCURVE",
"435 354 OFFCURVE",
"519 354 CURVE SMOOTH",
"600 354 OFFCURVE",
"644 302 OFFCURVE",
"644 208 CURVE SMOOTH",
"644 113 OFFCURVE",
"593 55 OFFCURVE",
"514 55 CURVE SMOOTH"
);
}
);
width = 789;
},
{
anchors = (
{
name = bottom;
position = "{493, 0}";
},
{
name = top;
position = "{314, 714}";
}
);
layerId = "2DF4BED8-8C28-42AB-BF0E-54235D05585D";
paths = (
{
closed = 1;
nodes = (
"599 -11 OFFCURVE",
"679 70 OFFCURVE",
"679 201 CURVE SMOOTH",
"679 322 OFFCURVE",
"620 406 OFFCURVE",
"493 406 CURVE SMOOTH",
"410 406 OFFCURVE",
"355 364 OFFCURVE",
"328 310 CURVE",
"325 310 LINE",
"326 341 OFFCURVE",
"327 384 OFFCURVE",
"327 411 CURVE SMOOTH",
"327 693 LINE",
"604 693 LINE",
"604 714 LINE",
"40 714 LINE",
"40 556 LINE",
"59 556 LINE",
"65 693 LINE",
"301 693 LINE",
"301 205 LINE SMOOTH",
"301 71 OFFCURVE",
"368 -11 OFFCURVE",
"489 -11 CURVE SMOOTH"
);
},
{
closed = 1;
nodes = (
"386 13 OFFCURVE",
"327 86 OFFCURVE",
"327 206 CURVE SMOOTH",
"327 300 OFFCURVE",
"382 382 OFFCURVE",
"494 382 CURVE SMOOTH",
"600 382 OFFCURVE",
"653 311 OFFCURVE",
"653 199 CURVE SMOOTH",
"653 81 OFFCURVE",
"582 13 OFFCURVE",
"490 13 CURVE SMOOTH"
);
}
);
width = 748;
},
{
anchors = (
{
name = bottom;
position = "{546, 0}";
},
{
name = top;
position = "{377, 714}";
}
);
layerId = "E4ECE1AD-6BB8-4230-9342-12306ED3D56E";
paths = (
{
closed = 1;
nodes = (
"708 -9 OFFCURVE",
"810 79 OFFCURVE",
"810 228 CURVE SMOOTH",
"810 366 OFFCURVE",
"728 437 OFFCURVE",
"604 437 CURVE SMOOTH",
"522 437 OFFCURVE",
"479 405 OFFCURVE",
"463 388 CURVE",
"460 388 LINE",
"462 412 OFFCURVE",
"462 431 OFFCURVE",
"462 456 CURVE SMOOTH",
"462 579 LINE",
"688 579 LINE",
"688 714 LINE",
"40 714 LINE",
"40 470 LINE",
"142 470 LINE",
"156 579 LINE",
"269 579 LINE",
"269 268 LINE SMOOTH",
"269 75 OFFCURVE",
"363 -9 OFFCURVE",
"538 -9 CURVE SMOOTH"
);
},
{
closed = 1;
nodes = (
"492 123 OFFCURVE",
"464 155 OFFCURVE",
"464 214 CURVE SMOOTH",
"464 271 OFFCURVE",
"491 306 OFFCURVE",
"546 306 CURVE SMOOTH",
"598 306 OFFCURVE",
"623 269 OFFCURVE",
"623 215 CURVE SMOOTH",
"623 158 OFFCURVE",
"592 123 OFFCURVE",
"542 123 CURVE SMOOTH"
);
}
);
width = 870;
}
);
note = uni13D6;
unicode = 13D6;
},
{
glyphname = uni13D7;
lastChange = "2016-06-22 20:04:59 +0000";
layers = (
{
anchors = (
{
name = bottom;
position = "{358, 0}";
},
{
name = top;
position = "{520, 714}";
}
);
layerId = "7F3B6D50-898E-416D-BEA3-584E42DB8369";
paths = (
{
closed = 1;
nodes = (
"280 -13 OFFCURVE",
"407 101 OFFCURVE",
"477 273 CURVE",
"481 273 LINE",
"479 231 OFFCURVE",
"478 178 OFFCURVE",
"478 128 CURVE SMOOTH",
"478 0 LINE",
"645 0 LINE",
"645 49 LINE",
"563 57 LINE",
"563 657 LINE",
"645 665 LINE",
"645 714 LINE",
"390 714 LINE",
"390 665 LINE",
"478 657 LINE",
"478 494 LINE",
"467 313 OFFCURVE",
"318 49 OFFCURVE",
"152 49 CURVE SMOOTH",
"138 49 OFFCURVE",
"130 50 OFFCURVE",
"122 52 CURVE",
"132 62 OFFCURVE",
"138 71 OFFCURVE",
"138 87 CURVE SMOOTH",
"138 115 OFFCURVE",
"118 132 OFFCURVE",
"85 132 CURVE SMOOTH",
"51 132 OFFCURVE",
"27 105 OFFCURVE",
"27 69 CURVE SMOOTH",
"27 19 OFFCURVE",
"70 -13 OFFCURVE",
"140 -13 CURVE SMOOTH"
);
}
);
width = 715;
},
{
anchors = (
{
name = bottom;
position = "{346, 0}";
},
{
name = top;
position = "{509, 714}";
}
);
layerId = "2DF4BED8-8C28-42AB-BF0E-54235D05585D";
paths = (
{
closed = 1;
nodes = (
"245 -9 OFFCURVE",
"433 160 OFFCURVE",
"496 400 CURVE",
"498 400 LINE",
"497 351 OFFCURVE",
"496 289 OFFCURVE",
"496 240 CURVE SMOOTH",
"496 0 LINE",
"611 0 LINE",
"611 18 LINE",
"522 23 LINE",
"522 691 LINE",
"611 696 LINE",
"611 714 LINE",
"405 714 LINE",
"405 696 LINE",
"496 691 LINE",
"496 512 LINE",
"461 205 OFFCURVE",
"236 15 OFFCURVE",
"101 15 CURVE SMOOTH",
"88 15 OFFCURVE",
"75 16 OFFCURVE",
"68 19 CURVE",
"76 25 OFFCURVE",
"83 30 OFFCURVE",
"83 44 CURVE SMOOTH",
"83 60 OFFCURVE",
"71 69 OFFCURVE",
"57 69 CURVE SMOOTH",
"43 69 OFFCURVE",
"29 58 OFFCURVE",
"29 38 CURVE SMOOTH",
"29 11 OFFCURVE",
"49 -9 OFFCURVE",
"102 -9 CURVE SMOOTH"
);
}
);
width = 691;
},
{
anchors = (
{
name = bottom;
position = "{386, 0}";
},
{
name = top;
position = "{547, 714}";
}
);
layerId = "E4ECE1AD-6BB8-4230-9342-12306ED3D56E";
paths = (
{
closed = 1;
nodes = (
"305 -10 OFFCURVE",
"403 91 OFFCURVE",
"456 186 CURVE",
"458 186 LINE",
"456 158 OFFCURVE",
"456 128 OFFCURVE",
"456 100 CURVE SMOOTH",
"456 0 LINE",
"716 0 LINE",
"716 112 LINE",
"649 120 LINE",
"649 594 LINE",
"716 602 LINE",
"716 714 LINE",
"388 714 LINE",
"388 602 LINE",
"456 594 LINE",
"456 529 LINE SMOOTH",
"456 385 OFFCURVE",
"326 147 OFFCURVE",
"204 147 CURVE SMOOTH",
"197 147 OFFCURVE",
"192 148 OFFCURVE",
"188 149 CURVE",
"191 154 OFFCURVE",
"195 166 OFFCURVE",
"195 179 CURVE SMOOTH",
"195 211 OFFCURVE",
"171 245 OFFCURVE",
"115 245 CURVE SMOOTH",
"51 245 OFFCURVE",
"11 200 OFFCURVE",
"11 134 CURVE SMOOTH",
"11 45 OFFCURVE",
"66 -10 OFFCURVE",
"179 -10 CURVE SMOOTH"
);
}
);
width = 771;
}
);
note = uni13D7;
rightKerningGroup = uni13BB;
rightMetricsKey = uni13BB;
unicode = 13D7;
},
{
glyphname = uni13D8;
lastChange = "2016-06-22 20:04:59 +0000";
layers = (
{
anchors = (
{
name = bottom;
position = "{375, 0}";
},
{
name = top;
position = "{447, 714}";
}
);
layerId = "7F3B6D50-898E-416D-BEA3-584E42DB8369";
paths = (
{
closed = 1;
nodes = (
"290 -13 OFFCURVE",
"430 101 OFFCURVE",
"500 273 CURVE",
"504 273 LINE",
"502 231 OFFCURVE",
"501 178 OFFCURVE",
"501 128 CURVE SMOOTH",
"501 0 LINE",
"585 0 LINE",
"585 652 LINE",
"690 652 LINE",
"690 714 LINE",
"181 714 LINE",
"181 526 LINE",
"244 526 LINE",
"252 652 LINE",
"501 652 LINE",
"501 494 LINE",
"490 301 OFFCURVE",
"337 49 OFFCURVE",
"152 49 CURVE SMOOTH",
"138 49 OFFCURVE",
"130 50 OFFCURVE",
"122 52 CURVE",
"132 62 OFFCURVE",
"138 71 OFFCURVE",
"138 87 CURVE SMOOTH",
"138 115 OFFCURVE",
"118 132 OFFCURVE",
"85 132 CURVE SMOOTH",
"51 132 OFFCURVE",
"27 105 OFFCURVE",
"27 69 CURVE SMOOTH",
"27 19 OFFCURVE",
"70 -13 OFFCURVE",
"140 -13 CURVE SMOOTH"
);
}
);
width = 750;
},
{
anchors = (
{
name = bottom;
position = "{353, 0}";
},
{
name = top;
position = "{410, 714}";
}
);
layerId = "2DF4BED8-8C28-42AB-BF0E-54235D05585D";
paths = (
{
closed = 1;
nodes = (
"245 -9 OFFCURVE",
"433 160 OFFCURVE",
"496 400 CURVE",
"498 400 LINE",
"497 351 OFFCURVE",
"496 289 OFFCURVE",
"496 240 CURVE SMOOTH",
"496 0 LINE",
"522 0 LINE",
"522 691 LINE",
"640 691 LINE",
"640 714 LINE",
"172 714 LINE",
"172 564 LINE",
"191 564 LINE",
"196 691 LINE",
"496 691 LINE",
"496 512 LINE",
"461 205 OFFCURVE",
"236 15 OFFCURVE",
"101 15 CURVE SMOOTH",
"88 15 OFFCURVE",
"75 16 OFFCURVE",
"68 19 CURVE",
"76 25 OFFCURVE",
"83 30 OFFCURVE",
"83 44 CURVE SMOOTH",
"83 60 OFFCURVE",
"71 69 OFFCURVE",
"57 69 CURVE SMOOTH",
"43 69 OFFCURVE",
"29 58 OFFCURVE",
"29 38 CURVE SMOOTH",
"29 11 OFFCURVE",
"49 -9 OFFCURVE",
"102 -9 CURVE SMOOTH"
);
}
);
width = 705;
},
{
anchors = (
{
name = bottom;
position = "{412, 0}";
},
{
name = top;
position = "{493, 714}";
}
);
layerId = "E4ECE1AD-6BB8-4230-9342-12306ED3D56E";
paths = (
{
closed = 1;
nodes = (
"305 -10 OFFCURVE",
"403 91 OFFCURVE",
"456 186 CURVE",
"458 186 LINE",
"456 158 OFFCURVE",
"456 128 OFFCURVE",
"456 100 CURVE SMOOTH",
"456 0 LINE",
"649 0 LINE",
"649 582 LINE",
"775 582 LINE",
"775 714 LINE",
"176 714 LINE",
"176 485 LINE",
"283 485 LINE",
"291 582 LINE",
"456 582 LINE",
"456 529 LINE SMOOTH",
"456 385 OFFCURVE",
"326 147 OFFCURVE",
"204 147 CURVE SMOOTH",
"197 147 OFFCURVE",
"192 148 OFFCURVE",
"188 149 CURVE",
"191 154 OFFCURVE",
"195 166 OFFCURVE",
"195 179 CURVE SMOOTH",
"195 211 OFFCURVE",
"171 245 OFFCURVE",
"115 245 CURVE SMOOTH",
"51 245 OFFCURVE",
"11 200 OFFCURVE",
"11 134 CURVE SMOOTH",
"11 45 OFFCURVE",
"66 -10 OFFCURVE",
"179 -10 CURVE SMOOTH"
);
}
);
width = 823;
}
);
note = uni13D8;
unicode = 13D8;
},
{
glyphname = uni13D9;
lastChange = "2016-06-22 20:04:59 +0000";
layers = (
{
anchors = (
{
name = bottom;
position = "{374, 0}";
},
{
name = top;
position = "{374, 714}";
}
);
layerId = "7F3B6D50-898E-416D-BEA3-584E42DB8369";
paths = (
{
closed = 1;
nodes = (
"420 0 LINE",
"660 657 LINE",
"740 665 LINE",
"740 714 LINE",
"488 714 LINE",
"488 665 LINE",
"578 657 LINE",
"402 151 LINE SMOOTH",
"391 119 OFFCURVE",
"380 87 OFFCURVE",
"372 59 CURVE",
"367 59 LINE",
"360 88 OFFCURVE",
"351 119 OFFCURVE",
"341 152 CURVE SMOOTH",
"181 657 LINE",
"271 665 LINE",
"271 714 LINE",
"8 714 LINE",
"8 665 LINE",
"89 657 LINE",
"311 0 LINE"
);
}
);
width = 748;
},
{
anchors = (
{
name = bottom;
position = "{361, 0}";
},
{
name = top;
position = "{361, 714}";
}
);
layerId = "2DF4BED8-8C28-42AB-BF0E-54235D05585D";
paths = (
{
closed = 1;
nodes = (
"374 0 LINE",
"634 692 LINE",
"711 696 LINE",
"711 714 LINE",
"525 714 LINE",
"525 696 LINE",
"606 692 LINE",
"399 136 LINE SMOOTH",
"384 95 OFFCURVE",
"370 58 OFFCURVE",
"361 31 CURVE",
"359 31 LINE",
"350 58 OFFCURVE",
"336 97 OFFCURVE",
"323 132 CURVE SMOOTH",
"115 692 LINE",
"197 696 LINE",
"197 714 LINE",
"11 714 LINE",
"11 696 LINE",
"87 692 LINE",
"346 0 LINE"
);
}
);
width = 722;
},
{
anchors = (
{
name = bottom;
position = "{389, 0}";
},
{
name = top;
position = "{389, 714}";
}
);
layerId = "E4ECE1AD-6BB8-4230-9342-12306ED3D56E";
paths = (
{
closed = 1;
nodes = (
"506 0 LINE",
"711 595 LINE",
"770 602 LINE",
"770 714 LINE",
"442 714 LINE",
"442 602 LINE",
"502 595 LINE",
"418 310 LINE SMOOTH",
"408 277 OFFCURVE",
"389 199 OFFCURVE",
"381 155 CURVE",
"376 155 LINE",
"368 200 OFFCURVE",
"351 279 OFFCURVE",
"343 312 CURVE SMOOTH",
"275 595 LINE",
"338 602 LINE",
"338 714 LINE",
"8 714 LINE",
"8 602 LINE",
"64 596 LINE",
"234 0 LINE"
);
}
);
width = 778;
}
);
leftKerningGroup = uni13B3;
note = uni13D9;
unicode = 13D9;
},
{
glyphname = uni13DA;
lastChange = "2016-06-22 20:04:59 +0000";
layers = (
{
anchors = (
{
name = bottom;
position = "{308, 0}";
},
{
name = top;
position = "{308, 714}";
}
);
layerId = "7F3B6D50-898E-416D-BEA3-584E42DB8369";
paths = (
{
closed = 1;
nodes = (
"440 -11 OFFCURVE",
"532 65 OFFCURVE",
"532 190 CURVE SMOOTH",
"532 296 OFFCURVE",
"460 344 OFFCURVE",
"343 391 CURVE SMOOTH",
"244 432 OFFCURVE",
"176 465 OFFCURVE",
"176 542 CURVE SMOOTH",
"176 615 OFFCURVE",
"232 658 OFFCURVE",
"323 658 CURVE SMOOTH",
"379 658 OFFCURVE",
"420 650 OFFCURVE",
"447 633 CURVE",
"454 544 LINE",
"517 544 LINE",
"517 675 LINE",
"475 704 OFFCURVE",
"400 723 OFFCURVE",
"324 723 CURVE SMOOTH",
"188 723 OFFCURVE",
"96 648 OFFCURVE",
"96 538 CURVE SMOOTH",
"96 443 OFFCURVE",
"147 386 OFFCURVE",
"275 335 CURVE SMOOTH",
"382 291 OFFCURVE",
"447 263 OFFCURVE",
"447 182 CURVE SMOOTH",
"447 99 OFFCURVE",
"394 57 OFFCURVE",
"290 57 CURVE SMOOTH",
"230 57 OFFCURVE",
"184 66 OFFCURVE",
"153 86 CURVE",
"147 174 LINE",
"83 174 LINE",
"83 42 LINE",
"127 11 OFFCURVE",
"209 -11 OFFCURVE",
"288 -11 CURVE SMOOTH"
);
}
);
width = 615;
},
{
anchors = (
{
name = bottom;
position = "{281, 0}";
},
{
name = top;
position = "{281, 714}";
}
);
layerId = "2DF4BED8-8C28-42AB-BF0E-54235D05585D";
paths = (
{
closed = 1;
nodes = (
"392 -10 OFFCURVE",
"486 55 OFFCURVE",
"486 180 CURVE SMOOTH",
"486 298 OFFCURVE",
"400 330 OFFCURVE",
"288 377 CURVE SMOOTH",
"193 417 OFFCURVE",
"110 440 OFFCURVE",
"110 549 CURVE SMOOTH",
"110 649 OFFCURVE",
"188 703 OFFCURVE",
"296 703 CURVE SMOOTH",
"364 703 OFFCURVE",
"406 687 OFFCURVE",
"443 667 CURVE",
"451 540 LINE",
"470 540 LINE",
"470 680 LINE",
"431 704 OFFCURVE",
"373 724 OFFCURVE",
"300 724 CURVE SMOOTH",
"179 724 OFFCURVE",
"83 667 OFFCURVE",
"83 547 CURVE SMOOTH",
"83 428 OFFCURVE",
"166 399 OFFCURVE",
"274 354 CURVE SMOOTH",
"383 308 OFFCURVE",
"459 280 OFFCURVE",
"459 181 CURVE SMOOTH",
"459 65 OFFCURVE",
"375 13 OFFCURVE",
"263 13 CURVE SMOOTH",
"194 13 OFFCURVE",
"139 28 OFFCURVE",
"102 44 CURVE",
"94 170 LINE",
"75 170 LINE",
"75 26 LINE",
"118 8 OFFCURVE",
"177 -10 OFFCURVE",
"261 -10 CURVE SMOOTH"
);
}
);
width = 561;
},
{
anchors = (
{
name = bottom;
position = "{310, 0}";
},
{
name = top;
position = "{310, 714}";
}
);
layerId = "E4ECE1AD-6BB8-4230-9342-12306ED3D56E";
paths = (
{
closed = 1;
nodes = (
"481 -10 OFFCURVE",
"569 100 OFFCURVE",
"569 217 CURVE SMOOTH",
"569 333 OFFCURVE",
"521 380 OFFCURVE",
"375 431 CURVE SMOOTH",
"278 465 OFFCURVE",
"237 481 OFFCURVE",
"237 533 CURVE SMOOTH",
"237 575 OFFCURVE",
"264 602 OFFCURVE",
"328 602 CURVE SMOOTH",
"365 602 OFFCURVE",
"392 595 OFFCURVE",
"413 586 CURVE",
"424 485 LINE",
"531 485 LINE",
"531 687 LINE",
"481 708 OFFCURVE",
"417 724 OFFCURVE",
"330 724 CURVE SMOOTH",
"158 724 OFFCURVE",
"50 653 OFFCURVE",
"50 515 CURVE SMOOTH",
"50 389 OFFCURVE",
"117 340 OFFCURVE",
"236 297 CURVE SMOOTH",
"348 256 OFFCURVE",
"382 239 OFFCURVE",
"382 188 CURVE SMOOTH",
"382 146 OFFCURVE",
"348 117 OFFCURVE",
"281 117 CURVE SMOOTH",
"237 117 OFFCURVE",
"195 129 OFFCURVE",
"167 145 CURVE",
"157 239 LINE",
"50 239 LINE",
"50 39 LINE",
"110 11 OFFCURVE",
"176 -10 OFFCURVE",
"279 -10 CURVE SMOOTH"
);
}
);
width = 619;
}
);
leftKerningGroup = uni13DA;
note = uni13DA;
unicode = 13DA;
},
{
glyphname = uni13DB;
lastChange = "2016-06-22 20:04:59 +0000";
layers = (
{
anchors = (
{
name = bottom;
position = "{259, 0}";
},
{
name = top;
position = "{601, 714}";
}
);
layerId = "7F3B6D50-898E-416D-BEA3-584E42DB8369";
paths = (
{
closed = 1;
nodes = (
"375 -11 OFFCURVE",
"439 83 OFFCURVE",
"439 257 CURVE SMOOTH",
"439 659 LINE",
"559 654 OFFCURVE",
"601 593 OFFCURVE",
"605 444 CURVE",
"676 444 LINE",
"681 563 OFFCURVE",
"732 658 OFFCURVE",
"836 658 CURVE SMOOTH",
"911 658 OFFCURVE",
"955 618 OFFCURVE",
"955 549 CURVE SMOOTH",
"955 494 OFFCURVE",
"922 456 OFFCURVE",
"875 456 CURVE SMOOTH",
"851 456 OFFCURVE",
"831 464 OFFCURVE",
"816 480 CURVE",
"774 438 LINE",
"797 410 OFFCURVE",
"831 395 OFFCURVE",
"876 395 CURVE SMOOTH",
"963 395 OFFCURVE",
"1026 462 OFFCURVE",
"1026 555 CURVE SMOOTH",
"1026 660 OFFCURVE",
"949 725 OFFCURVE",
"837 725 CURVE SMOOTH",
"749 725 OFFCURVE",
"683 674 OFFCURVE",
"653 583 CURVE",
"645 583 LINE",
"618 678 OFFCURVE",
"544 725 OFFCURVE",
"410 725 CURVE SMOOTH",
"179 725 OFFCURVE",
"62 557 OFFCURVE",
"62 305 CURVE SMOOTH",
"62 94 OFFCURVE",
"117 -11 OFFCURVE",
"256 -11 CURVE SMOOTH"
);
},
{
closed = 1;
nodes = (
"181 57 OFFCURVE",
"148 141 OFFCURVE",
"148 307 CURVE SMOOTH",
"148 524 OFFCURVE",
"235 641 OFFCURVE",
"357 655 CURVE",
"357 250 LINE SMOOTH",
"357 118 OFFCURVE",
"326 57 OFFCURVE",
"257 57 CURVE SMOOTH"
);
}
);
width = 1062;
},
{
anchors = (
{
name = bottom;
position = "{254, 0}";
},
{
name = top;
position = "{590, 714}";
}
);
layerId = "2DF4BED8-8C28-42AB-BF0E-54235D05585D";
paths = (
{
closed = 1;
nodes = (
"361 -11 OFFCURVE",
"411 75 OFFCURVE",
"411 225 CURVE SMOOTH",
"411 700 LINE",
"548 698 OFFCURVE",
"628 627 OFFCURVE",
"628 444 CURVE",
"654 444 LINE",
"654 616 OFFCURVE",
"718 701 OFFCURVE",
"838 701 CURVE SMOOTH",
"925 701 OFFCURVE",
"979 650 OFFCURVE",
"979 565 CURVE SMOOTH",
"979 478 OFFCURVE",
"929 419 OFFCURVE",
"843 419 CURVE SMOOTH",
"787 419 OFFCURVE",
"754 448 OFFCURVE",
"738 471 CURVE",
"718 453 LINE",
"737 427 OFFCURVE",
"776 395 OFFCURVE",
"842 395 CURVE SMOOTH",
"940 395 OFFCURVE",
"1005 462 OFFCURVE",
"1005 566 CURVE SMOOTH",
"1005 662 OFFCURVE",
"942 725 OFFCURVE",
"839 725 CURVE SMOOTH",
"712 725 OFFCURVE",
"654 637 OFFCURVE",
"641 557 CURVE",
"639 557 LINE",
"622 646 OFFCURVE",
"555 724 OFFCURVE",
"403 724 CURVE SMOOTH",
"186 724 OFFCURVE",
"70 547 OFFCURVE",
"70 294 CURVE SMOOTH",
"70 61 OFFCURVE",
"152 -11 OFFCURVE",
"251 -11 CURVE SMOOTH"
);
},
{
closed = 1;
nodes = (
"170 13 OFFCURVE",
"96 77 OFFCURVE",
"96 294 CURVE SMOOTH",
"96 528 OFFCURVE",
"198 690 OFFCURVE",
"385 700 CURVE",
"385 225 LINE SMOOTH",
"385 80 OFFCURVE",
"342 13 OFFCURVE",
"252 13 CURVE SMOOTH"
);
}
);
width = 1046;
},
{
anchors = (
{
name = bottom;
position = "{295, 0}";
},
{
name = top;
position = "{679, 714}";
}
);
layerId = "E4ECE1AD-6BB8-4230-9342-12306ED3D56E";
paths = (
{
closed = 1;
nodes = (
"443 -12 OFFCURVE",
"517 86 OFFCURVE",
"517 243 CURVE SMOOTH",
"517 570 LINE",
"563 549 OFFCURVE",
"586 490 OFFCURVE",
"586 385 CURVE",
"790 385 LINE",
"796 490 OFFCURVE",
"824 577 OFFCURVE",
"912 577 CURVE SMOOTH",
"952 577 OFFCURVE",
"976 555 OFFCURVE",
"976 520 CURVE SMOOTH",
"976 494 OFFCURVE",
"959 474 OFFCURVE",
"930 474 CURVE SMOOTH",
"913 474 OFFCURVE",
"900 480 OFFCURVE",
"892 487 CURVE",
"833 363 LINE",
"852 347 OFFCURVE",
"893 327 OFFCURVE",
"954 327 CURVE SMOOTH",
"1073 327 OFFCURVE",
"1145 413 OFFCURVE",
"1145 522 CURVE SMOOTH",
"1145 635 OFFCURVE",
"1070 725 OFFCURVE",
"922 725 CURVE SMOOTH",
"777 725 OFFCURVE",
"715 646 OFFCURVE",
"693 585 CURVE",
"690 585 LINE",
"668 647 OFFCURVE",
"603 724 OFFCURVE",
"421 724 CURVE SMOOTH",
"180 724 OFFCURVE",
"51 560 OFFCURVE",
"51 305 CURVE SMOOTH",
"51 84 OFFCURVE",
"140 -12 OFFCURVE",
"293 -12 CURVE SMOOTH"
);
},
{
closed = 1;
nodes = (
"270 130 OFFCURVE",
"250 163 OFFCURVE",
"250 293 CURVE SMOOTH",
"250 444 OFFCURVE",
"280 543 OFFCURVE",
"350 567 CURVE",
"350 247 LINE SMOOTH",
"350 157 OFFCURVE",
"331 130 OFFCURVE",
"304 130 CURVE SMOOTH"
);
}
);
width = 1175;
}
);
leftMetricsKey = uni13BE;
note = uni13DB;
rightKerningGroup = uni13B9;
unicode = 13DB;
},
{
glyphname = uni13DC;
lastChange = "2016-06-22 20:04:59 +0000";
layers = (
{
anchors = (
{
name = bottom;
position = "{407, 0}";
},
{
name = top;
position = "{407, 714}";
}
);
layerId = "7F3B6D50-898E-416D-BEA3-584E42DB8369";
paths = (
{
closed = 1;
nodes = (
"285 -11 OFFCURVE",
"353 50 OFFCURVE",
"353 143 CURVE SMOOTH",
"353 213 OFFCURVE",
"318 266 OFFCURVE",
"244 302 CURVE",
"283 323 OFFCURVE",
"363 361 OFFCURVE",
"403 380 CURVE",
"450 359 OFFCURVE",
"534 322 OFFCURVE",
"573 301 CURVE",
"502 270 OFFCURVE",
"461 216 OFFCURVE",
"461 142 CURVE SMOOTH",
"461 49 OFFCURVE",
"518 -11 OFFCURVE",
"614 -11 CURVE SMOOTH",
"705 -11 OFFCURVE",
"771 49 OFFCURVE",
"771 143 CURVE SMOOTH",
"771 222 OFFCURVE",
"732 283 OFFCURVE",
"647 333 CURVE SMOOTH",
"593 365 OFFCURVE",
"512 399 OFFCURVE",
"467 421 CURVE",
"529 455 OFFCURVE",
"566 504 OFFCURVE",
"566 575 CURVE SMOOTH",
"566 670 OFFCURVE",
"496 725 OFFCURVE",
"407 725 CURVE SMOOTH",
"319 725 OFFCURVE",
"247 667 OFFCURVE",
"247 572 CURVE SMOOTH",
"247 500 OFFCURVE",
"281 456 OFFCURVE",
"344 421 CURVE",
"277 389 OFFCURVE",
"222 364 OFFCURVE",
"162 326 CURVE SMOOTH",
"86 278 OFFCURVE",
"42 220 OFFCURVE",
"42 142 CURVE SMOOTH",
"42 46 OFFCURVE",
"101 -11 OFFCURVE",
"196 -11 CURVE SMOOTH"
);
},
{
closed = 1;
nodes = (
"144 49 OFFCURVE",
"111 86 OFFCURVE",
"111 144 CURVE SMOOTH",
"111 198 OFFCURVE",
"138 239 OFFCURVE",
"191 266 CURVE",
"252 244 OFFCURVE",
"284 206 OFFCURVE",
"284 144 CURVE SMOOTH",
"284 89 OFFCURVE",
"250 49 OFFCURVE",
"196 49 CURVE SMOOTH"
);
},
{
closed = 1;
nodes = (
"562 49 OFFCURVE",
"529 86 OFFCURVE",
"529 141 CURVE SMOOTH",
"529 207 OFFCURVE",
"563 247 OFFCURVE",
"623 266 CURVE",
"678 238 OFFCURVE",
"703 201 OFFCURVE",
"703 145 CURVE SMOOTH",
"703 87 OFFCURVE",
"667 49 OFFCURVE",
"614 49 CURVE SMOOTH"
);
},
{
closed = 1;
nodes = (
"344 485 OFFCURVE",
"313 516 OFFCURVE",
"313 573 CURVE SMOOTH",
"313 628 OFFCURVE",
"353 666 OFFCURVE",
"407 666 CURVE SMOOTH",
"461 666 OFFCURVE",
"500 629 OFFCURVE",
"500 573 CURVE SMOOTH",
"500 517 OFFCURVE",
"469 485 OFFCURVE",
"406 455 CURVE"
);
}
);
width = 813;
},
{
anchors = (
{
name = bottom;
position = "{405, 0}";
},
{
name = top;
position = "{405, 714}";
}
);
layerId = "2DF4BED8-8C28-42AB-BF0E-54235D05585D";
paths = (
{
closed = 1;
nodes = (
"279 -11 OFFCURVE",
"337 47 OFFCURVE",
"337 142 CURVE SMOOTH",
"337 232 OFFCURVE",
"276 289 OFFCURVE",
"193 310 CURVE",
"252 344 OFFCURVE",
"339 373 OFFCURVE",
"398 403 CURVE",
"462 373 OFFCURVE",
"557 345 OFFCURVE",
"617 309 CURVE",
"532 285 OFFCURVE",
"469 227 OFFCURVE",
"469 135 CURVE SMOOTH",
"469 47 OFFCURVE",
"529 -11 OFFCURVE",
"620 -11 CURVE SMOOTH",
"708 -11 OFFCURVE",
"764 52 OFFCURVE",
"764 146 CURVE SMOOTH",
"764 215 OFFCURVE",
"732 267 OFFCURVE",
"655 315 CURVE SMOOTH",
"587 358 OFFCURVE",
"476 392 OFFCURVE",
"425 416 CURVE",
"523 468 OFFCURVE",
"551 511 OFFCURVE",
"551 581 CURVE SMOOTH",
"551 667 OFFCURVE",
"490 725 OFFCURVE",
"410 725 CURVE SMOOTH",
"323 725 OFFCURVE",
"260 667 OFFCURVE",
"260 578 CURVE SMOOTH",
"260 511 OFFCURVE",
"282 464 OFFCURVE",
"370 417 CURVE",
"325 392 OFFCURVE",
"213 352 OFFCURVE",
"152 312 CURVE SMOOTH",
"72 260 OFFCURVE",
"45 209 OFFCURVE",
"45 138 CURVE SMOOTH",
"45 46 OFFCURVE",
"102 -11 OFFCURVE",
"191 -11 CURVE SMOOTH"
);
},
{
closed = 1;
nodes = (
"120 13 OFFCURVE",
"71 60 OFFCURVE",
"71 138 CURVE SMOOTH",
"71 200 OFFCURVE",
"93 244 OFFCURVE",
"161 289 CURVE",
"251 278 OFFCURVE",
"311 226 OFFCURVE",
"311 142 CURVE SMOOTH",
"311 60 OFFCURVE",
"264 13 OFFCURVE",
"191 13 CURVE SMOOTH"
);
},
{
closed = 1;
nodes = (
"543 13 OFFCURVE",
"495 60 OFFCURVE",
"495 135 CURVE SMOOTH",
"495 220 OFFCURVE",
"553 276 OFFCURVE",
"649 289 CURVE",
"713 248 OFFCURVE",
"738 204 OFFCURVE",
"738 146 CURVE SMOOTH",
"738 65 OFFCURVE",
"693 13 OFFCURVE",
"620 13 CURVE SMOOTH"
);
},
{
closed = 1;
nodes = (
"308 475 OFFCURVE",
"286 518 OFFCURVE",
"286 578 CURVE SMOOTH",
"286 654 OFFCURVE",
"338 701 OFFCURVE",
"410 701 CURVE SMOOTH",
"476 701 OFFCURVE",
"525 654 OFFCURVE",
"525 581 CURVE SMOOTH",
"525 521 OFFCURVE",
"507 484 OFFCURVE",
"398 430 CURVE"
);
}
);
width = 809;
},
{
anchors = (
{
name = bottom;
position = "{468, 0}";
},
{
name = top;
position = "{468, 714}";
}
);
layerId = "E4ECE1AD-6BB8-4230-9342-12306ED3D56E";
paths = (
{
closed = 1;
nodes = (
"362 -12 OFFCURVE",
"447 54 OFFCURVE",
"447 163 CURVE SMOOTH",
"447 226 OFFCURVE",
"416 273 OFFCURVE",
"368 302 CURVE",
"400 316 OFFCURVE",
"446 330 OFFCURVE",
"464 339 CURVE",
"482 331 OFFCURVE",
"538 314 OFFCURVE",
"566 302 CURVE",
"517 274 OFFCURVE",
"485 229 OFFCURVE",
"485 163 CURVE SMOOTH",
"485 53 OFFCURVE",
"567 -12 OFFCURVE",
"689 -12 CURVE SMOOTH",
"830 -12 OFFCURVE",
"903 63 OFFCURVE",
"903 177 CURVE SMOOTH",
"903 260 OFFCURVE",
"861 314 OFFCURVE",
"788 349 CURVE SMOOTH",
"728 378 OFFCURVE",
"649 397 OFFCURVE",
"615 411 CURVE",
"681 452 OFFCURVE",
"703 493 OFFCURVE",
"703 555 CURVE SMOOTH",
"703 657 OFFCURVE",
"614 724 OFFCURVE",
"472 724 CURVE SMOOTH",
"326 724 OFFCURVE",
"236 657 OFFCURVE",
"236 553 CURVE SMOOTH",
"236 491 OFFCURVE",
"258 447 OFFCURVE",
"318 407 CURVE",
"288 396 OFFCURVE",
"209 377 OFFCURVE",
"151 346 CURVE SMOOTH",
"73 304 OFFCURVE",
"32 254 OFFCURVE",
"32 165 CURVE SMOOTH",
"32 62 OFFCURVE",
"105 -12 OFFCURVE",
"245 -12 CURVE SMOOTH"
);
},
{
closed = 1;
nodes = (
"213 96 OFFCURVE",
"198 118 OFFCURVE",
"198 161 CURVE SMOOTH",
"198 204 OFFCURVE",
"212 233 OFFCURVE",
"244 253 CURVE",
"268 236 OFFCURVE",
"285 202 OFFCURVE",
"285 165 CURVE SMOOTH",
"285 120 OFFCURVE",
"267 96 OFFCURVE",
"243 96 CURVE SMOOTH"
);
},
{
closed = 1;
nodes = (
"662 96 OFFCURVE",
"646 121 OFFCURVE",
"646 169 CURVE SMOOTH",
"646 205 OFFCURVE",
"664 234 OFFCURVE",
"691 253 CURVE",
"722 230 OFFCURVE",
"735 205 OFFCURVE",
"735 167 CURVE SMOOTH",
"735 118 OFFCURVE",
"717 96 OFFCURVE",
"691 96 CURVE SMOOTH"
);
},
{
closed = 1;
nodes = (
"419 494 OFFCURVE",
"413 522 OFFCURVE",
"413 551 CURVE SMOOTH",
"413 587 OFFCURVE",
"434 611 OFFCURVE",
"470 611 CURVE SMOOTH",
"501 611 OFFCURVE",
"522 587 OFFCURVE",
"522 553 CURVE SMOOTH",
"522 523 OFFCURVE",
"518 495 OFFCURVE",
"468 461 CURVE"
);
}
);
width = 935;
}
);
note = uni13DC;
unicode = 13DC;
},
